<svg width="330" height="330" viewBox="0 0 330 330" fill="none" xmlns="http://www.w3.org/2000/svg">
<path d="M63.4326 286.499C120.074 314.292 211.933 314.292 268.541 286.499C325.149 258.707 325.175 213.635 268.541 185.843C211.906 158.05 120.041 158.044 63.4326 185.843C6.82438 213.642 6.79138 258.72 63.4326 286.499Z" fill="#F5F5F5" fill-opacity="0.2"/>
<path d="M95.1126 282.863C112.135 282.863 125.935 276.285 125.935 268.171C125.935 260.057 112.135 253.479 95.1126 253.479C78.0901 253.479 64.2906 260.057 64.2906 268.171C64.2906 276.285 78.0901 282.863 95.1126 282.863Z" fill="#E0E0E0" fill-opacity="0.2"/>
<path d="M250.147 239.646C267.169 239.646 280.969 233.068 280.969 224.954C280.969 216.84 267.169 210.263 250.147 210.263C233.124 210.263 219.325 216.84 219.325 224.954C219.325 233.068 233.124 239.646 250.147 239.646Z" fill="#E0E0E0" fill-opacity="0.2"/>
<path d="M133.162 161.7L107.019 176.794C105.955 177.488 105.2 178.566 104.914 179.804L98.4192 217.312C98.3467 217.896 98.4408 218.49 98.6907 219.023C98.9406 219.557 99.3361 220.009 99.8316 220.328L116.688 230.056C117.232 230.333 117.833 230.477 118.444 230.477C119.054 230.477 119.655 230.333 120.199 230.056L156.222 209.26C156.753 208.979 157.196 208.559 157.506 208.045C157.816 207.531 157.979 206.942 157.979 206.342C157.979 205.742 157.816 205.154 157.506 204.64C157.196 204.126 156.753 203.706 156.222 203.425L143.26 195.941C142.735 195.603 142.288 195.159 141.947 194.637C141.606 194.115 141.379 193.527 141.28 192.911L138.395 164.611C138.312 164.013 138.103 163.44 137.784 162.928C137.464 162.417 137.041 161.978 136.541 161.641C136.012 161.386 135.431 161.259 134.844 161.269C134.257 161.28 133.681 161.427 133.162 161.7Z" fill="#263238"/>
<path d="M118.444 223.469V230.485C119.055 230.494 119.659 230.349 120.199 230.063L156.222 209.266C156.723 208.952 157.143 208.524 157.448 208.017C157.753 207.51 157.934 206.939 157.978 206.349C157.943 205.66 157.701 204.998 157.285 204.448H151.391L118.444 223.469Z" fill="#455A64"/>
<path d="M136.455 163.614L110.312 178.702C109.248 179.397 108.496 180.478 108.214 181.718L102.3 215.761C102.227 216.345 102.32 216.939 102.57 217.473C102.82 218.007 103.216 218.459 103.712 218.777L116.675 226.261C117.22 226.535 117.821 226.677 118.43 226.677C119.04 226.677 119.641 226.535 120.186 226.261L156.222 205.458C157.192 204.897 157.192 203.993 156.222 203.432L143.26 195.947C142.735 195.61 142.288 195.165 141.947 194.643C141.606 194.122 141.379 193.534 141.28 192.918L138.395 164.617C138.401 164.389 138.342 164.165 138.226 163.969C138.11 163.773 137.941 163.613 137.739 163.508C137.537 163.404 137.309 163.358 137.082 163.377C136.855 163.396 136.638 163.478 136.455 163.614Z" fill="#263238"/>
<path d="M156.222 203.432L143.26 195.947C142.74 195.62 142.3 195.18 141.973 194.66L102.564 217.417C102.801 217.98 103.207 218.455 103.726 218.777L116.688 226.261C117.233 226.535 117.834 226.677 118.444 226.677C119.053 226.677 119.654 226.535 120.199 226.261L156.222 205.458C157.192 204.897 157.192 203.993 156.222 203.432Z" fill="#37474F"/>
<path d="M50.0874 236.28L48.4176 235.317C47.7009 234.85 47.1044 234.22 46.6766 233.479C46.2489 232.738 46.0019 231.907 45.9558 231.053V118.8C46.0024 117.948 46.2496 117.119 46.6774 116.38C47.1052 115.641 47.7015 115.014 48.4176 114.55L185.566 35.8117C186.328 35.4261 187.17 35.2251 188.024 35.2251C188.878 35.2251 189.72 35.4261 190.483 35.8117L191.763 36.5509C192.479 37.0164 193.075 37.6448 193.502 38.3847C193.928 39.1246 194.174 39.955 194.218 40.8079V153.12C194.172 153.973 193.926 154.803 193.5 155.542C193.073 156.282 192.478 156.91 191.763 157.377L55.0044 236.28C54.2427 236.667 53.4004 236.869 52.5459 236.869C51.6915 236.869 50.8491 236.667 50.0874 236.28Z" fill="#455A64"/>
<path d="M55.8426 121.691L46.6818 116.411C46.2367 117.143 45.9867 117.977 45.9558 118.833V231.079C46.0019 231.934 46.2489 232.765 46.6766 233.506C47.1044 234.246 47.7009 234.876 48.4176 235.343L50.0874 236.28C50.8491 236.667 51.6915 236.869 52.5459 236.869C53.4004 236.869 54.2427 236.667 55.0044 236.28L55.8426 235.798V121.691Z" fill="#263238"/>
<path d="M52.5492 234.887V122.628C52.5956 121.775 52.842 120.946 53.2685 120.206C53.6951 119.467 54.2897 118.838 55.0044 118.371L191.763 39.4152C193.123 38.6298 194.218 39.2634 194.218 40.8342V153.12C194.172 153.973 193.926 154.802 193.5 155.542C193.073 156.282 192.478 156.91 191.763 157.377L55.0044 236.28C53.6514 237.092 52.5492 236.452 52.5492 234.887Z" fill="#37474F"/>
<path d="M116.767 193.043L129.723 185.559C130.693 184.998 131.485 185.401 131.485 186.45C131.441 187.04 131.258 187.612 130.952 188.119C130.646 188.626 130.225 189.053 129.723 189.367L116.767 196.845C115.797 197.406 115.012 197.01 115.012 195.961C115.055 195.371 115.236 194.799 115.541 194.292C115.846 193.786 116.266 193.358 116.767 193.043Z" fill="#E0E0E0"/>
<path d="M58.8456 121.803L187.645 47.2231C188.417 46.7743 189.044 47.1307 189.044 48.0283V145.86C189.018 146.347 188.878 146.822 188.635 147.245C188.392 147.668 188.053 148.028 187.645 148.295L58.8522 222.671C58.0734 223.12 57.4464 222.757 57.4464 221.866V124.238C57.4721 123.751 57.6122 123.277 57.8553 122.854C58.0983 122.431 58.4376 122.071 58.8456 121.803Z" fill="white"/>
<path d="M63.6504 123.677L181.817 55.4399C183.962 54.2057 185.717 55.2155 185.717 57.6905V142.666C185.683 143.293 185.501 143.904 185.187 144.448C184.873 144.993 184.435 145.456 183.909 145.801L62.9508 215.622C61.9542 216.203 61.1424 215.728 61.1424 214.579V128.04C61.1888 127.167 61.44 126.317 61.8757 125.559C62.3114 124.801 62.9194 124.157 63.6504 123.677Z" fill="#E6E6E6"/>
<path d="M112.101 108.841L177.223 71.2405V84.3217L112.101 121.915V108.841Z" fill="#F5F5F5"/>
<path d="M112.101 127.096L177.223 89.4961V122.258L112.101 159.859V127.096Z" fill="#F0F0F0"/>
<path d="M185.717 59.7497V57.7103C185.717 55.2353 183.962 54.2255 181.817 55.4597L63.6768 123.677C62.9475 124.155 62.3406 124.798 61.905 125.553C61.4694 126.309 61.2172 127.156 61.1688 128.027V131.663L185.717 59.7497Z" fill="#1A3166"/>
<path d="M169.363 64.3831C168.976 64.6413 168.655 64.9866 168.426 65.3912C168.197 65.7957 168.065 66.2484 168.043 66.7129C168.043 67.5709 168.643 67.9141 169.363 67.4851C169.75 67.2286 170.071 66.8847 170.3 66.4811C170.529 66.0775 170.66 65.6256 170.683 65.1619C170.709 64.3039 170.108 63.9607 169.363 64.3831Z" fill="white"/>
<path d="M174.695 61.3074C174.308 61.5648 173.987 61.9099 173.757 62.3147C173.528 62.7194 173.397 63.1725 173.375 63.6372C173.375 64.4886 173.976 64.8384 174.695 64.4094C175.081 64.1518 175.402 63.8076 175.631 63.4042C175.86 63.0008 175.992 62.5495 176.015 62.0862C176.035 61.2282 175.435 60.8784 174.695 61.3074Z" fill="white"/>
<path d="M180.022 58.2318C179.636 58.4894 179.315 58.8336 179.086 59.237C178.857 59.6404 178.725 60.0917 178.702 60.555C178.702 61.413 179.302 61.7628 180.022 61.3338C180.409 61.0764 180.73 60.7313 180.96 60.3265C181.189 59.9218 181.32 59.4687 181.342 59.004C181.368 58.1526 180.767 57.8028 180.022 58.2318Z" fill="white"/>
<path d="M66.7986 178.2C66.6782 178.199 66.56 178.167 66.4554 178.108C66.3493 178.047 66.2612 177.96 66.1997 177.854C66.1383 177.749 66.1058 177.629 66.1056 177.507V135.003C66.1016 134.881 66.1316 134.76 66.1922 134.654C66.2528 134.548 66.3416 134.461 66.4488 134.402L103.198 113.111C103.304 113.051 103.425 113.019 103.547 113.019C103.67 113.019 103.79 113.051 103.897 113.111C104.004 113.172 104.092 113.261 104.154 113.367C104.215 113.474 104.247 113.595 104.247 113.718V156.255C104.247 156.377 104.214 156.497 104.153 156.602C104.091 156.708 104.003 156.795 103.897 156.856L67.1484 178.108C67.0417 178.168 66.9212 178.2 66.7986 178.2ZM67.4982 135.406V176.326L102.854 155.866V114.946L67.4982 135.406Z" fill="#FAFAFA"/>
<path d="M79.464 162.855C78.1782 162.869 76.9119 162.541 75.7944 161.905C73.1544 160.38 71.6958 157.225 71.6958 153.008C71.6958 144.639 77.583 134.409 84.8232 130.218C88.4598 128.113 91.9182 127.789 94.5582 129.314C97.1982 130.838 98.6568 133.993 98.6568 138.211C98.6568 146.593 92.763 156.816 85.5228 161.007C83.6993 162.142 81.6103 162.779 79.464 162.855ZM90.8886 129.763C88.9853 129.838 87.135 130.411 85.5228 131.426C78.6654 135.386 73.0884 145.081 73.0884 153.008C73.0884 156.704 74.2962 159.436 76.4874 160.697C78.6786 161.957 81.642 161.641 84.8232 159.799C91.6806 155.839 97.2642 146.15 97.2642 138.211C97.2642 134.515 96.0564 131.782 93.8586 130.522C92.9536 130.009 91.9285 129.747 90.8886 129.763Z" fill="#FAFAFA"/>
<path d="M224.083 183.896L221.529 182.417C221.468 182.385 221.4 182.368 221.331 182.368C221.262 182.368 221.194 182.385 221.133 182.417L216.513 184.496C216.44 184.531 216.361 184.549 216.28 184.55C216.199 184.55 216.119 184.532 216.046 184.498C215.973 184.464 215.908 184.415 215.857 184.353C215.805 184.291 215.768 184.218 215.747 184.14C215.498 183.338 215.152 182.569 214.718 181.85C214.62 181.682 214.563 181.494 214.55 181.301C214.538 181.107 214.57 180.913 214.645 180.734L217.721 174.53C217.797 174.373 217.811 174.193 217.761 174.026C217.711 173.858 217.6 173.716 217.45 173.626L214.111 171.699C214.037 171.652 213.954 171.62 213.868 171.605C213.781 171.59 213.693 171.593 213.608 171.612C213.522 171.632 213.442 171.668 213.37 171.72C213.299 171.771 213.239 171.836 213.193 171.91L209.359 177.679C209.238 177.831 209.086 177.955 208.913 178.041C208.74 178.128 208.549 178.175 208.355 178.18C207.915 178.168 207.473 178.188 207.035 178.24V174.022L204.468 172.544C204.401 172.514 204.328 172.502 204.255 172.509C204.182 172.516 204.112 172.541 204.052 172.583L198.865 175.58C198.699 175.688 198.559 175.829 198.452 175.996C198.345 176.162 198.274 176.348 198.244 176.543L197.729 182.318C197.67 182.726 197.48 183.103 197.188 183.394C196.161 184.346 195.197 185.364 194.304 186.443C194.18 186.584 194.018 186.685 193.838 186.737C193.658 186.788 193.467 186.787 193.288 186.734L189.955 185.572C189.783 185.519 189.599 185.523 189.431 185.585C189.262 185.647 189.119 185.763 189.024 185.915L185.209 192.515C185.123 192.674 185.093 192.857 185.123 193.035C185.153 193.214 185.241 193.377 185.374 193.499L188.047 195.802C188.183 195.932 188.28 196.097 188.326 196.28C188.371 196.462 188.364 196.653 188.305 196.832C187.815 198.143 187.416 199.486 187.11 200.851C187.002 201.247 186.771 201.599 186.45 201.854L181.711 205.187C181.557 205.312 181.43 205.467 181.339 205.643C181.248 205.819 181.195 206.012 181.183 206.21V212.197C181.177 212.272 181.191 212.348 181.223 212.416C181.256 212.485 181.306 212.543 181.368 212.586L183.922 214.058L187.717 212.263C187.858 212.566 188.014 212.861 188.186 213.147C188.283 213.315 188.341 213.503 188.353 213.696C188.366 213.89 188.333 214.084 188.258 214.262L185.183 220.466C185.107 220.624 185.093 220.804 185.143 220.971C185.193 221.138 185.304 221.281 185.453 221.371L188.793 223.298C188.945 223.383 189.123 223.409 189.293 223.37C189.462 223.331 189.611 223.23 189.71 223.087L193.545 217.318C193.665 217.166 193.817 217.042 193.991 216.956C194.164 216.869 194.354 216.821 194.548 216.817C195.389 216.834 196.229 216.75 197.05 216.566C197.128 216.544 197.21 216.54 197.29 216.554C197.37 216.568 197.445 216.599 197.512 216.646C197.578 216.693 197.633 216.753 197.673 216.824C197.713 216.895 197.737 216.973 197.743 217.054L198.244 222.09C198.246 222.162 198.266 222.232 198.302 222.294C198.338 222.356 198.388 222.408 198.449 222.446L201.003 223.918L204.065 219.417C204.231 219.308 204.373 219.166 204.479 218.998C204.586 218.831 204.657 218.643 204.686 218.447L205.201 212.678C205.231 212.49 205.307 212.312 205.422 212.16C205.537 212.008 205.688 211.887 205.861 211.807C207.381 211.146 208.751 210.183 209.887 208.976C210.02 208.843 210.186 208.748 210.368 208.7C210.55 208.653 210.742 208.655 210.923 208.705L212.969 209.425C213.141 209.479 213.326 209.474 213.495 209.41C213.663 209.347 213.806 209.229 213.899 209.075L217.714 202.475C217.8 202.316 217.83 202.133 217.8 201.955C217.771 201.777 217.682 201.614 217.549 201.491L215.794 199.973C215.658 199.842 215.56 199.677 215.509 199.495C215.458 199.312 215.456 199.12 215.503 198.937C215.887 197.373 216.049 195.762 215.985 194.152C215.987 193.957 216.033 193.764 216.118 193.588C216.204 193.413 216.327 193.258 216.48 193.136L221.219 189.796C221.374 189.674 221.501 189.52 221.592 189.345C221.683 189.169 221.735 188.977 221.747 188.78L224.011 186.067L224.083 183.896ZM201.432 207.656C196.594 210.454 193.585 208.468 193.585 202.884C193.585 197.3 197.584 190.45 202.422 187.658C207.26 184.866 210.197 186.892 210.197 192.482C210.197 198.073 206.27 204.838 201.432 207.629V207.656Z" fill="#4A5C85"/>
<path d="M224.268 190.271V184.279C224.278 184.205 224.267 184.13 224.236 184.063C224.205 183.995 224.156 183.938 224.093 183.897C224.031 183.857 223.958 183.836 223.884 183.835C223.81 183.835 223.737 183.856 223.674 183.896L219.054 185.981C218.981 186.016 218.901 186.034 218.82 186.035C218.738 186.035 218.658 186.018 218.585 185.984C218.511 185.95 218.446 185.9 218.393 185.838C218.341 185.776 218.303 185.703 218.282 185.625C218.032 184.823 217.687 184.054 217.252 183.335C217.157 183.166 217.102 182.978 217.09 182.785C217.079 182.591 217.112 182.398 217.186 182.219L220.262 176.009C220.337 175.852 220.35 175.672 220.298 175.506C220.247 175.34 220.135 175.199 219.985 175.111L216.645 173.177C216.492 173.093 216.314 173.068 216.144 173.109C215.974 173.149 215.826 173.251 215.728 173.395L211.893 179.164C211.775 179.318 211.623 179.443 211.449 179.528C211.275 179.614 211.084 179.659 210.89 179.659C210.051 179.643 209.213 179.73 208.395 179.916C208.317 179.938 208.235 179.942 208.155 179.928C208.075 179.914 207.999 179.883 207.933 179.836C207.866 179.789 207.811 179.728 207.771 179.658C207.732 179.587 207.708 179.508 207.702 179.428L207.194 174.385C207.195 174.312 207.176 174.239 207.138 174.176C207.101 174.113 207.046 174.062 206.98 174.029C206.915 173.996 206.841 173.982 206.768 173.989C206.695 173.996 206.625 174.024 206.567 174.068L201.386 177.065C201.22 177.172 201.079 177.314 200.972 177.48C200.865 177.646 200.795 177.833 200.765 178.028L200.244 183.803C200.183 184.21 199.993 184.587 199.703 184.879C198.676 185.829 197.714 186.848 196.825 187.928C196.7 188.069 196.537 188.171 196.356 188.223C196.175 188.274 195.983 188.273 195.802 188.219L192.502 187.057C192.33 187.002 192.144 187.006 191.975 187.068C191.805 187.13 191.661 187.247 191.565 187.4L187.757 194C187.67 194.159 187.639 194.342 187.669 194.521C187.699 194.699 187.788 194.862 187.922 194.984L190.595 197.287C190.73 197.416 190.827 197.58 190.872 197.761C190.918 197.942 190.911 198.133 190.852 198.31C190.364 199.625 189.963 200.969 189.651 202.336C189.544 202.733 189.313 203.084 188.991 203.339L184.259 206.639C184.102 206.762 183.973 206.916 183.881 207.093C183.788 207.269 183.735 207.464 183.724 207.662V213.649C183.714 213.722 183.725 213.797 183.756 213.865C183.787 213.932 183.836 213.99 183.899 214.03C183.961 214.07 184.034 214.092 184.108 214.092C184.183 214.092 184.255 214.071 184.318 214.031L188.938 211.952C189.011 211.917 189.092 211.897 189.173 211.896C189.255 211.895 189.335 211.913 189.409 211.947C189.483 211.981 189.549 212.031 189.601 212.094C189.653 212.156 189.69 212.23 189.71 212.309C189.954 213.124 190.3 213.904 190.74 214.632C190.833 214.803 190.887 214.992 190.898 215.186C190.91 215.38 190.878 215.574 190.806 215.754L187.73 221.958C187.656 222.116 187.643 222.295 187.692 222.462C187.742 222.629 187.852 222.771 188.001 222.862L191.341 224.789C191.494 224.876 191.674 224.902 191.845 224.861C192.016 224.821 192.166 224.717 192.265 224.572L196.099 218.81C196.219 218.658 196.371 218.534 196.545 218.447C196.718 218.36 196.909 218.313 197.102 218.308C197.941 218.326 198.779 218.242 199.597 218.057C199.675 218.036 199.757 218.032 199.837 218.045C199.917 218.059 199.993 218.091 200.059 218.137C200.126 218.184 200.181 218.245 200.221 218.316C200.261 218.386 200.284 218.465 200.29 218.546L200.798 223.582C200.796 223.656 200.814 223.729 200.851 223.793C200.888 223.857 200.943 223.909 201.009 223.943C201.075 223.977 201.149 223.991 201.223 223.985C201.296 223.978 201.367 223.95 201.425 223.905L206.606 220.909C206.772 220.8 206.914 220.657 207.02 220.49C207.127 220.323 207.198 220.135 207.227 219.938L207.748 214.17C207.811 213.762 208 213.383 208.289 213.088C209.316 212.138 210.278 211.119 211.167 210.038C211.293 209.901 211.455 209.801 211.635 209.751C211.814 209.701 212.004 209.702 212.183 209.755L215.516 210.916C215.689 210.97 215.875 210.964 216.045 210.901C216.214 210.838 216.358 210.72 216.454 210.566L220.262 203.966C220.347 203.808 220.377 203.627 220.347 203.45C220.317 203.273 220.229 203.111 220.097 202.99L217.424 200.686C217.288 200.556 217.192 200.391 217.147 200.209C217.101 200.026 217.108 199.835 217.166 199.657C217.655 198.345 218.056 197.002 218.368 195.637C218.475 195.241 218.706 194.889 219.028 194.634L223.766 191.294C223.918 191.169 224.041 191.014 224.128 190.837C224.214 190.661 224.262 190.468 224.268 190.271ZM203.98 209.101C199.142 211.9 195.221 209.629 195.221 204.046C195.221 198.462 199.142 191.664 203.98 188.866C208.817 186.067 212.744 188.338 212.744 193.928C212.744 199.518 208.824 206.309 203.98 209.101Z" fill="#1A3166"/>
<path d="M198.541 230.835C198.47 230.799 198.391 230.783 198.311 230.79C198.232 230.797 198.156 230.826 198.092 230.875L195.908 232.32C195.764 232.404 195.593 232.431 195.43 232.394C195.267 232.357 195.124 232.26 195.03 232.122C194.902 231.938 194.761 231.764 194.608 231.601C194.479 231.465 194.387 231.298 194.342 231.117C194.297 230.935 194.3 230.745 194.35 230.564L197.822 228.367L195.228 226.868C195.176 226.834 195.118 226.809 195.056 226.796L193.413 226.426C193.232 226.395 193.046 226.42 192.879 226.498C192.713 226.576 192.574 226.703 192.482 226.862L190.931 229.805C190.72 230.149 190.388 230.4 190.001 230.512H189.902C189.969 230.297 190.016 230.076 190.04 229.852L187.44 228.36C187.363 228.318 187.275 228.302 187.188 228.314C187.102 228.326 187.021 228.365 186.958 228.426L184.49 230.34C184.343 230.472 184.225 230.634 184.144 230.815C184.063 230.996 184.021 231.191 184.021 231.389L184.166 233.732C184.171 234.143 184.036 234.543 183.784 234.868C183.377 235.354 182.996 235.861 182.642 236.386C182.525 236.542 182.374 236.669 182.2 236.757C182.026 236.845 181.834 236.892 181.639 236.894L180.055 236.815C179.865 236.814 179.68 236.865 179.519 236.965C179.358 237.064 179.228 237.206 179.144 237.376L177.652 240.715C177.596 240.858 177.591 241.015 177.638 241.161C177.685 241.306 177.781 241.431 177.91 241.514L179.665 242.524C179.721 242.669 179.735 242.827 179.705 242.979C179.582 243.506 179.489 244.039 179.428 244.576C179.366 244.984 179.18 245.362 178.893 245.659L176.708 247.639C176.572 247.78 176.468 247.949 176.405 248.136C176.343 248.322 176.322 248.519 176.345 248.714L176.755 251.097C176.762 251.162 176.783 251.225 176.817 251.281C176.851 251.337 176.898 251.385 176.953 251.42L179.56 252.925L179.593 249.942C179.737 249.858 179.908 249.832 180.07 249.868C180.233 249.905 180.376 250.002 180.47 250.14C180.599 250.325 180.743 250.499 180.899 250.661C181.028 250.799 181.119 250.967 181.163 251.15C181.207 251.332 181.203 251.524 181.15 251.704L180.035 254.76C179.989 254.878 179.986 255.009 180.026 255.129C180.065 255.249 180.146 255.352 180.253 255.42L182.86 256.925L183.566 254.984L184.569 252.49C184.783 252.147 185.117 251.895 185.506 251.783C185.85 251.698 186.188 251.588 186.516 251.453C186.589 251.418 186.669 251.398 186.751 251.397C186.832 251.395 186.913 251.412 186.988 251.445C187.062 251.479 187.128 251.528 187.181 251.59C187.234 251.652 187.273 251.725 187.295 251.803L187.856 253.651C187.869 253.711 187.895 253.768 187.932 253.818C187.968 253.868 188.014 253.91 188.067 253.942L190.707 255.446L190.245 252.562L191.044 251.935C191.193 251.805 191.313 251.643 191.394 251.462C191.475 251.281 191.515 251.084 191.512 250.886L191.367 248.543C191.367 248.133 191.501 247.734 191.75 247.408C192.152 246.926 192.766 246.668 193.123 246.14C193.327 245.843 193.545 245.368 193.901 245.381L195.485 245.461C195.674 245.462 195.859 245.41 196.019 245.312C196.18 245.215 196.311 245.074 196.396 244.906L197.881 241.56C197.945 241.404 197.946 241.229 197.884 241.072C197.823 240.915 197.704 240.787 197.551 240.715L196.271 240.174C196.109 240.098 195.978 239.969 195.899 239.808C195.82 239.647 195.797 239.465 195.835 239.29C195.954 238.762 196.044 238.229 196.106 237.692C196.167 237.285 196.354 236.906 196.64 236.61L198.825 234.63C199.023 234.427 199.15 234.165 199.188 233.884L201.168 232.34L198.541 230.835ZM188.641 246.246C186.001 248.345 183.414 247.771 182.932 244.966C182.45 242.161 184.635 238.59 187.308 236.491C189.981 234.392 192.126 234.551 192.588 237.356C193.05 240.161 191.294 244.141 188.621 246.246H188.641Z" fill="#4A5C85"/>
<path d="M201.749 235.046L201.34 232.663C201.337 232.588 201.314 232.515 201.271 232.452C201.229 232.39 201.17 232.341 201.1 232.311C201.031 232.281 200.954 232.272 200.88 232.284C200.805 232.296 200.736 232.329 200.68 232.38L198.495 233.818C198.351 233.901 198.182 233.926 198.021 233.889C197.859 233.852 197.718 233.757 197.624 233.62C197.493 233.437 197.35 233.262 197.195 233.099C197.067 232.962 196.976 232.796 196.931 232.614C196.886 232.433 196.888 232.243 196.937 232.063L198.053 229.047C198.084 228.971 198.097 228.89 198.092 228.808C198.088 228.727 198.065 228.648 198.026 228.576C197.987 228.505 197.932 228.443 197.866 228.395C197.8 228.348 197.724 228.315 197.644 228.301L196 227.931C195.819 227.898 195.632 227.922 195.465 228C195.298 228.078 195.16 228.206 195.07 228.367L193.525 231.31C193.308 231.651 192.975 231.902 192.588 232.017C192.241 232.104 191.902 232.216 191.572 232.353C191.498 232.388 191.418 232.406 191.337 232.406C191.256 232.407 191.176 232.389 191.102 232.355C191.029 232.321 190.963 232.272 190.911 232.21C190.859 232.148 190.821 232.075 190.799 231.997L190.238 230.149C190.225 230.075 190.192 230.006 190.143 229.95C190.094 229.893 190.03 229.852 189.958 229.829C189.887 229.807 189.81 229.804 189.738 229.822C189.665 229.84 189.598 229.878 189.545 229.931L187.077 231.865C186.93 231.997 186.812 232.159 186.731 232.34C186.65 232.52 186.609 232.716 186.608 232.914L186.76 235.257C186.759 235.667 186.624 236.065 186.377 236.392C185.967 236.877 185.584 237.384 185.229 237.91C185.11 238.064 184.958 238.189 184.784 238.277C184.611 238.364 184.42 238.413 184.226 238.419L182.642 238.339C182.453 238.338 182.267 238.39 182.106 238.489C181.945 238.588 181.815 238.731 181.731 238.9L180.246 242.22C180.183 242.377 180.183 242.553 180.246 242.71C180.308 242.867 180.429 242.994 180.583 243.065L181.863 243.613C182.024 243.689 182.154 243.817 182.233 243.976C182.312 244.135 182.335 244.317 182.299 244.491C182.181 245.018 182.09 245.551 182.028 246.088C181.964 246.494 181.777 246.872 181.493 247.17L179.309 249.15C179.171 249.291 179.066 249.46 179.002 249.646C178.938 249.832 178.917 250.03 178.939 250.226L179.348 252.608C179.351 252.684 179.374 252.757 179.417 252.82C179.459 252.882 179.518 252.931 179.588 252.961C179.657 252.991 179.734 253 179.808 252.988C179.883 252.976 179.952 252.943 180.008 252.892L182.193 251.453C182.337 251.371 182.506 251.346 182.667 251.383C182.829 251.419 182.97 251.515 183.064 251.652C183.193 251.837 183.336 252.011 183.493 252.173C183.621 252.31 183.712 252.478 183.758 252.661C183.803 252.843 183.8 253.034 183.751 253.216L182.635 256.225C182.604 256.301 182.591 256.382 182.596 256.464C182.6 256.545 182.623 256.624 182.662 256.696C182.701 256.767 182.756 256.829 182.822 256.877C182.888 256.924 182.964 256.957 183.044 256.971L184.688 257.341C184.869 257.374 185.056 257.35 185.223 257.272C185.39 257.194 185.528 257.066 185.618 256.905L187.163 253.962C187.38 253.621 187.713 253.37 188.1 253.255C188.446 253.167 188.785 253.057 189.116 252.925C189.189 252.891 189.269 252.872 189.35 252.871C189.43 252.871 189.51 252.887 189.584 252.921C189.657 252.954 189.723 253.003 189.775 253.064C189.828 253.125 189.867 253.197 189.889 253.275L190.45 255.123C190.463 255.197 190.496 255.266 190.545 255.322C190.594 255.378 190.658 255.42 190.73 255.443C190.801 255.465 190.878 255.467 190.95 255.45C191.023 255.432 191.09 255.394 191.143 255.341L193.611 253.407C193.758 253.275 193.876 253.113 193.957 252.932C194.038 252.751 194.079 252.556 194.08 252.358L193.928 250.015C193.929 249.605 194.064 249.207 194.311 248.88C194.721 248.395 195.104 247.888 195.459 247.362C195.578 247.208 195.73 247.083 195.904 246.995C196.077 246.907 196.268 246.859 196.462 246.853L198.046 246.933C198.235 246.934 198.421 246.882 198.582 246.783C198.743 246.683 198.873 246.541 198.957 246.372L200.449 243.032C200.511 242.875 200.512 242.7 200.449 242.542C200.386 242.385 200.266 242.258 200.112 242.187L198.832 241.639C198.671 241.563 198.541 241.435 198.462 241.276C198.383 241.117 198.36 240.935 198.396 240.762C198.514 240.234 198.604 239.701 198.667 239.164C198.732 238.758 198.919 238.381 199.201 238.082L201.386 236.102C201.52 235.963 201.622 235.797 201.684 235.614C201.747 235.432 201.769 235.238 201.749 235.046ZM191.222 247.738C188.549 249.843 185.988 249.269 185.506 246.464C185.024 243.659 186.826 239.679 189.466 237.58C192.106 235.482 194.7 236.049 195.182 238.854C195.664 241.659 193.888 245.639 191.222 247.738Z" fill="#1A3166"/>
<path d="M177.322 226.466L174.768 224.994C174.705 224.963 174.637 224.947 174.567 224.947C174.497 224.947 174.428 224.963 174.365 224.994L169.745 227.073C169.673 227.109 169.594 227.128 169.513 227.13C169.432 227.131 169.352 227.114 169.279 227.081C169.206 227.047 169.141 226.998 169.089 226.936C169.037 226.874 169 226.801 168.98 226.723C168.732 225.92 168.386 225.151 167.95 224.433C167.856 224.263 167.801 224.074 167.788 223.88C167.776 223.686 167.806 223.492 167.878 223.311L170.94 217.14C171.015 216.982 171.029 216.801 170.977 216.634C170.926 216.466 170.814 216.324 170.663 216.236L167.323 214.308C167.171 214.224 166.992 214.199 166.822 214.24C166.653 214.28 166.504 214.382 166.406 214.526L162.571 220.295C162.453 220.449 162.302 220.574 162.128 220.66C161.954 220.745 161.762 220.79 161.568 220.79C161.127 220.78 160.686 220.802 160.248 220.856V216.612L157.687 215.16C157.619 215.129 157.545 215.117 157.471 215.124C157.397 215.131 157.326 215.157 157.265 215.199L152.077 218.189C151.911 218.297 151.77 218.44 151.664 218.607C151.558 218.775 151.49 218.963 151.463 219.159L150.942 224.928C150.879 225.336 150.69 225.715 150.401 226.01C149.374 226.96 148.412 227.979 147.523 229.059C147.397 229.198 147.234 229.299 147.053 229.35C146.872 229.402 146.681 229.401 146.5 229.35L143.2 228.182C143.027 228.129 142.842 228.135 142.673 228.198C142.503 228.262 142.359 228.379 142.263 228.532L138.448 235.132C138.364 235.291 138.336 235.475 138.367 235.652C138.398 235.83 138.487 235.993 138.62 236.115L141.26 238.412C141.395 238.542 141.492 238.707 141.538 238.889C141.585 239.071 141.58 239.262 141.524 239.441C141.032 240.752 140.631 242.095 140.323 243.461C140.215 243.859 139.984 244.213 139.663 244.471L134.924 247.804C134.769 247.926 134.642 248.08 134.551 248.255C134.46 248.43 134.407 248.623 134.396 248.82V254.813C134.39 254.887 134.404 254.962 134.437 255.029C134.469 255.096 134.519 255.154 134.581 255.196L137.135 256.674L140.93 254.872C141.075 255.182 141.233 255.479 141.398 255.757C141.496 255.925 141.553 256.114 141.566 256.309C141.579 256.504 141.546 256.699 141.471 256.879L138.395 263.083C138.32 263.24 138.305 263.42 138.355 263.587C138.405 263.754 138.516 263.897 138.666 263.987L142.006 265.914C142.158 265.999 142.337 266.023 142.507 265.983C142.676 265.942 142.825 265.84 142.923 265.696L146.758 259.928C146.876 259.773 147.029 259.648 147.205 259.562C147.38 259.476 147.572 259.432 147.767 259.433C148.606 259.448 149.444 259.361 150.262 259.175C150.34 259.155 150.422 259.152 150.501 259.166C150.581 259.18 150.656 259.212 150.722 259.258C150.788 259.305 150.843 259.365 150.884 259.435C150.924 259.505 150.948 259.583 150.955 259.664L151.463 264.706C151.464 264.776 151.483 264.845 151.517 264.907C151.552 264.968 151.602 265.019 151.661 265.056L154.209 266.528L157.271 262.033C157.437 261.924 157.578 261.781 157.684 261.614C157.791 261.447 157.862 261.259 157.892 261.063L158.413 255.288C158.441 255.099 158.516 254.92 158.631 254.768C158.747 254.615 158.899 254.495 159.073 254.417C160.596 253.76 161.968 252.799 163.106 251.592C163.236 251.456 163.4 251.359 163.582 251.31C163.763 251.261 163.955 251.263 164.135 251.315L166.181 252.034C166.353 252.089 166.537 252.085 166.706 252.023C166.874 251.961 167.017 251.844 167.112 251.691L170.927 245.091C171.013 244.932 171.043 244.749 171.013 244.571C170.983 244.393 170.895 244.23 170.762 244.107L169.006 242.596C168.872 242.464 168.775 242.298 168.725 242.116C168.675 241.934 168.674 241.742 168.722 241.56C169.1 239.994 169.26 238.384 169.198 236.775C169.199 236.578 169.244 236.384 169.329 236.207C169.415 236.03 169.539 235.875 169.693 235.752L174.431 232.419C174.587 232.296 174.714 232.141 174.805 231.964C174.897 231.788 174.949 231.594 174.959 231.396L177.223 228.683L177.322 226.466ZM154.671 250.226C149.833 253.018 146.824 251.038 146.824 245.447C146.824 239.857 150.823 233.013 155.661 230.221C160.499 227.429 163.436 229.462 163.436 235.046C163.436 240.629 159.509 247.414 154.671 250.206V250.226Z" fill="#4A5C85"/>
<path d="M177.54 232.841V226.855C177.55 226.782 177.539 226.707 177.508 226.639C177.477 226.572 177.428 226.514 177.365 226.474C177.303 226.434 177.23 226.412 177.156 226.412C177.082 226.412 177.009 226.433 176.946 226.472L172.326 228.551C172.253 228.587 172.173 228.606 172.091 228.607C172.01 228.608 171.929 228.591 171.855 228.557C171.781 228.523 171.716 228.473 171.664 228.41C171.611 228.347 171.574 228.274 171.554 228.195C171.307 227.394 170.961 226.627 170.524 225.911C170.431 225.741 170.377 225.552 170.366 225.358C170.354 225.164 170.386 224.97 170.458 224.789L173.534 218.585C173.61 218.428 173.624 218.248 173.574 218.081C173.524 217.914 173.413 217.771 173.263 217.681L169.924 215.754C169.77 215.668 169.59 215.642 169.419 215.682C169.248 215.723 169.098 215.826 169 215.972L165.139 221.76C165.018 221.912 164.866 222.036 164.693 222.123C164.52 222.209 164.329 222.257 164.135 222.262C163.297 222.244 162.459 222.328 161.641 222.512C161.565 222.529 161.486 222.528 161.41 222.512C161.334 222.496 161.263 222.463 161.201 222.417C161.138 222.371 161.086 222.312 161.048 222.244C161.01 222.176 160.987 222.101 160.981 222.024L160.472 216.988C160.477 216.914 160.46 216.841 160.424 216.776C160.387 216.712 160.333 216.659 160.267 216.625C160.202 216.591 160.127 216.576 160.054 216.583C159.98 216.59 159.91 216.619 159.852 216.665L154.664 219.661C154.498 219.77 154.357 219.913 154.25 220.08C154.143 220.247 154.073 220.435 154.044 220.631L153.523 226.4C153.461 226.807 153.275 227.186 152.988 227.482C151.959 228.432 150.995 229.451 150.104 230.531C149.978 230.669 149.816 230.769 149.636 230.819C149.457 230.869 149.266 230.868 149.087 230.815L145.754 229.654C145.582 229.6 145.396 229.605 145.226 229.669C145.057 229.732 144.913 229.85 144.817 230.003L141.009 236.603C140.924 236.761 140.894 236.943 140.924 237.12C140.953 237.297 141.042 237.459 141.174 237.58L143.847 239.884C143.983 240.014 144.079 240.179 144.124 240.361C144.17 240.543 144.163 240.735 144.104 240.913C143.616 242.225 143.214 243.568 142.903 244.933C142.796 245.329 142.565 245.681 142.243 245.936L137.504 249.275C137.348 249.397 137.22 249.551 137.129 249.726C137.038 249.901 136.986 250.094 136.976 250.292V256.285C136.967 256.357 136.979 256.431 137.009 256.497C137.04 256.564 137.089 256.62 137.15 256.66C137.211 256.7 137.283 256.722 137.356 256.723C137.429 256.725 137.501 256.705 137.564 256.667L142.184 254.582C142.257 254.547 142.337 254.529 142.418 254.529C142.499 254.528 142.58 254.546 142.653 254.58C142.727 254.614 142.792 254.663 142.844 254.725C142.897 254.787 142.935 254.86 142.956 254.938C143.205 255.74 143.551 256.509 143.986 257.228C144.082 257.398 144.138 257.587 144.15 257.782C144.161 257.976 144.128 258.171 144.052 258.35L140.976 264.554C140.901 264.712 140.888 264.891 140.939 265.057C140.991 265.224 141.103 265.365 141.253 265.452L144.54 267.366C144.693 267.451 144.871 267.475 145.041 267.435C145.211 267.395 145.359 267.292 145.457 267.148L149.292 261.38C149.41 261.226 149.562 261.101 149.736 261.015C149.91 260.929 150.101 260.885 150.295 260.885C151.134 260.9 151.972 260.814 152.79 260.627C152.866 260.611 152.944 260.611 153.02 260.628C153.096 260.644 153.168 260.677 153.23 260.723C153.293 260.769 153.344 260.828 153.382 260.896C153.42 260.963 153.443 261.038 153.45 261.116L153.958 266.158C153.957 266.232 153.976 266.304 154.014 266.367C154.051 266.43 154.106 266.481 154.172 266.514C154.237 266.547 154.311 266.561 154.384 266.554C154.457 266.547 154.527 266.52 154.585 266.475L159.773 263.479C159.938 263.371 160.078 263.23 160.184 263.063C160.29 262.897 160.359 262.71 160.387 262.515L160.908 256.74C160.969 256.333 161.159 255.956 161.449 255.664C162.476 254.714 163.438 253.695 164.327 252.615C164.453 252.475 164.615 252.373 164.796 252.322C164.977 252.271 165.169 252.272 165.35 252.325L168.65 253.486C168.822 253.542 169.008 253.538 169.177 253.476C169.347 253.413 169.491 253.296 169.587 253.143L173.402 246.543C173.487 246.383 173.516 246.2 173.485 246.022C173.454 245.844 173.364 245.681 173.23 245.56L170.557 243.256C170.422 243.128 170.325 242.963 170.28 242.782C170.234 242.601 170.241 242.411 170.3 242.233C170.791 240.92 171.192 239.575 171.501 238.207C171.608 237.811 171.839 237.459 172.161 237.204L176.9 233.871C177.076 233.758 177.225 233.607 177.336 233.428C177.447 233.25 177.516 233.05 177.54 232.841ZM157.258 251.678C152.414 254.47 148.493 252.206 148.493 246.616C148.493 241.025 152.414 234.234 157.258 231.436C162.103 228.637 166.016 230.908 166.016 236.491C166.016 242.075 162.063 248.879 157.225 251.678H157.258Z" fill="#1A3166"/>
<path d="M237.23 120.615H258.779V101.303C258.779 98.445 257.644 95.7036 255.623 93.6824C253.601 91.6611 250.86 90.5256 248.002 90.5256C245.144 90.5274 242.405 91.6637 240.385 93.6847C238.365 95.7058 237.23 98.4461 237.23 101.303V120.615Z" fill="#263238"/>
<path d="M244.009 115.374L228.584 115.969C228.05 115.507 224.994 111.863 224.994 111.863C224.994 111.863 216.612 110.788 216.566 111.091C216.52 111.395 224.809 120.272 225.628 121.163C225.862 121.464 226.162 121.707 226.505 121.873C226.849 122.039 227.226 122.124 227.608 122.12L241.725 123.004L244.009 115.374Z" fill="#803F10"/>
<path d="M164.564 184.899L164.102 184.635C163.717 184.38 163.397 184.038 163.168 183.637C162.939 183.236 162.807 182.786 162.782 182.325V134.943C162.807 134.482 162.939 134.033 163.168 133.632C163.397 133.23 163.717 132.889 164.102 132.633L224.968 97.5017C225.377 97.2946 225.829 97.1868 226.288 97.1868C226.746 97.1868 227.198 97.2946 227.608 97.5017L228.063 97.7657C228.449 98.0186 228.769 98.3591 228.999 98.7593C229.228 99.1596 229.36 99.6084 229.383 100.069V147.457C229.36 147.918 229.229 148.367 229 148.767C228.77 149.168 228.449 149.508 228.063 149.76L167.198 184.899C166.789 185.103 166.338 185.209 165.881 185.209C165.424 185.209 164.973 185.103 164.564 184.899Z" fill="#1A3166"/>
<path opacity="0.4" d="M229.409 99.8579C229.317 99.1649 228.749 98.9141 228.089 99.2969L167.224 134.442C166.829 134.685 166.504 135.026 166.28 135.432L163.165 133.63C163.39 133.223 163.715 132.88 164.109 132.634L224.968 97.5017C225.377 97.2946 225.829 97.1868 226.288 97.1868C226.746 97.1868 227.198 97.2946 227.608 97.5017L228.063 97.7657C228.425 97.9963 228.733 98.3028 228.966 98.664C229.198 99.0252 229.35 99.4325 229.409 99.8579Z" fill="white"/>
<path opacity="0.1" d="M166.98 185.005C166.591 185.16 166.173 185.23 165.754 185.212C165.336 185.194 164.926 185.087 164.551 184.899L164.083 184.635C163.697 184.38 163.377 184.038 163.148 183.637C162.919 183.236 162.787 182.786 162.763 182.325V134.944C162.773 134.477 162.908 134.021 163.152 133.624L166.267 135.425C166.028 135.825 165.894 136.28 165.878 136.745V184.14C165.891 184.892 166.373 185.249 166.98 185.005Z" fill="black"/>
<path d="M172.042 137.049L176.623 134.409C176.953 134.218 177.223 134.369 177.223 134.759V139.92C177.212 140.129 177.151 140.333 177.046 140.515C176.94 140.696 176.793 140.85 176.616 140.963L172.049 143.543C171.712 143.735 171.442 143.543 171.442 143.187V138.118C171.448 137.905 171.506 137.696 171.61 137.51C171.715 137.323 171.863 137.165 172.042 137.049Z" fill="#FAFAFA"/>
<path d="M176.029 140.21C175.97 140.249 175.901 140.269 175.831 140.269C175.76 140.269 175.692 140.249 175.633 140.21L174.24 139.154C174.049 139.016 174.075 138.62 174.293 138.277C174.511 137.933 174.841 137.768 175.025 137.914L176.015 138.659L178.754 132.772C178.926 132.403 179.249 132.158 179.487 132.218C179.725 132.277 179.764 132.634 179.599 132.997L176.471 139.715C176.385 139.911 176.245 140.078 176.068 140.197L176.029 140.21Z" fill="#37474F"/>
<path d="M172.042 148.269L176.623 145.629C176.953 145.438 177.223 145.629 177.223 145.979V151.14C177.212 151.35 177.151 151.553 177.046 151.735C176.94 151.916 176.793 152.07 176.616 152.183L172.049 154.77C171.712 154.955 171.442 154.77 171.442 154.414V149.338C171.448 149.125 171.506 148.916 171.61 148.73C171.715 148.543 171.863 148.385 172.042 148.269Z" fill="#FAFAFA"/>
<path d="M176.029 151.424C175.97 151.462 175.901 151.483 175.831 151.483C175.76 151.483 175.692 151.462 175.633 151.424L174.24 150.374C174.049 150.229 174.075 149.833 174.293 149.49C174.511 149.147 174.841 148.982 175.025 149.127L176.015 149.873L178.754 143.986C178.926 143.616 179.249 143.372 179.487 143.438C179.725 143.504 179.764 143.847 179.599 144.217L176.471 150.935C176.385 151.129 176.245 151.294 176.068 151.411L176.029 151.424Z" fill="#37474F"/>
<path d="M172.042 159.482L176.623 156.842C176.953 156.644 177.223 156.803 177.223 157.186V162.36C177.211 162.568 177.15 162.771 177.044 162.951C176.939 163.131 176.792 163.284 176.616 163.396L172.049 165.983C171.712 166.175 171.442 166.016 171.442 165.627V160.552C171.448 160.338 171.506 160.129 171.61 159.943C171.715 159.757 171.863 159.599 172.042 159.482Z" fill="#FAFAFA"/>
<path d="M176.029 162.637C175.971 162.679 175.902 162.702 175.831 162.702C175.759 162.702 175.69 162.679 175.633 162.637L174.24 161.588C174.049 161.449 174.075 161.053 174.293 160.71C174.511 160.367 174.841 160.202 175.025 160.34L176.015 161.086L178.754 155.199C178.926 154.836 179.249 154.585 179.487 154.651C179.725 154.717 179.764 155.06 179.599 155.43L176.471 162.149C176.385 162.344 176.245 162.511 176.068 162.631L176.029 162.637Z" fill="#37474F"/>
<path d="M172.042 170.729L176.623 168.089C176.953 167.898 177.223 168.089 177.223 168.439V173.58C177.211 173.789 177.15 173.991 177.044 174.171C176.939 174.351 176.792 174.504 176.616 174.616L172.049 177.204C171.712 177.395 171.442 177.237 171.442 176.847V171.772C171.452 171.563 171.512 171.359 171.616 171.178C171.721 170.997 171.867 170.843 172.042 170.729Z" fill="#FAFAFA"/>
<path d="M176.029 173.883C175.971 173.925 175.902 173.948 175.831 173.948C175.759 173.948 175.69 173.925 175.633 173.883L174.24 172.834C174.049 172.689 174.075 172.3 174.293 171.95C174.511 171.6 174.841 171.448 175.025 171.587L176.015 172.332L178.754 166.445C178.926 166.082 179.249 165.832 179.487 165.898C179.725 165.964 179.764 166.307 179.599 166.676L176.471 173.395C176.385 173.589 176.245 173.754 176.068 173.87L176.029 173.883Z" fill="#37474F"/>
<path d="M182.886 132.224C182.886 132.845 183.427 133.036 184.094 132.653L201.498 122.602C201.827 122.413 202.107 122.15 202.317 121.833C202.527 121.517 202.66 121.157 202.706 120.78C202.706 120.16 202.165 119.962 201.498 120.351L184.094 130.396C183.764 130.586 183.484 130.85 183.274 131.168C183.064 131.485 182.931 131.847 182.886 132.224Z" fill="#455A64"/>
<path d="M182.886 136C182.886 136.627 183.427 136.818 184.094 136.435L221.318 114.972C221.648 114.782 221.929 114.518 222.138 114.201C222.348 113.883 222.481 113.521 222.526 113.144C222.526 112.523 221.984 112.332 221.318 112.715L184.094 134.178C183.765 134.367 183.484 134.63 183.275 134.946C183.065 135.262 182.932 135.623 182.886 136Z" fill="#F0F0F0"/>
<path d="M182.886 143.22C182.886 143.84 183.427 144.038 184.094 143.649L201.498 133.604C201.827 133.414 202.108 133.15 202.318 132.832C202.527 132.515 202.66 132.153 202.706 131.776C202.706 131.155 202.165 130.964 201.498 131.347L184.094 141.372C183.761 141.564 183.479 141.831 183.269 142.152C183.059 142.473 182.928 142.839 182.886 143.22Z" fill="#455A64"/>
<path d="M182.886 146.975C182.886 147.596 183.427 147.787 184.094 147.404L221.318 125.941C221.647 125.752 221.927 125.489 222.137 125.173C222.346 124.857 222.48 124.496 222.526 124.12C222.526 123.499 221.984 123.301 221.318 123.691L184.094 145.147C183.764 145.337 183.484 145.601 183.274 145.919C183.064 146.236 182.931 146.598 182.886 146.975Z" fill="#F0F0F0"/>
<path d="M182.886 154.862C182.886 155.522 183.427 155.681 184.094 155.291L201.498 145.246C201.828 145.057 202.109 144.792 202.318 144.475C202.528 144.158 202.661 143.796 202.706 143.418C202.706 142.798 202.165 142.606 201.498 142.989L184.094 153.041C183.765 153.23 183.484 153.493 183.275 153.809C183.065 154.125 182.932 154.486 182.886 154.862Z" fill="#455A64"/>
<path d="M182.886 158.644C182.886 159.265 183.427 159.456 184.094 159.073L221.318 137.61C221.647 137.421 221.927 137.158 222.137 136.842C222.346 136.526 222.48 136.165 222.526 135.789C222.526 135.168 221.984 134.97 221.318 135.36L184.094 156.823C183.765 157.012 183.484 157.275 183.275 157.591C183.065 157.907 182.932 158.268 182.886 158.644Z" fill="#F0F0F0"/>
<path d="M182.886 166.531C182.886 167.191 183.427 167.35 184.094 166.967L201.498 156.915C201.827 156.726 202.107 156.463 202.317 156.147C202.527 155.831 202.66 155.47 202.706 155.093C202.706 154.433 202.165 154.275 201.498 154.658L184.094 164.71C183.765 164.898 183.484 165.161 183.275 165.478C183.065 165.794 182.932 166.155 182.886 166.531Z" fill="#455A64"/>
<path d="M182.886 170.313C182.886 170.933 183.427 171.131 184.094 170.742L221.318 149.285C221.647 149.095 221.927 148.83 222.136 148.513C222.346 148.196 222.479 147.834 222.526 147.457C222.526 146.837 221.984 146.645 221.318 147.028L184.094 168.491C183.765 168.68 183.484 168.943 183.275 169.26C183.065 169.576 182.932 169.936 182.886 170.313Z" fill="#F0F0F0"/>
<path d="M237.032 220.163C235.8 221.483 234.443 222.681 232.98 223.74C232.748 223.889 232.554 224.09 232.412 224.327C232.221 224.73 231.917 225.72 233.732 226.36C234.657 226.68 235.639 226.797 236.613 226.703C237.586 226.61 238.529 226.308 239.375 225.819C240.874 224.875 240.946 222.922 242.359 221.806C243.408 220.981 244.721 220.77 245.566 219.694C246.16 218.942 246.002 217.939 245.698 216.704C245.362 215.351 245.203 214.328 244.761 214.434L244.834 215.054C244.273 215.945 241.382 216.209 240.095 215.596C239.155 217.171 238.132 218.695 237.032 220.163Z" fill="#263238"/>
<path d="M235.765 221.43C236.209 221.034 236.632 220.615 237.032 220.176C237.892 219.067 238.681 217.905 239.395 216.698C239.892 215.968 240.125 215.09 240.055 214.21C239.956 213.272 239.699 210.877 239.699 210.877L244.279 210.553L244.814 215.048C244.926 216.064 244.081 216.968 242.59 218.255C241.098 219.542 239.204 222.539 237.857 223.291C236.511 224.044 235.541 224.017 234.967 223.628C234.392 223.238 234.3 222.915 235.765 221.43Z" fill="#803F10"/>
<path d="M257.618 220.572V219.912C257.347 220.724 256.087 224.202 254.179 225.945C252.661 227.331 250.589 228.928 250.061 230.472C249.533 232.017 252.945 232.617 254.364 232.366C256.257 232.052 257.994 231.124 259.307 229.726C260.126 228.723 260.627 227.535 261.228 226.743C261.829 225.951 263.155 225.073 263.472 224.163C263.566 223.31 263.472 222.447 263.195 221.635C262.97 220.783 262.726 219.846 262.436 219.925V220.453C261.749 220.991 260.899 221.278 260.027 221.265C259.327 221.252 257.618 221.1 257.618 220.572Z" fill="#263238"/>
<path d="M252.78 227.132C253.255 226.717 253.73 226.301 254.159 225.911C255.479 224.69 256.509 222.611 257.096 221.219C257.427 220.415 257.597 219.554 257.598 218.684V215.939H262.416V220.44V220.559C262.178 221.562 259.974 224.222 258.713 225.958C257.875 227.119 256.271 228.598 254.364 228.855C252.457 229.112 251.625 228.505 252.78 227.132Z" fill="#803F10"/>
<path d="M261.479 145.728C265.214 153.879 261.347 182.609 261.347 182.609C261.459 183.929 262.97 186.536 263.531 192.357C264.191 199.241 262.489 216.52 262.489 216.52C261.754 216.946 260.926 217.187 260.078 217.221C259.229 217.256 258.385 217.083 257.618 216.718C257.618 216.718 253.031 190.687 252.166 183.85C251.414 177.877 249.968 163.838 249.968 163.838L245.632 183.856C246.148 185.796 246.431 187.79 246.477 189.796C246.411 193.842 244.53 211.576 244.53 211.576C244.53 211.576 242.854 212.553 239.699 212.091C239.699 212.091 236.656 188.813 236.749 183.388C236.795 180.484 238.069 149.569 238.069 149.569L261.479 145.728Z" fill="#1B3D9E"/>
<g opacity="0.15">
<path opacity="0.15" d="M249.968 163.838L248.754 157.172C248.754 157.172 243.626 156.11 241.303 153.919C242.909 155.801 245.01 157.198 247.368 157.951L248.728 163.786L246.266 180.946L249.968 163.838Z" fill="#263238"/>
</g>
<path d="M250.417 91.1857L250.668 88.3609C250.483 88.3341 250.295 88.3452 250.115 88.3935C249.935 88.4418 249.767 88.5263 249.621 88.6418C249.474 88.7572 249.353 88.9013 249.264 89.0652C249.175 89.2291 249.121 89.4094 249.104 89.5951C249.077 89.978 249.199 90.3565 249.443 90.6524C249.688 90.9484 250.036 91.1393 250.417 91.1857Z" fill="#263238"/>
<path d="M250.569 91.4694L252.853 89.793C252.75 89.6348 252.616 89.4994 252.459 89.395C252.302 89.2906 252.125 89.2195 251.94 89.1861C251.754 89.1527 251.564 89.1577 251.38 89.2008C251.197 89.2439 251.024 89.3241 250.873 89.4366C250.572 89.6728 250.374 90.0148 250.317 90.3927C250.261 90.7706 250.351 91.1557 250.569 91.4694Z" fill="#263238"/>
<path d="M252.945 115.579C252.945 115.579 258.443 116.061 259.215 116.404C255.255 120.727 261.274 122.522 261.274 122.522L257.162 137.227C259.631 140.996 261.202 143.906 262.132 147.616C259.36 152.5 243.778 153.179 238.062 149.536C238.564 142.718 239.672 137.834 239.303 135.782C237.356 127.42 237.428 125.651 237.679 123.737C238.181 120.001 241.89 116.741 244.009 115.375H245.989L252.945 115.579Z" fill="#D13F96"/>
<path d="M241.765 95.7925C240.603 96.4525 239.171 99.3961 239.309 105.521C239.428 110.709 241.111 111.989 241.949 112.359C242.788 112.728 244.424 112.504 246.008 112.24V115.355C246.008 115.355 243.817 117.896 243.956 119.315C244.094 120.734 247.117 121.077 249.163 119.685C250.644 118.534 251.921 117.141 252.938 115.566L252.899 108.405C252.899 108.405 253.829 109.316 255.413 107.93C256.733 106.788 257.156 104.868 256.139 103.838C255.876 103.592 255.558 103.412 255.212 103.313C254.865 103.215 254.5 103.2 254.147 103.27C253.793 103.34 253.462 103.494 253.179 103.718C252.897 103.941 252.672 104.229 252.523 104.557C252.087 105.501 251.097 105.514 251.09 104.439C251.044 98.9209 250.391 98.6305 249.836 96.3667C246.543 95.3041 244.2 95.7001 241.765 95.7925Z" fill="#803F10"/>
<path d="M245.104 104.214C245.1 104.301 245.113 104.387 245.142 104.469C245.171 104.551 245.216 104.626 245.274 104.69C245.332 104.755 245.403 104.807 245.481 104.844C245.56 104.881 245.645 104.903 245.731 104.907C245.818 104.911 245.905 104.899 245.986 104.869C246.068 104.84 246.143 104.795 246.208 104.737C246.272 104.679 246.324 104.608 246.361 104.53C246.399 104.452 246.42 104.367 246.424 104.28C246.429 104.193 246.416 104.107 246.387 104.025C246.357 103.943 246.312 103.868 246.254 103.804C246.196 103.739 246.126 103.687 246.047 103.65C245.969 103.613 245.884 103.591 245.797 103.587C245.711 103.583 245.624 103.595 245.542 103.625C245.46 103.654 245.385 103.699 245.321 103.757C245.256 103.815 245.204 103.886 245.167 103.964C245.13 104.042 245.109 104.127 245.104 104.214Z" fill="#263238"/>
<path d="M244.926 108.616L243.415 109.098C243.441 109.2 243.488 109.295 243.552 109.378C243.617 109.461 243.698 109.53 243.79 109.58C243.882 109.631 243.983 109.662 244.088 109.673C244.192 109.683 244.298 109.671 244.398 109.639C244.603 109.573 244.773 109.428 244.872 109.236C244.971 109.045 244.99 108.822 244.926 108.616Z" fill="#70370D"/>
<path d="M239.857 102.485L241.177 101.574C241.122 101.485 241.049 101.407 240.962 101.347C240.876 101.287 240.778 101.244 240.675 101.223C240.572 101.201 240.466 101.201 240.363 101.221C240.26 101.242 240.162 101.283 240.075 101.343C239.901 101.47 239.781 101.659 239.741 101.871C239.701 102.083 239.742 102.302 239.857 102.485Z" fill="#263238"/>
<path d="M247.005 102.696L245.685 101.779C245.74 101.69 245.813 101.614 245.899 101.554C245.985 101.494 246.082 101.453 246.185 101.432C246.287 101.411 246.393 101.411 246.495 101.432C246.598 101.453 246.695 101.495 246.781 101.554C246.956 101.681 247.077 101.869 247.118 102.081C247.16 102.293 247.119 102.513 247.005 102.696Z" fill="#263238"/>
<path d="M240.055 103.745C240.055 103.876 240.094 104.004 240.166 104.112C240.239 104.221 240.342 104.305 240.463 104.355C240.583 104.405 240.716 104.418 240.844 104.393C240.972 104.367 241.09 104.304 241.182 104.212C241.274 104.12 241.337 104.002 241.363 103.874C241.388 103.746 241.375 103.613 241.325 103.493C241.275 103.372 241.19 103.269 241.082 103.197C240.973 103.124 240.846 103.085 240.715 103.085C240.54 103.085 240.372 103.155 240.249 103.279C240.125 103.403 240.055 103.57 240.055 103.745Z" fill="#263238"/>
<path d="M243.137 103.369L243.032 107.296L240.966 106.656L243.137 103.369Z" fill="#70370D"/>
<path d="M246.015 112.24C247.685 112.022 251.117 111.038 251.651 109.679C251.436 110.366 251.015 110.97 250.444 111.408C249.421 112.292 246.015 113.282 246.015 113.282V112.24Z" fill="#70370D"/>
<path d="M245.203 91.2451C244.013 91.2451 242.834 91.48 241.734 91.9364C240.635 92.3928 239.636 93.0617 238.796 93.9047C237.955 94.7478 237.289 95.7484 236.836 96.8493C236.383 97.9501 236.151 99.1296 236.155 100.32V101.488H240.583C241.579 101.489 242.542 101.128 243.292 100.473C244.043 99.8173 244.529 98.9117 244.662 97.9243L244.827 101.488C245.644 101.482 246.43 101.173 247.032 100.621C247.635 100.068 248.011 99.3121 248.087 98.4985L248.14 97.9177C248.218 98.89 248.659 99.7973 249.376 100.459C250.093 101.121 251.032 101.488 252.008 101.488H252.404L252.853 95.0995L245.203 91.2451Z" fill="#263238"/>
<path d="M255.611 118.8C254.384 120.622 247.381 135.96 247.381 135.96C247.381 135.96 236.821 135.247 232.36 134.772C230.954 134.62 231.264 133.115 230.703 131.624C230.142 130.132 229.423 130.423 229.423 130.423V132.403C229.469 133.723 227.258 134.462 226.307 134.831C224.75 135.439 223.04 135.821 221.43 136.323C220.865 136.43 220.358 136.74 220.004 137.194C219.885 137.424 219.826 137.681 219.834 137.939C219.842 138.198 219.917 138.451 220.051 138.673C220.437 139.3 220.966 139.827 221.594 140.211C222.223 140.595 222.933 140.826 223.667 140.884C225.463 141.101 227.205 140.587 228.947 140.27C231.013 139.907 232.591 139.61 234.637 139.88C236.683 140.151 239.164 140.686 241.111 141.042C243.607 141.475 246.126 141.766 248.655 141.913C250.061 141.979 251.084 141.702 252.298 139.986C253.513 138.27 260.218 124.456 260.218 124.456C263.01 120.496 261.406 117.143 259.334 116.437C258.06 116.015 256.846 117.005 255.611 118.8Z" fill="#803F10"/>
<path d="M212.995 104.042C213.528 104.114 214.052 104.24 214.559 104.419C215.861 104.862 216.974 105.735 217.714 106.894C218.036 107.465 218.172 108.122 218.104 108.775C218.084 108.946 218.033 109.111 217.952 109.263C217.766 109.524 217.513 109.73 217.219 109.857C216.754 110.176 216.204 110.351 215.64 110.361C215.075 110.37 214.521 110.213 214.045 109.91C212.755 109.162 211.393 108.548 209.979 108.075C209.266 107.854 208.527 107.723 207.781 107.686C207.351 107.696 206.937 107.847 206.6 108.115C206.482 107.821 206.448 107.501 206.5 107.188C206.552 106.876 206.69 106.585 206.897 106.346C207.627 105.358 208.657 104.633 209.834 104.28C210.857 103.967 211.937 103.886 212.995 104.042Z" fill="#803F10"/>
<path d="M79.662 268.02H84.5394V259.677H79.662V268.02Z" fill="#803F10"/>
<path d="M96.5646 259.228L101.435 259.393L101.68 250.562L96.5646 250.397V259.228Z" fill="#803F10"/>
<path d="M79.9854 188.153C79.9854 192.806 79.3848 226.387 79.3848 226.387C79.2726 227.707 78.012 230.195 78.2892 235.343C78.6522 242.332 79.4574 263.848 79.4574 263.848C80.2991 264.261 81.221 264.485 82.1583 264.503C83.0956 264.521 84.0256 264.334 84.8826 263.954C84.8826 263.954 89.1858 235.369 90.057 228.439C90.8226 222.4 92.1162 205.999 92.1162 205.999L94.7562 225.727C94.1926 228.268 93.9905 230.877 94.1556 233.475C94.38 236.676 96.261 256.516 96.261 256.516C97.1092 256.996 98.0529 257.283 99.0248 257.358C99.9967 257.432 100.973 257.291 101.884 256.945C101.884 256.945 104.353 228.67 104.405 225.727C104.471 222.38 102.782 188.173 102.782 188.173L79.9854 188.153Z" fill="#1B3D9E"/>
<path d="M102.115 159.819C104.973 162.169 110.134 166.94 110.134 166.94L102.082 171.369L96.9672 157.634C96.9672 157.634 99 157.238 102.115 159.819Z" fill="#AC3580"/>
<path d="M81.642 160.981C81.642 160.981 79.8204 162.809 79.8204 167.231V176.781L79.6818 194.819C86.6778 198.508 95.5218 198.719 102.973 193.268C102.973 193.268 102.617 170.089 102.617 166.287C102.617 162.485 100.505 157.555 94.6968 157.219L87.1794 158.968L81.642 160.981Z" fill="#D13F96"/>
<path d="M87.021 147.741C86.5986 147.998 85.9914 147.18 85.47 146.639C84.9486 146.098 83.2458 145.319 82.3944 147.134C81.543 148.949 83.16 151.378 84.48 151.8C86.79 152.526 87.12 151.048 87.12 151.048L87.2982 159.39C87.2982 159.39 89.2782 162.69 94.4196 163.482C97.0596 163.891 97.68 161.343 94.8222 159.172V156.631C95.8542 156.795 96.9007 156.848 97.944 156.79C99.6468 156.526 100.716 155.186 101.244 153.344C102.076 150.388 102.386 147.998 101.686 142.177C100.914 135.802 93.4956 135.736 89.4894 138.257C85.4832 140.778 87.021 147.741 87.021 147.741Z" fill="#803F10"/>
<path d="M94.842 156.625C94.842 156.625 91.047 155.859 89.7204 155.153C88.94 154.746 88.3005 154.114 87.8856 153.338C88.0844 154.114 88.4392 154.842 88.9284 155.476C89.8986 156.717 94.8684 157.634 94.8684 157.634L94.842 156.625Z" fill="#5D2C08"/>
<path d="M93.9312 146.791C93.926 146.941 93.8766 147.087 93.789 147.209C93.7015 147.332 93.5798 147.426 93.4392 147.479C93.2985 147.533 93.1452 147.544 92.9983 147.511C92.8514 147.478 92.7175 147.403 92.6133 147.294C92.5091 147.185 92.4393 147.048 92.4126 146.9C92.3859 146.752 92.4034 146.599 92.4631 146.461C92.5227 146.323 92.6218 146.205 92.748 146.123C92.8741 146.041 93.0216 145.997 93.1722 145.999C93.2742 146 93.3748 146.022 93.4683 146.063C93.5618 146.104 93.6462 146.163 93.7168 146.236C93.7873 146.31 93.8426 146.397 93.8794 146.492C93.9162 146.587 93.9338 146.689 93.9312 146.791Z" fill="#263238"/>
<path d="M93.126 143.92L91.4958 144.817C91.4338 144.706 91.3943 144.583 91.3797 144.457C91.365 144.33 91.3754 144.202 91.4104 144.079C91.4453 143.957 91.5041 143.842 91.5833 143.742C91.6625 143.642 91.7606 143.559 91.872 143.497C91.9814 143.439 92.1015 143.404 92.2249 143.394C92.3483 143.384 92.4725 143.399 92.5899 143.439C92.7073 143.478 92.8154 143.541 92.9075 143.624C92.9997 143.707 93.0741 143.807 93.126 143.92Z" fill="#263238"/>
<path d="M94.4988 152.051L96.2346 152.711C96.1967 152.827 96.136 152.934 96.056 153.026C95.9759 153.118 95.8782 153.193 95.7687 153.246C95.6591 153.3 95.5399 153.331 95.4181 153.338C95.2964 153.344 95.1745 153.326 95.0598 153.285C94.8236 153.193 94.6328 153.013 94.5279 152.782C94.4231 152.551 94.4126 152.289 94.4988 152.051Z" fill="#5D2C08"/>
<path d="M100.716 144.54L99.231 143.398C99.3004 143.293 99.3911 143.204 99.4972 143.136C99.6033 143.068 99.7224 143.024 99.8469 143.005C99.9714 142.986 100.098 142.994 100.22 143.028C100.341 143.061 100.454 143.12 100.551 143.2C100.744 143.36 100.869 143.588 100.9 143.837C100.93 144.086 100.865 144.338 100.716 144.54Z" fill="#263238"/>
<path d="M100.261 146.579C100.254 146.73 100.204 146.874 100.115 146.996C100.027 147.118 99.905 147.211 99.7643 147.263C99.6236 147.316 99.4704 147.326 99.324 147.292C99.1776 147.259 99.0443 147.183 98.9408 147.074C98.8372 146.965 98.7681 146.828 98.7418 146.68C98.7156 146.532 98.7335 146.38 98.7933 146.242C98.8531 146.104 98.9522 145.987 99.0781 145.905C99.2041 145.823 99.3513 145.78 99.5016 145.781C99.7076 145.788 99.9026 145.875 100.045 146.025C100.187 146.174 100.264 146.373 100.261 146.579Z" fill="#263238"/>
<path d="M96.3864 145.854L96.6306 150.434L99.0198 149.616L96.3864 145.854Z" fill="#70370D"/>
<path d="M84.5394 265.61V264.917C85.008 265.122 86.0904 269.254 88.0242 271.016C89.562 272.422 91.6608 274.039 92.1954 275.603C92.73 277.167 89.2716 278.124 87.8328 277.873C86.1696 277.576 83.2722 276.401 82.5528 275.312C81.8334 274.223 81.4902 272.613 80.8962 271.814C80.3022 271.016 78.9162 270.125 78.6258 269.174C78.5307 268.312 78.6276 267.44 78.9096 266.62C79.134 265.755 79.3782 264.812 79.6752 264.891V265.419C80.3668 265.968 81.2277 266.26 82.1106 266.244C82.8168 266.297 84.546 266.158 84.5394 265.61Z" fill="#263238"/>
<path d="M101.488 257.895C101.746 257.895 101.95 258.258 102.505 258.865C103.342 259.705 104.312 260.401 105.376 260.924C107.197 261.842 110.748 263.248 112.352 263.967C113.362 264.422 113.309 265.637 112.273 266.323C111.236 267.01 108.735 267.511 105.725 266.838C104.089 266.468 101.957 264.957 100.604 265.043C99.2508 265.129 96.7296 265.102 95.733 264.416C94.7364 263.729 95.139 262.264 95.4228 261.004C95.7264 259.624 96.0828 257.479 96.5646 257.578V258.06C97.152 258.944 100.175 259.307 101.462 258.654L101.488 257.895Z" fill="#263238"/>
<path d="M92.1162 205.979C94.6345 205.191 96.9501 203.862 98.901 202.085C98.901 202.085 97.581 204.541 93.7002 206.818L94.5318 224.017L92.1162 205.979Z" fill="#1C056D"/>
<path d="M98.1948 224.446L97.7328 224.182C97.3479 223.927 97.0282 223.585 96.799 223.184C96.5698 222.783 96.4375 222.334 96.4128 221.872V174.491C96.4375 174.03 96.5698 173.58 96.799 173.179C97.0282 172.778 97.3479 172.436 97.7328 172.181L138.772 148.5C139.181 148.295 139.633 148.188 140.092 148.188C140.55 148.188 141.002 148.295 141.412 148.5L141.874 148.771C142.259 149.024 142.579 149.364 142.809 149.765C143.038 150.165 143.17 150.613 143.194 151.074V198.462C143.169 198.922 143.037 199.371 142.807 199.771C142.578 200.171 142.258 200.511 141.874 200.765L100.835 224.459C100.424 224.662 99.9715 224.767 99.5132 224.765C99.055 224.762 98.6036 224.653 98.1948 224.446Z" fill="#F5F5F5"/>
<path d="M120.602 167.812C127.71 163.706 133.478 167.039 133.478 175.25C133.478 183.46 127.71 193.446 120.602 197.551C113.494 201.656 107.719 198.33 107.719 190.12C107.719 181.909 113.52 171.923 120.602 167.812Z" fill="#455A64"/>
<path d="M120.509 174.28C122.813 172.96 124.687 174.022 124.687 176.689C124.612 178.142 124.194 179.558 123.468 180.819C122.742 182.081 121.728 183.153 120.509 183.949C118.199 185.269 116.332 184.206 116.332 181.54C116.407 180.086 116.825 178.671 117.551 177.409C118.277 176.147 119.29 175.075 120.509 174.28Z" fill="#1A3166"/>
<path d="M128.74 188.483C128.74 184.107 125.671 182.332 121.876 184.523L119.506 185.889C115.718 188.08 112.642 193.4 112.642 197.769V198.95C114.833 199.676 117.592 199.28 120.602 197.545C123.893 195.516 126.676 192.762 128.74 189.493V188.483Z" fill="#1A3166"/>
<path d="M143.22 150.85C143.128 150.157 142.56 149.906 141.9 150.289L100.861 173.989C100.468 174.234 100.143 174.575 99.9174 174.979L96.8022 173.178C97.0273 172.771 97.3521 172.428 97.746 172.181L138.772 148.5C139.18 148.292 139.633 148.184 140.092 148.184C140.55 148.184 141.003 148.292 141.412 148.5L141.874 148.764C142.234 148.995 142.541 149.301 142.773 149.661C143.005 150.021 143.158 150.426 143.22 150.85Z" fill="#FAFAFA"/>
<path d="M100.63 224.552C100.24 224.707 99.8209 224.778 99.4012 224.76C98.9814 224.742 98.5703 224.635 98.1948 224.446L97.7262 224.182C97.3413 223.927 97.0216 223.585 96.7924 223.184C96.5632 222.783 96.4309 222.334 96.4062 221.872V174.491C96.417 174.024 96.5514 173.569 96.7956 173.171L99.9108 174.973C99.6716 175.373 99.5376 175.827 99.5214 176.293V223.687C99.5214 224.44 100.003 224.796 100.63 224.552Z" fill="#E0E0E0"/>
<path d="M106.445 212.632C106.445 213.952 107.389 214.526 108.557 213.853L132.66 199.98C133.275 199.58 133.787 199.04 134.154 198.405C134.521 197.769 134.733 197.056 134.772 196.324C134.772 195.004 133.828 194.429 132.66 195.103L108.577 209.009C107.964 209.405 107.452 209.939 107.082 210.568C106.711 211.197 106.493 211.904 106.445 212.632Z" fill="#1A3166"/>
<path d="M73.821 189.526C71.3196 187.783 71.3526 185.196 72.1512 182.266C77.5962 162.136 79.266 162.023 81.642 161.007L83.5494 168.927L78.4608 185.427C81.8694 187.93 85.7383 189.735 89.8458 190.74C90.7016 190.884 91.5804 190.79 92.3868 190.469C93.9378 189.598 94.809 189.598 96.3996 189.149V191.75C97.8216 191.93 99.2632 191.881 100.67 191.605C103.97 190.991 105.402 191.677 103.389 195.439C102.128 197.795 99.6798 198.574 93.5418 197.518C91.3051 197.095 89.1 196.519 86.9418 195.796C82.3163 194.28 77.9061 192.172 73.821 189.526Z" fill="#803F10"/>
<path d="M81.642 160.981C81.642 160.981 83.985 162.453 84.4866 166.142C84.9882 169.831 81.4374 179.87 81.4374 179.87C81.4374 179.87 75.702 179.322 73.326 176.497C73.326 176.497 76.626 167.317 77.286 165.244C77.5712 164.212 78.1244 163.274 78.8895 162.526C79.6546 161.777 80.6042 161.244 81.642 160.981Z" fill="#A03279"/>
<path d="M143.22 162.274V165.211C143.22 165.211 141.636 167.62 139.92 168.511C138.204 169.402 138.23 172.96 140.349 173.461C142.468 173.963 145.385 171.343 145.629 169.904C145.873 168.465 145.352 162.122 143.22 162.274Z" fill="#803F10"/>
</svg>
