<svg width="330" height="330" viewBox="0 0 330 330" fill="none" xmlns="http://www.w3.org/2000/svg">
<path d="M63.4326 286.499C120.074 314.292 211.933 314.292 268.541 286.499C325.149 258.707 325.175 213.635 268.541 185.843C211.906 158.05 120.041 158.044 63.4326 185.843C6.82441 213.642 6.79141 258.72 63.4326 286.499Z" fill="#F5F5F5" fill-opacity="0.2"/>
<path d="M109.567 282.546C126.589 282.546 140.389 275.968 140.389 267.854C140.389 259.741 126.589 253.163 109.567 253.163C92.5441 253.163 78.7446 259.741 78.7446 267.854C78.7446 275.968 92.5441 282.546 109.567 282.546Z" fill="#E0E0E0" fill-opacity="0.2"/>
<path d="M301.066 258.562H279.206V258.727H301.066V258.562Z" fill="#EBEBEB"/>
<path d="M222.737 260.357H217.001V260.522H222.737V260.357Z" fill="#EBEBEB"/>
<path d="M278.546 252.437H265.881V252.602H278.546V252.437Z" fill="#EBEBEB"/>
<path d="M67.2606 253.546H38.7552V253.711H67.2606V253.546Z" fill="#EBEBEB"/>
<path d="M77.319 253.546H73.1412V253.711H77.319V253.546Z" fill="#EBEBEB"/>
<path d="M152.737 256.331H90.9084V256.496H152.737V256.331Z" fill="#EBEBEB"/>
<path d="M107.877 229.159L113.579 214.328H112.702L106.603 229.159H107.877Z" fill="#E0E0E0"/>
<path d="M110.048 229.238L117.17 218.566L116.477 218.407L109.045 229.013L110.048 229.238Z" fill="#E0E0E0"/>
<path d="M83.028 229.119L77.3256 214.289H78.2034L84.3018 229.119H83.028Z" fill="#E0E0E0"/>
<path d="M80.8566 229.198L73.7352 218.526L74.4282 218.368L81.8598 228.974L80.8566 229.198Z" fill="#E0E0E0"/>
<path d="M96.558 227.495H95.304L95.6406 210.646H96.2214L96.558 227.495Z" fill="#E0E0E0"/>
<path d="M83.259 229.119L83.5494 229.779H84.4008L84.1302 229.119H83.259Z" fill="#E0E0E0"/>
<path d="M107.666 229.119L107.369 229.779H106.524L106.795 229.119H107.666Z" fill="#E0E0E0"/>
<path d="M81.0876 229.159L81.4902 229.911H82.3218L81.6024 229.027L81.0876 229.159Z" fill="#E0E0E0"/>
<path d="M109.844 229.159L109.441 229.911H108.603L109.329 229.027L109.844 229.159Z" fill="#E0E0E0"/>
<path d="M95.4822 227.495L95.4888 228.848H96.3798V227.495H95.4822Z" fill="#E0E0E0"/>
<path d="M85.3116 233.66H81.7872V235.858H85.3116V233.66Z" fill="#E0E0E0"/>
<path d="M109.223 233.66H105.699V235.858H109.223V233.66Z" fill="#E0E0E0"/>
<path d="M110.458 234.63L102.795 235.461C97.9363 235.99 93.0347 235.99 88.176 235.461L80.52 234.63V229.878L86.7372 229.073C92.5447 228.314 98.4263 228.314 104.234 229.073L110.458 229.878V234.63Z" fill="#EBEBEB"/>
<path d="M83.5494 231C83.269 231 82.9949 231.083 82.7617 231.239C82.5285 231.394 82.3466 231.616 82.2391 231.874C82.1315 232.133 82.103 232.418 82.1572 232.693C82.2114 232.968 82.3459 233.221 82.5437 233.42C82.7415 233.619 82.9937 233.754 83.2685 233.81C83.5434 233.865 83.8285 233.838 84.0879 233.732C84.3473 233.625 84.5693 233.445 84.7261 233.212C84.8828 232.98 84.9671 232.706 84.9684 232.426C84.9684 232.049 84.8191 231.687 84.5532 231.42C84.2873 231.153 83.9264 231.002 83.5494 231ZM83.5494 233.277C83.3826 233.276 83.2199 233.225 83.0819 233.131C82.9438 233.038 82.8366 232.905 82.7736 232.751C82.7107 232.596 82.6949 232.427 82.7282 232.263C82.7616 232.1 82.8426 231.95 82.961 231.833C83.0794 231.715 83.2299 231.635 83.3936 231.603C83.5573 231.571 83.7268 231.588 83.8808 231.652C84.0348 231.716 84.1663 231.825 84.2589 231.964C84.3514 232.102 84.4008 232.265 84.4008 232.432C84.3922 232.652 84.2986 232.859 84.1396 233.011C83.9807 233.162 83.769 233.246 83.5494 233.244V233.277Z" fill="white"/>
<path d="M91.5816 232.399C91.5816 232.488 91.5553 232.575 91.506 232.649C91.4567 232.722 91.3866 232.78 91.3046 232.814C91.2226 232.848 91.1323 232.857 91.0453 232.839C90.9582 232.822 90.8782 232.779 90.8155 232.717C90.7527 232.654 90.71 232.574 90.6926 232.487C90.6753 232.4 90.6842 232.31 90.7182 232.228C90.7521 232.146 90.8097 232.075 90.8835 232.026C90.9573 231.977 91.044 231.95 91.1328 231.95C91.192 231.95 91.2508 231.961 91.3056 231.983C91.3605 232.005 91.4103 232.038 91.4521 232.08C91.494 232.122 91.527 232.172 91.5493 232.226C91.5715 232.281 91.5825 232.34 91.5816 232.399Z" fill="white"/>
<path d="M93.1788 232.399C93.1788 232.518 93.1315 232.632 93.0474 232.717C92.9632 232.801 92.849 232.848 92.73 232.848C92.611 232.848 92.4968 232.801 92.4126 232.717C92.3285 232.632 92.2812 232.518 92.2812 232.399C92.2812 232.28 92.3285 232.166 92.4126 232.082C92.4968 231.998 92.611 231.95 92.73 231.95C92.849 231.95 92.9632 231.998 93.0474 232.082C93.1315 232.166 93.1788 232.28 93.1788 232.399Z" fill="white"/>
<path d="M94.7826 232.399C94.7826 232.488 94.7563 232.575 94.707 232.649C94.6577 232.722 94.5876 232.78 94.5056 232.814C94.4236 232.848 94.3333 232.857 94.2462 232.839C94.1592 232.822 94.0792 232.779 94.0165 232.717C93.9537 232.654 93.9109 232.574 93.8936 232.487C93.8763 232.4 93.8852 232.309 93.9192 232.227C93.9531 232.145 94.0107 232.075 94.0845 232.026C94.1583 231.977 94.245 231.95 94.3338 231.95C94.4528 231.95 94.567 231.998 94.6512 232.082C94.7353 232.166 94.7826 232.28 94.7826 232.399Z" fill="white"/>
<path d="M96.36 232.399C96.36 232.488 96.3337 232.575 96.2844 232.649C96.2351 232.722 96.165 232.78 96.083 232.814C96.001 232.848 95.9107 232.857 95.8236 232.839C95.7366 232.822 95.6566 232.779 95.5939 232.717C95.5311 232.654 95.4883 232.574 95.471 232.487C95.4537 232.4 95.4626 232.309 95.4966 232.227C95.5305 232.145 95.5881 232.075 95.6619 232.026C95.7357 231.977 95.8224 231.95 95.9112 231.95C96.0302 231.95 96.1444 231.998 96.2286 232.082C96.3127 232.166 96.36 232.28 96.36 232.399Z" fill="white"/>
<path d="M97.977 232.399C97.977 232.518 97.9297 232.632 97.8456 232.717C97.7614 232.801 97.6472 232.848 97.5282 232.848C97.4092 232.848 97.295 232.801 97.2109 232.717C97.1267 232.632 97.0794 232.518 97.0794 232.399C97.0794 232.28 97.1267 232.166 97.2109 232.082C97.295 231.998 97.4092 231.95 97.5282 231.95C97.6472 231.95 97.7614 231.998 97.8456 232.082C97.9297 232.166 97.977 232.28 97.977 232.399Z" fill="white"/>
<path d="M99.5742 232.399C99.5742 232.518 99.5269 232.632 99.4428 232.717C99.3586 232.801 99.2444 232.848 99.1254 232.848C99.0064 232.848 98.8922 232.801 98.8081 232.717C98.7239 232.632 98.6766 232.518 98.6766 232.399C98.6766 232.28 98.7239 232.166 98.8081 232.082C98.8922 231.998 99.0064 231.95 99.1254 231.95C99.2444 231.95 99.3586 231.998 99.4428 232.082C99.5269 232.166 99.5742 232.28 99.5742 232.399Z" fill="white"/>
<path d="M101.178 232.399C101.178 232.488 101.152 232.575 101.102 232.649C101.053 232.722 100.983 232.78 100.901 232.814C100.819 232.848 100.729 232.857 100.642 232.839C100.555 232.822 100.475 232.779 100.412 232.717C100.349 232.654 100.306 232.574 100.289 232.487C100.272 232.4 100.281 232.309 100.315 232.227C100.349 232.145 100.406 232.075 100.48 232.026C100.554 231.977 100.64 231.95 100.729 231.95C100.848 231.95 100.962 231.998 101.047 232.082C101.131 232.166 101.178 232.28 101.178 232.399Z" fill="white"/>
<g opacity="0.5">
<path d="M271.339 267.584L264 251.282H246.774L249.414 266.548C249.448 266.745 249.438 266.948 249.385 267.142C249.332 267.335 249.238 267.515 249.108 267.668C248.979 267.822 248.817 267.945 248.635 268.03C248.453 268.114 248.255 268.158 248.054 268.158H240.524C240.329 268.158 240.143 268.235 240.006 268.373C239.868 268.51 239.791 268.696 239.791 268.891V269.702C239.791 269.897 239.868 270.083 240.006 270.22C240.143 270.358 240.329 270.435 240.524 270.435H270.805C271.015 270.435 271.216 270.351 271.365 270.203C271.513 270.054 271.597 269.853 271.597 269.643V268.798C271.598 268.38 271.511 267.966 271.339 267.584Z" fill="#F5F5F5"/>
<path d="M272.309 267.584L264.944 251.282H264L271.366 267.584C271.537 267.966 271.625 268.38 271.623 268.798V269.643C271.623 269.853 271.54 270.054 271.391 270.203C271.242 270.351 271.041 270.435 270.831 270.435H271.808C272.018 270.435 272.219 270.351 272.368 270.203C272.516 270.054 272.6 269.853 272.6 269.643V268.798C272.591 268.377 272.492 267.963 272.309 267.584Z" fill="#E0E0E0"/>
<path d="M263.974 251.282H246.774L247.447 255.176H265.736L263.974 251.282Z" fill="#E0E0E0"/>
<path d="M290.321 252.991H216.935C216.592 252.998 216.251 252.931 215.935 252.796C215.62 252.66 215.336 252.459 215.105 252.206C214.873 251.952 214.698 251.652 214.591 251.325C214.485 250.999 214.449 250.653 214.487 250.312L219.107 197.281C219.179 196.553 219.517 195.878 220.054 195.383C220.592 194.887 221.293 194.607 222.024 194.594H295.416C295.76 194.588 296.1 194.656 296.416 194.792C296.731 194.928 297.014 195.13 297.245 195.385C297.476 195.639 297.65 195.94 297.756 196.266C297.862 196.593 297.897 196.939 297.858 197.281L293.238 250.312C293.162 251.037 292.824 251.71 292.287 252.204C291.75 252.697 291.05 252.977 290.321 252.991Z" fill="#E6E6E6"/>
<path d="M214.988 244.576L214.487 250.312C214.449 250.653 214.485 250.999 214.591 251.325C214.698 251.652 214.873 251.952 215.105 252.206C215.336 252.459 215.62 252.66 215.935 252.796C216.251 252.931 216.592 252.998 216.935 252.991H290.321C291.051 252.979 291.752 252.7 292.291 252.206C292.83 251.712 293.169 251.038 293.245 250.312L293.746 244.576H214.988Z" fill="#F5F5F5"/>
<path d="M291.152 242.959H217.892C217.707 242.96 217.523 242.922 217.353 242.847C217.183 242.772 217.031 242.663 216.906 242.525C216.782 242.387 216.688 242.225 216.63 242.048C216.573 241.872 216.553 241.685 216.572 241.501L220.407 197.67C220.447 197.276 220.631 196.911 220.923 196.643C221.215 196.375 221.595 196.224 221.991 196.218H295.251C295.436 196.217 295.619 196.255 295.789 196.33C295.958 196.404 296.11 196.513 296.234 196.65C296.359 196.787 296.453 196.949 296.511 197.124C296.569 197.3 296.59 197.486 296.571 197.67L292.736 241.501C292.696 241.895 292.513 242.262 292.221 242.53C291.929 242.799 291.549 242.952 291.152 242.959Z" fill="#E0E0E0"/>
<path d="M297.053 194.594H295.436C295.779 194.588 296.12 194.656 296.436 194.792C296.751 194.928 297.034 195.13 297.265 195.385C297.496 195.639 297.67 195.94 297.776 196.266C297.882 196.593 297.916 196.939 297.878 197.281L293.258 250.312C293.182 251.038 292.843 251.712 292.304 252.206C291.765 252.7 291.065 252.979 290.334 252.991H291.958C292.687 252.979 293.388 252.699 293.925 252.205C294.463 251.712 294.801 251.038 294.875 250.312L299.495 197.281C299.533 196.939 299.499 196.593 299.393 196.266C299.287 195.94 299.113 195.639 298.882 195.385C298.651 195.13 298.368 194.928 298.053 194.792C297.737 194.656 297.396 194.588 297.053 194.594Z" fill="#E0E0E0"/>
<path d="M266.369 268.891V269.669C266.369 269.872 266.289 270.067 266.145 270.211C266.002 270.354 265.807 270.435 265.604 270.435H240.524C240.329 270.435 240.143 270.358 240.006 270.22C239.868 270.083 239.791 269.897 239.791 269.702V268.891C239.791 268.696 239.868 268.51 240.006 268.373C240.143 268.235 240.329 268.158 240.524 268.158H248.054C248.149 268.168 248.244 268.168 248.338 268.158H265.604C265.801 268.158 265.991 268.234 266.134 268.37C266.276 268.507 266.361 268.693 266.369 268.891Z" fill="#FAFAFA"/>
<path d="M271.524 268.132H248.338C248.643 268.068 248.917 267.902 249.116 267.663C249.315 267.423 249.427 267.123 249.434 266.812H270.93L271.524 268.132Z" fill="#E0E0E0"/>
<path d="M267.986 242.392H270.811L280.599 196.31L280.625 196.218H277.801L277.781 196.31L267.986 242.392Z" fill="white"/>
<path d="M254.549 242.392H265.135L274.93 196.31L274.949 196.218H264.363L264.337 196.31L254.549 242.392Z" fill="white"/>
<path d="M221.291 265.683H251.176V270.547H191.4V268.548L221.291 265.683Z" fill="#F0F0F0"/>
<path d="M221.291 270.547H251.176V265.683L221.291 268.548V270.547Z" fill="#E0E0E0"/>
</g>
<path d="M303.838 115.559H291.067C287.053 115.559 283.8 118.813 283.8 122.826V135.597C283.8 139.61 287.053 142.864 291.067 142.864H303.838C307.851 142.864 311.104 139.61 311.104 135.597V122.826C311.104 118.813 307.851 115.559 303.838 115.559Z" fill="#E0E0E0"/>
<path fill-rule="evenodd" clip-rule="evenodd" d="M292.604 133.637C292.363 133.567 292.142 133.44 291.961 133.266C291.779 133.093 291.642 132.878 291.562 132.64C291.1 131.413 290.902 126.298 291.753 125.268C292.025 124.936 292.416 124.723 292.842 124.674C295.159 124.423 302.313 124.456 303.138 124.76C303.368 124.835 303.578 124.961 303.752 125.129C303.926 125.297 304.059 125.503 304.141 125.73C304.649 126.997 304.715 131.617 304.141 132.838C303.992 133.155 303.741 133.413 303.428 133.571C302.636 134.02 293.746 134.013 292.604 133.637ZM295.073 132.475L301.244 129.261L295.02 126.02C295.02 128.172 295.073 130.317 295.099 132.475H295.073Z" fill="white"/>
<path d="M200.218 221.331H145.906C144.482 221.352 143.07 221.074 141.76 220.515C140.45 219.957 139.272 219.129 138.302 218.087C137.331 217.044 136.591 215.81 136.127 214.464C135.663 213.117 135.487 211.688 135.61 210.269L144.679 80.4475C144.921 77.4619 146.268 74.6741 148.457 72.6286C150.645 70.5831 153.517 69.4269 156.512 69.3859H210.83C212.252 69.3676 213.663 69.6475 214.97 70.2076C216.277 70.7677 217.452 71.5956 218.42 72.6378C219.387 73.68 220.126 74.9135 220.587 76.2586C221.049 77.6037 221.224 79.0307 221.1 80.4475L212.058 210.269C211.812 213.255 210.463 216.042 208.274 218.087C206.085 220.132 203.213 221.289 200.218 221.331Z" fill="#407BFF"/>
<path opacity="0.6" d="M200.218 221.331H145.906C144.482 221.352 143.07 221.074 141.76 220.515C140.45 219.957 139.272 219.129 138.302 218.087C137.331 217.044 136.591 215.81 136.127 214.464C135.663 213.117 135.487 211.688 135.61 210.269L144.679 80.4475C144.921 77.4619 146.268 74.6741 148.457 72.6286C150.645 70.5831 153.517 69.4269 156.512 69.3859H210.83C212.252 69.3676 213.663 69.6475 214.97 70.2076C216.277 70.7677 217.452 71.5956 218.42 72.6378C219.387 73.68 220.126 74.9135 220.587 76.2586C221.049 77.6037 221.224 79.0307 221.1 80.4475L212.058 210.269C211.812 213.255 210.463 216.042 208.274 218.087C206.085 220.132 203.213 221.289 200.218 221.331Z" fill="white"/>
<path d="M197.399 221.331H143.081C141.658 221.352 140.245 221.074 138.936 220.515C137.626 219.957 136.449 219.129 135.479 218.087C134.509 217.044 133.769 215.81 133.306 214.463C132.843 213.117 132.668 211.688 132.792 210.269L141.854 80.4475C142.1 77.4619 143.448 74.6749 145.638 72.6298C147.827 70.5847 150.699 69.4283 153.694 69.3859H208.006C209.43 69.3649 210.842 69.6428 212.152 70.2016C213.462 70.7604 214.64 71.5877 215.61 72.6301C216.58 73.6725 217.321 74.9069 217.785 76.2534C218.248 77.5999 218.425 79.0287 218.302 80.4475L209.22 210.269C208.977 213.253 207.632 216.039 205.447 218.084C203.261 220.129 200.392 221.287 197.399 221.331Z" fill="#407BFF"/>
<path d="M207.834 71.9399H193.71C193.252 71.9423 192.809 72.1034 192.456 72.3959C192.104 72.6883 191.863 73.094 191.776 73.5437L191.69 73.9859C191.469 75.0808 190.879 76.0669 190.02 76.7802C189.16 77.4934 188.082 77.8908 186.965 77.9063H173.58C172.511 77.923 171.477 77.5232 170.698 76.7916C169.918 76.06 169.453 75.0539 169.402 73.9859V73.5437C169.392 73.3226 169.338 73.1057 169.244 72.9054C169.15 72.7051 169.017 72.5253 168.854 72.3763C168.69 72.2273 168.499 72.1121 168.29 72.0372C168.082 71.9623 167.861 71.9293 167.64 71.9399H153.516C151.207 71.9718 148.993 72.8632 147.307 74.44C145.62 76.0168 144.582 78.1658 144.395 80.4671L135.333 210.289C135.238 211.381 135.373 212.482 135.729 213.519C136.085 214.556 136.655 215.507 137.401 216.31C138.147 217.113 139.053 217.752 140.061 218.183C141.069 218.615 142.157 218.831 143.253 218.816H197.571C199.879 218.782 202.091 217.889 203.777 216.313C205.463 214.737 206.502 212.589 206.692 210.289L215.754 80.4671C215.849 79.3748 215.714 78.2746 215.358 77.2376C215.002 76.2005 214.432 75.2496 213.686 74.4462C212.94 73.6428 212.034 73.0047 211.026 72.573C210.018 72.1413 208.93 71.9257 207.834 71.9399Z" fill="#407BFF"/>
<path opacity="0.6" d="M215.761 80.4473L215.576 83.0873L206.699 210.269C206.51 212.57 205.472 214.718 203.785 216.295C202.099 217.871 199.886 218.763 197.578 218.797H143.26C142.163 218.812 141.075 218.597 140.067 218.166C139.058 217.734 138.152 217.096 137.405 216.292C136.659 215.489 136.089 214.538 135.733 213.5C135.378 212.463 135.243 211.362 135.34 210.269L144.21 83.0807L144.395 80.4407C144.589 78.1458 145.63 76.005 147.314 74.4341C148.998 72.8632 151.206 71.9743 153.509 71.9399H167.64C168.079 71.9326 168.503 72.0969 168.822 72.3977C169.141 72.6985 169.331 73.1121 169.349 73.5503V73.9859C169.409 75.0579 169.884 76.0644 170.674 76.7915C171.464 77.5186 172.507 77.9091 173.58 77.8799H186.998C188.115 77.8644 189.193 77.467 190.053 76.7537C190.912 76.0405 191.502 75.0544 191.723 73.9595L191.809 73.5239C191.901 73.0746 192.143 72.6701 192.496 72.3773C192.849 72.0844 193.291 71.9208 193.75 71.9135H207.86C208.956 71.9019 210.041 72.1198 211.047 72.5531C212.054 72.9865 212.958 73.6256 213.702 74.4294C214.446 75.2333 215.014 76.184 215.368 77.2205C215.723 78.2569 215.856 79.3561 215.761 80.4473Z" fill="black"/>
<g opacity="0.7">
<path opacity="0.7" d="M177.289 73.3591C177.263 73.6499 177.131 73.921 176.918 74.1206C176.705 74.3203 176.426 74.4345 176.134 74.4415C175.995 74.4429 175.857 74.4153 175.73 74.3603C175.602 74.3053 175.487 74.2243 175.393 74.1224C175.298 74.0204 175.226 73.8999 175.181 73.7684C175.136 73.637 175.119 73.4975 175.131 73.3591C175.154 73.0678 175.286 72.7957 175.499 72.5966C175.713 72.3974 175.994 72.2856 176.286 72.2833C176.424 72.2819 176.561 72.3094 176.689 72.3639C176.816 72.4185 176.93 72.4989 177.025 72.6001C177.119 72.7013 177.191 72.8211 177.237 72.9517C177.282 73.0824 177.3 73.2211 177.289 73.3591Z" fill="black"/>
<path opacity="0.7" d="M185.011 72.2833H181.315C181.023 72.2856 180.742 72.3974 180.529 72.5966C180.315 72.7957 180.183 73.0678 180.16 73.3591C180.148 73.4975 180.165 73.637 180.21 73.7684C180.256 73.8999 180.328 74.0204 180.422 74.1224C180.517 74.2243 180.631 74.3053 180.759 74.3603C180.887 74.4153 181.024 74.4429 181.163 74.4415H184.859C185.152 74.4374 185.433 74.3242 185.647 74.124C185.86 73.9238 185.991 73.651 186.014 73.3591C186.025 73.2211 186.008 73.0824 185.962 72.9517C185.916 72.8211 185.844 72.7013 185.75 72.6001C185.655 72.4989 185.541 72.4185 185.414 72.3639C185.287 72.3094 185.15 72.2819 185.011 72.2833Z" fill="black"/>
</g>
<path d="M150.487 77.8669H151.628L151.708 76.7251H150.566L150.487 77.8669Z" fill="#407BFF"/>
<path d="M152.849 76.7251L152.77 77.8669H153.912L153.991 76.7251L154.07 75.5833H152.929L152.849 76.7251Z" fill="#407BFF"/>
<path d="M155.291 74.4348L155.219 75.5832L155.133 76.725L155.054 77.8668H156.196L156.275 76.725L156.361 75.5832L156.44 74.4348H155.291Z" fill="#407BFF"/>
<path d="M204.409 74.5139L204.349 75.3521H203.795L203.676 77.0285H204.237L204.178 77.8667H209.22L209.458 74.5139H204.409ZM206.468 77.0285H204.791L204.91 75.3521H206.58L206.468 77.0285Z" fill="#407BFF"/>
<path d="M115.804 257.809L114.246 268.046H119.196L122.443 257.809H115.804Z" fill="#803F10"/>
<path d="M113.612 265.762L120.212 265.61C120.264 265.604 120.317 265.608 120.366 265.624C120.416 265.639 120.462 265.664 120.502 265.699C120.541 265.733 120.573 265.775 120.594 265.822C120.616 265.87 120.628 265.921 120.628 265.973V270.831C120.596 271.099 120.469 271.348 120.269 271.529C120.069 271.711 119.81 271.815 119.539 271.821C117.236 271.821 116.14 271.735 113.23 271.821C110.14 271.811 107.054 271.608 103.99 271.214C101.633 270.811 102.267 268.574 103.33 268.574C108.141 268.402 110.827 267.399 112.57 266.158C112.869 265.923 113.232 265.784 113.612 265.762Z" fill="#263238"/>
<path d="M115.177 261.914L115.804 257.809H122.443L120.846 262.924L115.177 261.914Z" fill="#70370D"/>
<path d="M159.37 200.409C159.37 200.409 119.11 200.812 118.503 213.556C117.612 231.884 114.51 259.829 114.51 259.829L122.1 261.914C122.1 261.914 132.931 234.194 133.353 219.892C144.672 217.642 173.778 219.892 177.197 212.461C178.872 208.676 179.333 204.466 178.517 200.409H159.37Z" fill="#264BB5"/>
<path d="M108.827 256.872L103.415 264.977L106.511 269.432L113.903 261.347L108.827 256.872Z" fill="#803F10"/>
<path d="M111.118 264.389L113.903 261.347L109.289 256.205L106.306 260.634L111.118 264.389Z" fill="#70370D"/>
<path d="M103.673 264.581L107.996 267.788C108.046 267.814 108.09 267.85 108.125 267.893C108.161 267.936 108.188 267.985 108.204 268.039C108.22 268.093 108.225 268.149 108.219 268.205C108.212 268.26 108.195 268.314 108.167 268.363L105.646 272.917C105.489 273.15 105.247 273.311 104.971 273.367C104.696 273.423 104.41 273.367 104.174 273.214C102.194 271.894 101.27 271.135 98.703 269.491C97.1322 268.481 95.0928 267.293 92.9082 265.894C90.7236 264.495 92.103 262.502 93.1326 262.924C97.8054 264.752 99.3432 264.291 101.508 264.132C102.249 264.165 102.98 264.316 103.673 264.581Z" fill="#263238"/>
<path d="M106.999 258.76L112.939 263.571C112.939 263.571 126.014 249.579 139.049 225.416L138.89 225.119C150.625 224.202 182.873 221.001 186.721 216.282C190.793 211.292 190.509 205.59 188.971 200.409H169.864C169.864 200.409 139.319 204.937 129.36 214.5C121.81 221.173 106.999 258.76 106.999 258.76Z" fill="#1B3D9E"/>
<path d="M167.831 157.12L154.565 159.1C147.14 160.208 139.451 156.4 133.063 152.447L129.98 155.668C129.98 155.668 143.504 165.66 150.236 165.66C154.057 165.66 160.017 164.657 164.472 163.779C165.179 163.638 165.845 163.337 166.419 162.9C166.993 162.463 167.459 161.901 167.783 161.256C168.107 160.611 168.28 159.901 168.288 159.18C168.297 158.459 168.14 157.745 167.831 157.093V157.12Z" fill="#803F10"/>
<path d="M125.162 146.573C125.532 148.738 125.895 150.909 126.265 153.074C127.499 153.859 128.568 154.922 129.802 155.714C131.114 154.947 132.24 153.902 133.102 152.651C132.871 151.642 132.442 150.671 132.231 149.662C131.855 147.985 129.809 146.89 128.674 145.596C127.677 145.86 126.172 146.335 125.162 146.573Z" fill="#803F10"/>
<path d="M165 167.363L155.067 167.099L153.701 157.859C153.701 157.859 159.225 156.77 164.399 155.714C164.63 158.73 164.795 164.34 165 167.363Z" fill="#407BFF"/>
<path opacity="0.1" d="M165 167.363L155.067 167.099L153.701 157.859C153.701 157.859 159.225 156.77 164.399 155.714C164.63 158.73 164.795 164.34 165 167.363Z" fill="#A03279"/>
<path opacity="0.2" d="M155.08 167.099L164.34 165.389L164.386 167.376L155.08 167.099Z" fill="black"/>
<path d="M189.73 201.432C186.193 202.264 179.381 201.597 172.966 201.359C168.505 201.188 162.446 200.409 162.446 200.409C162.921 192.925 162.716 185.42 160.69 171.857C159.733 165.389 164.479 155.661 164.498 155.661C165.231 155.542 166.03 155.437 166.855 155.338C167.323 155.285 167.785 155.245 168.254 155.212C172.1 155.052 175.952 155.115 179.791 155.404C180.517 155.45 181.249 155.516 181.975 155.595C182.701 155.674 183.295 155.747 183.896 155.839L184.747 155.958C185.271 156.04 185.774 156.225 186.226 156.501C186.678 156.778 187.071 157.142 187.382 157.571C187.693 158.001 187.916 158.488 188.038 159.004C188.16 159.52 188.179 160.055 188.093 160.578C188.096 160.593 188.096 160.609 188.093 160.624C187.75 163.706 187.433 166.419 187.268 168.894C187.268 168.973 187.268 169.059 187.268 169.138C187.037 171.89 186.919 174.359 186.892 176.722C186.78 184.14 187.691 190.496 189.73 201.432Z" fill="#D13F96"/>
<path d="M187.308 168.016C187.308 168.3 187.268 168.59 187.262 168.874C187.262 168.953 187.262 169.039 187.262 169.118C187.031 171.871 186.912 174.339 186.886 176.702C185.249 173.587 183.645 169.171 183.744 166.96L187.308 168.016Z" fill="#407BFF"/>
<path opacity="0.2" d="M187.308 168.016C187.308 168.3 187.268 168.59 187.262 168.874C187.259 168.918 187.259 168.962 187.262 169.006C187.031 171.798 186.905 174.286 186.879 176.702C185.242 173.587 183.638 169.171 183.737 166.96L187.308 168.016Z" fill="black"/>
<path d="M178.86 142.415C178.068 146.111 177.23 152.896 179.784 155.417C177.738 157.397 175.058 159.654 170.65 159.74C166.241 159.826 167.066 156.783 168.254 155.225C172.405 154.301 172.352 151.265 171.679 148.342L178.86 142.415Z" fill="#803F10"/>
<path opacity="0.2" d="M175.923 144.811L171.679 148.315C171.846 148.987 171.954 149.671 172.003 150.361C172.919 150.215 173.784 149.844 174.523 149.282C175.261 148.72 175.848 147.985 176.233 147.14C176.636 146.091 176.326 144.962 175.923 144.811Z" fill="black"/>
<path d="M169.455 131.815C166.441 137.36 164.58 143.458 163.984 149.741C163.852 150.555 163.883 151.387 164.076 152.189C164.177 152.59 164.381 152.956 164.668 153.253C164.956 153.55 165.316 153.765 165.713 153.879C165.562 153.737 165.445 153.564 165.369 153.371C165.293 153.179 165.261 152.972 165.275 152.765C165.289 152.559 165.348 152.358 165.449 152.178C165.55 151.997 165.69 151.841 165.858 151.721C165.717 152.712 165.953 153.719 166.518 154.546C166.794 154.872 167.138 155.134 167.525 155.314C167.913 155.494 168.335 155.588 168.762 155.588C168.616 155.21 168.584 154.797 168.67 154.4C169.27 155.239 170.491 155.72 171.349 155.12C172.788 154.15 172.821 152.005 173.118 150.295L176.266 132.442C175.911 132.018 175.468 131.677 174.968 131.443C174.467 131.208 173.922 131.085 173.369 131.083C172.25 131.092 171.139 131.263 170.069 131.591H170.313" fill="#263238"/>
<path d="M182.16 138.316C180.609 143.108 179.942 145.985 176.847 147.847C172.174 150.645 166.749 146.863 166.848 141.689C166.934 137.069 169.488 130 174.722 129.294C175.884 129.129 177.069 129.265 178.164 129.69C179.258 130.114 180.225 130.813 180.972 131.719C181.718 132.624 182.22 133.707 182.428 134.862C182.636 136.017 182.544 137.207 182.16 138.316Z" fill="#803F10"/>
<path d="M178.906 139.57C178.557 140.526 178.133 141.453 177.639 142.342C178.649 142.031 179.705 141.899 180.761 141.953C181.129 141.992 181.499 142.012 181.87 142.012C182.242 142.008 182.6 141.87 182.879 141.623C183.041 141.449 183.153 141.234 183.203 141.002C183.253 140.769 183.239 140.528 183.163 140.303C183.012 139.855 182.711 139.473 182.312 139.22C181.888 138.925 181.383 138.77 180.866 138.778C180.352 138.818 179.078 139.088 178.906 139.57Z" fill="#263238"/>
<path d="M182.516 143.398C182.103 143.788 181.617 144.093 181.086 144.295C180.555 144.496 179.989 144.591 179.421 144.573C177.903 144.52 177.606 143.055 178.411 141.86C179.137 140.785 180.814 139.524 182.14 140.158C182.424 140.308 182.667 140.525 182.848 140.79C183.029 141.055 183.143 141.36 183.18 141.679C183.217 141.998 183.176 142.321 183.061 142.621C182.945 142.92 182.758 143.187 182.516 143.398Z" fill="#FF8B7B"/>
<path d="M171.296 137.194C170.516 138.285 169.59 139.264 168.544 140.105C168.766 140.367 169.042 140.578 169.353 140.722C169.664 140.867 170.003 140.942 170.346 140.943L171.296 137.194Z" fill="#70370D"/>
<path d="M170.683 142.897C171.137 142.956 171.599 142.923 172.04 142.8C172.481 142.676 172.893 142.464 173.25 142.177C173.274 142.156 173.288 142.127 173.29 142.095C173.292 142.064 173.281 142.033 173.26 142.009C173.239 141.985 173.209 141.971 173.178 141.969C173.146 141.967 173.115 141.978 173.092 141.999C172.69 142.312 172.22 142.526 171.72 142.624C171.22 142.721 170.704 142.699 170.214 142.56C170.184 142.555 170.152 142.561 170.126 142.577C170.099 142.592 170.079 142.617 170.069 142.646C170.061 142.677 170.065 142.711 170.081 142.739C170.097 142.767 170.123 142.788 170.155 142.798C170.326 142.837 170.504 142.87 170.683 142.897Z" fill="#263238"/>
<path d="M176.154 136.679C176.195 136.689 176.238 136.689 176.279 136.679C176.308 136.668 176.333 136.651 176.355 136.629C176.377 136.608 176.394 136.582 176.405 136.554C176.417 136.526 176.423 136.495 176.423 136.465C176.423 136.434 176.417 136.404 176.405 136.376C176.269 136.019 176.048 135.701 175.762 135.448C175.476 135.195 175.132 135.015 174.761 134.924C174.731 134.917 174.699 134.917 174.668 134.923C174.637 134.929 174.607 134.942 174.581 134.96C174.555 134.978 174.533 135.001 174.517 135.027C174.5 135.054 174.489 135.084 174.484 135.115C174.477 135.146 174.477 135.178 174.483 135.209C174.488 135.24 174.5 135.269 174.517 135.296C174.534 135.322 174.557 135.345 174.583 135.363C174.609 135.38 174.638 135.393 174.669 135.399C174.966 135.47 175.242 135.612 175.472 135.813C175.702 136.015 175.879 136.269 175.989 136.554C176.004 136.587 176.027 136.616 176.056 136.638C176.084 136.66 176.118 136.674 176.154 136.679Z" fill="#263238"/>
<path d="M168.392 134.581C168.432 134.584 168.471 134.577 168.508 134.562C168.545 134.548 168.577 134.524 168.604 134.495C168.793 134.26 169.036 134.074 169.311 133.95C169.586 133.826 169.886 133.769 170.188 133.782C170.219 133.786 170.251 133.785 170.281 133.777C170.312 133.769 170.34 133.755 170.365 133.736C170.39 133.717 170.412 133.693 170.427 133.666C170.443 133.639 170.454 133.609 170.458 133.577C170.463 133.546 170.461 133.514 170.453 133.484C170.445 133.454 170.431 133.425 170.412 133.4C170.393 133.375 170.369 133.353 170.342 133.338C170.315 133.322 170.285 133.311 170.254 133.307C169.878 133.287 169.503 133.356 169.158 133.508C168.814 133.661 168.511 133.893 168.274 134.185C168.251 134.207 168.234 134.233 168.222 134.262C168.21 134.291 168.204 134.322 168.204 134.353C168.204 134.384 168.21 134.415 168.222 134.444C168.234 134.473 168.251 134.499 168.274 134.521C168.307 134.552 168.348 134.572 168.392 134.581Z" fill="#263238"/>
<path d="M183.79 158.162C183.757 158.162 183.704 158.162 183.698 158.195C182.338 163.845 182.602 169.732 181.328 175.567C180.431 179.639 172.333 179.573 164.571 182.761L165.462 187.658C165.462 187.658 181.599 186.806 186.034 180.734C188.549 177.289 189.11 175.593 189.73 170.557C190.39 165.389 190.7 158.796 187.308 158.156L183.79 158.162Z" fill="#803F10"/>
<path d="M157.958 189.42H162.208C162.405 189.427 162.6 189.388 162.778 189.306C162.957 189.223 163.113 189.1 163.235 188.945C163.356 188.791 163.44 188.61 163.478 188.417C163.516 188.224 163.509 188.025 163.456 187.836L161.093 176.728C160.988 176.291 160.744 175.9 160.398 175.614C160.051 175.329 159.621 175.164 159.172 175.144H154.928C154.732 175.136 154.535 175.174 154.356 175.256C154.177 175.338 154.02 175.461 153.898 175.616C153.776 175.771 153.693 175.953 153.655 176.146C153.617 176.339 153.626 176.539 153.681 176.728L156.037 187.836C156.143 188.273 156.387 188.663 156.733 188.949C157.08 189.234 157.509 189.4 157.958 189.42Z" fill="#407BFF"/>
<path opacity="0.3" d="M157.958 189.42H162.208C162.405 189.427 162.6 189.388 162.778 189.306C162.957 189.223 163.113 189.1 163.235 188.945C163.356 188.791 163.44 188.61 163.478 188.417C163.516 188.224 163.509 188.025 163.456 187.836L161.093 176.728C160.988 176.291 160.744 175.9 160.398 175.614C160.051 175.329 159.621 175.164 159.172 175.144H154.928C154.732 175.136 154.535 175.174 154.356 175.256C154.177 175.338 154.02 175.461 153.898 175.616C153.776 175.771 153.693 175.953 153.655 176.146C153.617 176.339 153.626 176.539 153.681 176.728L156.037 187.836C156.143 188.273 156.387 188.663 156.733 188.949C157.08 189.234 157.509 189.4 157.958 189.42Z" fill="white"/>
<path d="M157.337 189.42H161.581C161.778 189.429 161.974 189.391 162.153 189.309C162.332 189.227 162.489 189.103 162.611 188.948C162.733 188.793 162.817 188.612 162.854 188.418C162.892 188.225 162.883 188.025 162.829 187.836L160.472 176.728C160.367 176.292 160.123 175.901 159.776 175.616C159.43 175.33 159 175.165 158.552 175.144H154.301C154.105 175.136 153.908 175.174 153.729 175.256C153.55 175.338 153.393 175.461 153.271 175.616C153.149 175.771 153.066 175.953 153.028 176.146C152.99 176.339 152.999 176.539 153.054 176.728L155.417 187.836C155.521 188.273 155.765 188.664 156.112 188.95C156.458 189.236 156.889 189.401 157.337 189.42Z" fill="#407BFF"/>
<path opacity="0.6" d="M157.337 189.42H161.581C161.778 189.429 161.974 189.391 162.153 189.309C162.332 189.227 162.489 189.103 162.611 188.948C162.733 188.793 162.817 188.612 162.854 188.418C162.892 188.225 162.883 188.025 162.829 187.836L160.472 176.728C160.367 176.292 160.123 175.901 159.776 175.616C159.43 175.33 159 175.165 158.552 175.144H154.301C154.105 175.136 153.908 175.174 153.729 175.256C153.55 175.338 153.393 175.461 153.271 175.616C153.149 175.771 153.066 175.953 153.028 176.146C152.99 176.339 152.999 176.539 153.054 176.728L155.417 187.836C155.521 188.273 155.765 188.664 156.112 188.95C156.458 189.236 156.889 189.401 157.337 189.42Z" fill="white"/>
<path d="M159.02 178.398H158.611C158.31 178.386 158.021 178.275 157.789 178.083C157.556 177.891 157.393 177.629 157.324 177.335L157.232 176.919C157.195 176.792 157.189 176.658 157.214 176.528C157.24 176.398 157.295 176.276 157.377 176.173C157.459 176.069 157.565 175.986 157.686 175.931C157.806 175.876 157.938 175.851 158.07 175.857H158.486C158.792 175.863 159.088 175.971 159.327 176.163C159.566 176.355 159.734 176.621 159.806 176.919L159.892 177.335C159.93 177.465 159.936 177.603 159.909 177.735C159.882 177.868 159.823 177.992 159.737 178.097C159.651 178.202 159.541 178.284 159.416 178.336C159.291 178.389 159.155 178.41 159.02 178.398Z" fill="#407BFF"/>
<path d="M157.997 176.491C158.026 176.613 158.094 176.722 158.19 176.802C158.287 176.881 158.407 176.928 158.532 176.933C158.587 176.935 158.641 176.924 158.691 176.901C158.741 176.878 158.785 176.843 158.819 176.8C158.853 176.757 158.876 176.707 158.887 176.653C158.898 176.599 158.896 176.544 158.882 176.491C158.852 176.37 158.784 176.262 158.687 176.184C158.591 176.105 158.471 176.06 158.347 176.055C158.293 176.053 158.239 176.064 158.19 176.087C158.141 176.11 158.098 176.143 158.064 176.186C158.03 176.228 158.006 176.277 157.995 176.33C157.983 176.383 157.984 176.438 157.997 176.491Z" fill="#263238"/>
<path d="M158.268 177.764C158.297 177.886 158.365 177.994 158.462 178.073C158.558 178.151 158.678 178.196 158.803 178.2C158.857 178.203 158.912 178.193 158.962 178.171C159.012 178.149 159.055 178.115 159.09 178.072C159.124 178.03 159.147 177.98 159.158 177.926C159.169 177.872 159.167 177.817 159.152 177.764C159.124 177.643 159.056 177.533 158.959 177.453C158.863 177.374 158.743 177.328 158.618 177.322C158.563 177.32 158.508 177.331 158.459 177.354C158.409 177.377 158.365 177.412 158.331 177.455C158.297 177.498 158.273 177.548 158.263 177.602C158.252 177.656 158.253 177.712 158.268 177.764Z" fill="#263238"/>
<path d="M157.984 186.998C158.42 187.367 163.838 187.876 165.462 187.658C165.95 186.193 165.521 184.708 165.277 183.183C164.353 182.483 163.297 181.955 162.38 181.256C160.842 180.101 158.631 180.642 156.737 180.352C156.314 180.919 156.182 182.299 156.242 183.5C156.278 184.171 156.451 184.828 156.751 185.429C157.05 186.031 157.47 186.565 157.984 186.998Z" fill="#803F10"/>
<path d="M181.111 158.354C180.998 164.795 181.348 164.914 180.345 171.277L191.235 170.445C191.235 170.445 192.39 165.825 191.149 161.865C190.232 158.941 188.602 156.328 185.084 155.615C183.44 155.298 181.144 156.367 181.111 158.354Z" fill="#A03279"/>
<path d="M186.417 143.53C186.373 143.653 186.294 143.759 186.189 143.837C186.085 143.914 185.96 143.959 185.83 143.966C185.648 143.966 185.468 143.953 185.288 143.926C184.562 143.847 183.401 143.662 183.216 143.616C182.259 141.636 182.754 139.973 181.328 138.336C181.79 138.554 182.239 138.732 182.688 138.91C183.137 139.088 183.572 139.253 184.008 139.471C184.701 140.501 185.585 141.715 186.199 142.771C186.287 142.875 186.352 142.996 186.39 143.127C186.428 143.258 186.437 143.395 186.417 143.53Z" fill="#263238"/>
<path d="M178.576 132.805C178.779 134.109 178.73 135.44 178.431 136.726C177.725 136.431 177.094 135.981 176.584 135.41C176.075 134.839 175.7 134.161 175.487 133.426C175.388 134.065 175.487 134.719 175.771 135.3C175.227 135.106 174.741 134.776 174.36 134.342C173.979 133.908 173.715 133.383 173.593 132.818C173.413 133.36 173.413 133.946 173.593 134.488C173.08 134.409 172.602 134.179 172.221 133.826C171.839 133.473 171.573 133.014 171.455 132.508C171.331 132.687 171.248 132.89 171.209 133.104C171.17 133.318 171.178 133.538 171.23 133.749C170.855 133.54 170.554 133.22 170.369 132.833C170.183 132.446 170.122 132.011 170.195 131.588C170.267 131.165 170.469 130.775 170.773 130.471C171.077 130.168 171.467 129.966 171.89 129.895C173.15 129.653 174.453 129.834 175.6 130.409C176.7 131.063 177.702 131.87 178.576 132.805Z" fill="#263238"/>
<path opacity="0.2" d="M186.78 143.741C186.731 143.864 186.649 143.97 186.543 144.048C186.437 144.126 186.311 144.173 186.179 144.184C185.992 144.184 185.804 144.171 185.618 144.144C184.879 144.058 183.691 143.873 183.5 143.821C182.523 141.841 183.038 140.098 181.573 138.409C182.048 138.633 182.503 138.811 182.965 138.996C183.427 139.181 183.869 139.346 184.338 139.57C185.051 140.626 185.955 141.867 186.582 142.963C186.666 143.073 186.726 143.198 186.76 143.332C186.794 143.466 186.801 143.605 186.78 143.741Z" fill="black"/>
<path d="M186.78 143.741C186.731 143.864 186.649 143.97 186.543 144.048C186.437 144.126 186.311 144.173 186.179 144.183C185.992 144.184 185.804 144.171 185.618 144.144C184.675 142.606 183.671 141.095 182.609 139.629C182.721 139.398 182.846 139.194 182.965 138.969C183.421 139.148 183.869 139.319 184.338 139.544C185.051 140.6 185.955 141.84 186.582 142.936C186.669 143.049 186.732 143.179 186.766 143.318C186.8 143.456 186.805 143.601 186.78 143.741Z" fill="#407BFF"/>
<path d="M184.345 139.372C184.345 139.405 183.599 141.049 183.599 141.095L183.335 140.705C181.655 138.385 179.836 136.168 177.89 134.066C175.586 132.205 172.801 130.528 169.264 132.271C169.706 131.03 173.521 121.856 181.909 128.713C183.42 129.923 184.599 131.497 185.335 133.287C185.687 134.304 185.781 135.392 185.609 136.455C185.436 137.517 185.001 138.52 184.345 139.372Z" fill="#407BFF"/>
<path d="M176.22 131.492C176.339 131.277 176.391 131.032 176.37 130.787C176.349 130.543 176.255 130.31 176.101 130.119C175.784 129.743 175.349 129.485 174.867 129.386C174.394 129.251 173.889 129.271 173.428 129.446C173.199 129.533 172.998 129.682 172.849 129.877C172.7 130.072 172.608 130.304 172.583 130.548C173.857 130.493 175.111 130.878 176.134 131.637L176.22 131.492Z" fill="#263238"/>
<path d="M174.398 137.775C174.28 138.164 174.009 138.435 173.738 138.369C173.468 138.303 173.349 137.927 173.455 137.531C173.56 137.135 173.851 136.871 174.115 136.93C174.379 136.99 174.504 137.379 174.398 137.775Z" fill="#263238"/>
<path d="M174.095 137.102C174.128 137.135 174.095 137.188 174.049 137.194C174.027 137.195 174.005 137.191 173.984 137.184C173.964 137.176 173.945 137.163 173.93 137.148C173.732 136.99 173.575 136.786 173.474 136.554C173.676 136.716 173.898 136.851 174.134 136.957L174.095 137.102Z" fill="#263238"/>
<path d="M169.93 136.62C169.811 137.009 169.534 137.28 169.27 137.207C169.006 137.135 168.881 136.772 168.98 136.369C169.079 135.967 169.376 135.709 169.64 135.782C169.904 135.854 170.029 136.224 169.93 136.62Z" fill="#263238"/>
<path d="M169.554 135.96C169.56 135.969 169.564 135.98 169.564 135.991C169.564 136.002 169.562 136.013 169.556 136.022C169.551 136.032 169.543 136.04 169.533 136.045C169.523 136.05 169.512 136.053 169.501 136.052C169.48 136.053 169.46 136.049 169.44 136.041C169.421 136.033 169.404 136.021 169.389 136.006C169.191 135.847 169.033 135.643 168.927 135.412C169.129 135.575 169.351 135.713 169.587 135.821L169.554 135.96Z" fill="#263238"/>
<path d="M179.942 140.131C179.717 139.733 179.415 139.384 179.054 139.104C178.692 138.825 178.279 138.619 177.837 138.501L175.857 137.96C175.973 137.416 175.88 136.848 175.597 136.37C175.313 135.892 174.86 135.538 174.327 135.379C173.794 135.22 173.221 135.267 172.722 135.512C172.223 135.757 171.834 136.181 171.633 136.699C171.497 136.598 171.326 136.553 171.158 136.574C171.231 136.017 171.086 135.453 170.752 135.001C170.418 134.549 169.922 134.244 169.368 134.15C168.814 134.056 168.245 134.18 167.781 134.497C167.317 134.813 166.994 135.298 166.879 135.848C166.765 136.398 166.868 136.971 167.167 137.446C167.466 137.922 167.938 138.263 168.483 138.398C169.029 138.533 169.605 138.452 170.092 138.171C170.578 137.889 170.937 137.431 171.092 136.891C171.167 136.856 171.252 136.849 171.331 136.87C171.411 136.892 171.481 136.941 171.527 137.009C171.447 137.288 171.423 137.581 171.456 137.869C171.488 138.158 171.578 138.437 171.718 138.691C171.859 138.945 172.048 139.169 172.275 139.35C172.502 139.531 172.763 139.665 173.042 139.745C173.321 139.825 173.613 139.85 173.902 139.817C174.19 139.784 174.47 139.695 174.724 139.554C174.978 139.414 175.202 139.224 175.382 138.997C175.563 138.77 175.698 138.509 175.778 138.23L177.758 138.778C178.163 138.886 178.542 139.074 178.874 139.33C179.206 139.586 179.484 139.906 179.692 140.27L180.16 141.088L180.404 140.95L179.942 140.131ZM168.458 138.098C168.09 137.997 167.761 137.788 167.511 137.499C167.261 137.21 167.103 136.853 167.055 136.474C167.008 136.095 167.074 135.711 167.245 135.369C167.416 135.028 167.684 134.744 168.016 134.555C168.347 134.366 168.728 134.279 169.109 134.306C169.49 134.332 169.854 134.471 170.157 134.705C170.459 134.938 170.685 135.256 170.807 135.618C170.929 135.98 170.941 136.37 170.841 136.739C170.705 137.235 170.378 137.657 169.931 137.912C169.484 138.167 168.955 138.234 168.458 138.098ZM173.171 139.385C172.801 139.284 172.469 139.076 172.217 138.786C171.965 138.496 171.805 138.138 171.757 137.757C171.709 137.377 171.774 136.99 171.946 136.647C172.117 136.303 172.387 136.018 172.72 135.828C173.054 135.638 173.436 135.551 173.819 135.578C174.202 135.605 174.568 135.745 174.871 135.98C175.174 136.215 175.401 136.535 175.523 136.9C175.644 137.264 175.655 137.656 175.553 138.026C175.418 138.522 175.09 138.944 174.644 139.199C174.197 139.454 173.667 139.521 173.171 139.385Z" fill="#263238"/>
<path d="M183.599 148.157C183.599 150.058 183.46 152.044 182.45 153.655C180.946 156.05 177.83 156.955 175.019 156.882C175.454 156.836 175.866 156.665 176.205 156.39C176.545 156.114 176.798 155.747 176.933 155.331C176.157 155.61 175.321 155.676 174.511 155.522C174.803 155.433 175.07 155.278 175.292 155.069C175.515 154.859 175.685 154.601 175.791 154.315C175.993 153.741 176.106 153.14 176.128 152.533C176.656 146.381 177.21 140.092 177.738 133.94C178.432 134.527 179.073 135.174 179.652 135.874C180.892 137.273 182.032 138.758 183.064 140.316C183.077 140.382 183.605 145.682 183.599 148.157Z" fill="#263238"/>
<path d="M126.575 51.2952H113.791C109.77 51.2952 106.511 54.5544 106.511 58.575V71.3592C106.511 75.3797 109.77 78.639 113.791 78.639H126.575C130.595 78.639 133.855 75.3797 133.855 71.3592V58.575C133.855 54.5544 130.595 51.2952 126.575 51.2952Z" fill="#407BFF"/>
<path d="M121.572 71.1745C121.572 71.5596 121.419 71.9289 121.147 72.2012C120.874 72.4735 120.505 72.6265 120.12 72.6265C119.735 72.6265 119.366 72.4735 119.093 72.2012C118.821 71.9289 118.668 71.5596 118.668 71.1745C118.665 71.1283 118.665 71.082 118.668 71.0359H121.559C121.567 71.0817 121.571 71.128 121.572 71.1745Z" fill="white"/>
<path d="M119.387 58.4826C119.358 58.3416 119.361 58.1959 119.396 58.0561C119.43 57.9163 119.495 57.7859 119.586 57.6744C119.677 57.5628 119.792 57.4729 119.922 57.4112C120.052 57.3494 120.194 57.3174 120.338 57.3174C120.482 57.3174 120.624 57.3494 120.754 57.4112C120.884 57.4729 120.999 57.5628 121.09 57.6744C121.181 57.7859 121.246 57.9163 121.28 58.0561C121.314 58.1959 121.317 58.3416 121.288 58.4826V58.5948H119.387V58.4826Z" fill="white"/>
<path d="M126.139 70.5209H114.259L115.097 68.3825H115.144V63.4721C115.131 62.4349 115.445 61.4202 116.041 60.571C116.637 59.7219 117.484 59.0814 118.463 58.7399C119.624 58.4287 120.847 58.4402 122.001 58.7729C122.656 59.034 123.252 59.4221 123.757 59.9147C124.228 60.3851 124.601 60.9437 124.856 61.5587C125.111 62.1736 125.242 62.8328 125.242 63.4985V68.4089H125.301L126.139 70.5209Z" fill="white"/>
<path d="M83.523 80.7708H70.7388C66.7183 80.7708 63.459 84.03 63.459 88.0506V100.835C63.459 104.855 66.7183 108.115 70.7388 108.115H83.523C87.5435 108.115 90.8028 104.855 90.8028 100.835V88.0506C90.8028 84.03 87.5435 80.7708 83.523 80.7708Z" fill="#407BFF"/>
<path opacity="0.6" d="M83.523 80.7708H70.7388C66.7183 80.7708 63.459 84.03 63.459 88.0506V100.835C63.459 104.855 66.7183 108.115 70.7388 108.115H83.523C87.5435 108.115 90.8028 104.855 90.8028 100.835V88.0506C90.8028 84.03 87.5435 80.7708 83.523 80.7708Z" fill="white"/>
<path fill-rule="evenodd" clip-rule="evenodd" d="M74.7384 98.1157C74.0633 98.0989 73.4095 97.8754 72.8654 97.4753C72.3213 97.0752 71.9131 96.5178 71.6958 95.8783C72.1578 95.9651 72.6332 95.9493 73.0884 95.8321H73.1346C72.3925 95.6882 71.7234 95.291 71.2418 94.7083C70.7602 94.1256 70.4961 93.3936 70.4946 92.6377C70.9354 92.8929 71.4312 93.0378 71.94 93.0601C71.2648 92.5914 70.793 91.8836 70.62 91.0801C70.4169 90.2898 70.5305 89.4514 70.9368 88.7437C71.761 89.7385 72.7823 90.5518 73.9364 91.1322C75.0905 91.7127 76.3524 92.0478 77.6424 92.1163C77.6328 91.996 77.613 91.8768 77.583 91.7599C77.4741 91.0257 77.6309 90.2767 78.0252 89.6479C78.2605 89.2656 78.577 88.9398 78.9523 88.6935C79.3275 88.4471 79.7523 88.2863 80.1966 88.2223C80.7039 88.1314 81.2258 88.1656 81.7169 88.322C82.208 88.4784 82.6535 88.7523 83.0148 89.1199C83.0358 89.1456 83.064 89.1643 83.0958 89.1738C83.1276 89.1832 83.1614 89.1828 83.193 89.1727C83.8502 89.0346 84.4808 88.7917 85.0608 88.4533H85.1004C84.8729 89.1412 84.4223 89.7335 83.82 90.1363C84.4403 90.0688 85.0462 89.904 85.6152 89.6479L85.2522 90.1363C84.9169 90.5586 84.5262 90.9338 84.0906 91.2517C84.0722 91.2601 84.057 91.2744 84.0475 91.2923C84.0379 91.3102 84.0345 91.3307 84.0378 91.3507C84.0511 91.8295 84.0246 92.3085 83.9586 92.7829C83.8498 93.774 83.5823 94.7411 83.1666 95.6473C82.743 96.5875 82.1627 97.449 81.4506 98.1949C80.2615 99.4489 78.7194 100.312 77.0286 100.67C76.4356 100.795 75.8326 100.868 75.2268 100.888C73.4007 100.941 71.5991 100.457 70.0458 99.4951L69.9666 99.4489C71.063 99.5737 72.1732 99.4193 73.194 99.0001C73.7484 98.7806 74.2685 98.4828 74.7384 98.1157Z" fill="#407BFF"/>
<path d="M96.3072 169.91H83.523C79.5025 169.91 76.2432 173.17 76.2432 177.19V189.974C76.2432 193.995 79.5025 197.254 83.523 197.254H96.3072C100.328 197.254 103.587 193.995 103.587 189.974V177.19C103.587 173.17 100.328 169.91 96.3072 169.91Z" fill="#407BFF"/>
<path d="M95.7 179.216V191.354C95.7 191.429 95.6701 191.501 95.6169 191.554C95.5636 191.608 95.4915 191.637 95.4162 191.637H84.1962C84.1592 191.638 84.1226 191.63 84.0886 191.616C84.0545 191.601 84.0236 191.58 83.9978 191.554C83.972 191.528 83.9517 191.496 83.9382 191.462C83.9246 191.427 83.9181 191.391 83.919 191.354V175.567C83.919 175.491 83.9489 175.419 84.0021 175.366C84.0553 175.313 84.1275 175.283 84.2028 175.283H91.7664L95.7 179.216Z" fill="#407BFF"/>
<g opacity="0.7">
<path opacity="0.7" d="M95.7 179.216V191.354C95.7 191.429 95.6701 191.501 95.6169 191.554C95.5636 191.608 95.4915 191.637 95.4162 191.637H84.1962C84.1592 191.638 84.1226 191.63 84.0886 191.616C84.0545 191.601 84.0236 191.58 83.9978 191.554C83.972 191.528 83.9517 191.496 83.9382 191.462C83.9246 191.427 83.9181 191.391 83.919 191.354V175.567C83.919 175.491 83.9489 175.419 84.0021 175.366C84.0553 175.313 84.1275 175.283 84.2028 175.283H91.7664L95.7 179.216Z" fill="white"/>
</g>
<path d="M91.74 175.283V178.946C91.74 178.983 91.7474 179.019 91.7617 179.053C91.7761 179.087 91.7971 179.118 91.8235 179.144C91.8499 179.17 91.8813 179.19 91.9157 179.204C91.9501 179.217 91.9868 179.224 92.0238 179.223H95.7L91.74 175.283Z" fill="#407BFF"/>
<path d="M91.74 175.283V178.946C91.74 178.983 91.7474 179.019 91.7617 179.053C91.7761 179.087 91.7971 179.118 91.8235 179.144C91.8499 179.17 91.8813 179.19 91.9157 179.204C91.9501 179.217 91.9868 179.224 92.0238 179.223H95.7L91.74 175.283Z" fill="white"/>
<path d="M94.3414 181.38L85.2929 181.424C85.1507 181.425 85.0361 181.541 85.0368 181.683L85.0372 181.762C85.0378 181.904 85.1537 182.019 85.2958 182.018L94.3443 181.974C94.4865 181.973 94.6011 181.858 94.6004 181.715L94.6001 181.636C94.5994 181.494 94.4836 181.379 94.3414 181.38Z" fill="#407BFF"/>
<path d="M94.3467 183.815L85.2982 183.86C85.156 183.86 85.0414 183.976 85.0421 184.118L85.0425 184.197C85.0431 184.34 85.159 184.454 85.3011 184.454L94.3496 184.409C94.4918 184.409 94.6065 184.293 94.6058 184.151L94.6054 184.072C94.6047 183.929 94.4889 183.815 94.3467 183.815Z" fill="#407BFF"/>
<path d="M94.352 186.257L85.3035 186.301C85.1614 186.302 85.0467 186.418 85.0474 186.56L85.0478 186.639C85.0485 186.781 85.1643 186.896 85.3064 186.895L94.3549 186.851C94.4971 186.851 94.6118 186.735 94.6111 186.593L94.6107 186.513C94.61 186.371 94.4942 186.257 94.352 186.257Z" fill="#407BFF"/>
<path d="M89.6742 188.694L85.2984 188.74C85.2643 188.739 85.2305 188.745 85.1988 188.758C85.1672 188.771 85.1384 188.79 85.1144 188.814C85.0903 188.838 85.0713 188.866 85.0587 188.898C85.0461 188.93 85.0401 188.964 85.041 188.998V189.077C85.0427 189.145 85.0703 189.209 85.1182 189.257C85.1662 189.305 85.2307 189.333 85.2984 189.334L89.6742 189.288C89.7082 189.289 89.7421 189.283 89.7738 189.27C89.8054 189.258 89.8341 189.239 89.8582 189.215C89.8823 189.191 89.9012 189.162 89.9139 189.13C89.9265 189.099 89.9325 189.065 89.9316 189.031V188.952C89.9299 188.884 89.9023 188.819 89.8544 188.771C89.8064 188.723 89.7419 188.696 89.6742 188.694Z" fill="#407BFF"/>
<path d="M122.173 120.708H109.388C105.368 120.708 102.109 123.967 102.109 127.987V140.772C102.109 144.792 105.368 148.051 109.388 148.051H122.173C126.193 148.051 129.452 144.792 129.452 140.772V127.987C129.452 123.967 126.193 120.708 122.173 120.708Z" fill="#407BFF"/>
<path opacity="0.6" d="M122.173 120.708H109.388C105.368 120.708 102.109 123.967 102.109 127.987V140.772C102.109 144.792 105.368 148.051 109.388 148.051H122.173C126.193 148.051 129.452 144.792 129.452 140.772V127.987C129.452 123.967 126.193 120.708 122.173 120.708Z" fill="white"/>
<path d="M120.641 124.562H111.131C110.289 124.562 109.606 125.244 109.606 126.086V142.223C109.606 143.065 110.289 143.748 111.131 143.748H120.641C121.483 143.748 122.166 143.065 122.166 142.223V126.086C122.166 125.244 121.483 124.562 120.641 124.562Z" fill="white"/>
<path d="M120.12 140.283L118.912 140.501L119.216 139.313L125.426 133.498C125.488 133.436 125.561 133.387 125.641 133.354C125.722 133.32 125.808 133.303 125.895 133.303C125.982 133.303 126.068 133.32 126.149 133.354C126.229 133.387 126.302 133.436 126.364 133.498C126.423 133.562 126.47 133.636 126.501 133.718C126.531 133.8 126.546 133.887 126.543 133.974C126.539 134.061 126.519 134.147 126.483 134.226C126.446 134.305 126.395 134.376 126.331 134.435L120.12 140.283Z" fill="#407BFF"/>
<path d="M114.84 141.709C114.728 141.711 114.617 141.692 114.513 141.651C114.408 141.61 114.313 141.549 114.233 141.471C114.073 141.274 113.985 141.028 113.985 140.775C113.985 140.521 114.073 140.275 114.233 140.078C114.566 139.533 115.017 139.068 115.553 138.719C115.824 138.533 116.129 138.4 116.45 138.329C116.401 138.217 116.324 138.12 116.226 138.046C115.744 137.669 114.965 137.986 114.451 138.376C113.547 139.058 112.86 139.986 112.471 141.049C112.441 141.131 112.38 141.198 112.3 141.235C112.221 141.272 112.13 141.276 112.048 141.247C111.967 141.214 111.9 141.152 111.864 141.072C111.827 140.992 111.822 140.901 111.85 140.818C112.296 139.634 113.07 138.601 114.081 137.841C114.814 137.3 115.876 136.924 116.655 137.518C116.913 137.721 117.096 138.004 117.176 138.323C117.462 138.377 117.721 138.526 117.911 138.747C118.101 138.968 118.209 139.247 118.219 139.537C118.194 139.798 118.113 140.05 117.982 140.276C117.982 140.329 117.922 140.389 117.896 140.448C117.855 140.515 117.83 140.59 117.824 140.668C117.817 140.746 117.828 140.824 117.856 140.897C117.916 140.969 118.087 140.963 118.206 140.897C118.393 140.761 118.545 140.582 118.648 140.375C118.695 140.301 118.769 140.248 118.854 140.228C118.939 140.209 119.029 140.224 119.104 140.27C119.178 140.316 119.231 140.39 119.251 140.476C119.271 140.561 119.256 140.651 119.209 140.725C119.05 141.02 118.824 141.273 118.549 141.464C118.365 141.584 118.145 141.635 117.927 141.61C117.709 141.585 117.507 141.484 117.355 141.326C117.236 141.161 117.168 140.966 117.157 140.764C117.146 140.561 117.194 140.36 117.295 140.184L117.394 139.986C117.478 139.844 117.534 139.687 117.559 139.524C117.553 139.422 117.518 139.324 117.46 139.241C117.402 139.157 117.322 139.091 117.229 139.049C117.209 139.236 117.165 139.421 117.097 139.597C116.816 140.2 116.406 140.734 115.896 141.161C115.709 141.362 115.485 141.526 115.236 141.643C115.109 141.687 114.975 141.709 114.84 141.709ZM116.576 138.983C116.341 139.041 116.117 139.139 115.916 139.273C115.46 139.566 115.076 139.959 114.794 140.422C114.662 140.633 114.583 140.903 114.682 141.002C114.726 141.027 114.776 141.039 114.827 141.039C114.878 141.039 114.927 141.027 114.972 141.002C115.14 140.915 115.292 140.799 115.421 140.659C115.858 140.298 116.214 139.848 116.464 139.339C116.513 139.226 116.546 139.106 116.563 138.983H116.576Z" fill="#407BFF"/>
<path d="M120.416 126.975L111.367 127.019C111.225 127.02 111.11 127.136 111.111 127.278L111.112 127.357C111.112 127.499 111.228 127.614 111.37 127.613L120.419 127.569C120.561 127.568 120.676 127.452 120.675 127.31L120.674 127.231C120.674 127.089 120.558 126.974 120.416 126.975Z" fill="#407BFF"/>
<path d="M120.421 129.41L111.373 129.454C111.23 129.455 111.116 129.571 111.116 129.713L111.117 129.792C111.118 129.934 111.233 130.049 111.376 130.048L120.424 130.004C120.566 130.003 120.681 129.888 120.68 129.745L120.68 129.666C120.679 129.524 120.563 129.409 120.421 129.41Z" fill="#407BFF"/>
<path d="M120.426 131.846L111.378 131.89C111.236 131.891 111.121 132.006 111.122 132.149L111.122 132.228C111.123 132.37 111.239 132.485 111.381 132.484L120.429 132.44C120.571 132.439 120.686 132.323 120.685 132.181L120.685 132.102C120.684 131.96 120.569 131.845 120.426 131.846Z" fill="#407BFF"/>
<path d="M115.751 134.29L111.375 134.336C111.341 134.336 111.307 134.342 111.275 134.354C111.244 134.367 111.215 134.386 111.191 134.41C111.167 134.434 111.148 134.463 111.135 134.494C111.123 134.526 111.117 134.56 111.118 134.594V134.673C111.119 134.741 111.147 134.805 111.195 134.853C111.243 134.901 111.307 134.929 111.375 134.93L115.751 134.884C115.785 134.885 115.819 134.879 115.85 134.867C115.882 134.854 115.911 134.835 115.935 134.811C115.959 134.787 115.978 134.758 115.99 134.726C116.003 134.695 116.009 134.661 116.008 134.627V134.548C116.008 134.479 115.981 134.414 115.933 134.366C115.885 134.317 115.819 134.29 115.751 134.29Z" fill="#407BFF"/>
<path d="M219.866 38.4648H207.082C203.061 38.4648 199.802 41.7241 199.802 45.7446V58.5288C199.802 62.5494 203.061 65.8086 207.082 65.8086H219.866C223.886 65.8086 227.146 62.5494 227.146 58.5288V45.7446C227.146 41.7241 223.886 38.4648 219.866 38.4648Z" fill="#407BFF"/>
<path opacity="0.6" d="M219.866 38.4648H207.082C203.061 38.4648 199.802 41.7241 199.802 45.7446V58.5288C199.802 62.5494 203.061 65.8086 207.082 65.8086H219.866C223.886 65.8086 227.146 62.5494 227.146 58.5288V45.7446C227.146 41.7241 223.886 38.4648 219.866 38.4648Z" fill="white"/>
<path d="M213.576 42.603C212.752 42.603 211.936 42.7654 211.174 43.0808C210.413 43.3962 209.721 43.8586 209.138 44.4414C208.555 45.0242 208.093 45.7162 207.777 46.4777C207.462 47.2392 207.299 48.0554 207.299 48.8796C207.299 52.3512 213.576 61.182 213.576 61.182C213.576 61.182 219.859 52.3512 219.859 48.8796C219.859 48.0548 219.697 47.2381 219.381 46.4762C219.065 45.7142 218.602 45.022 218.018 44.4391C217.435 43.8561 216.742 43.394 215.98 43.0789C215.218 42.7639 214.401 42.6022 213.576 42.603ZM213.635 51.8958C213.048 51.8958 212.474 51.7216 211.985 51.3953C211.497 51.0689 211.116 50.6051 210.891 50.0624C210.667 49.5197 210.608 48.9225 210.722 48.3464C210.837 47.7703 211.12 47.2411 211.535 46.8257C211.951 46.4104 212.48 46.1275 213.056 46.0129C213.632 45.8983 214.229 45.9571 214.772 46.1819C215.315 46.4067 215.779 46.7874 216.105 47.2758C216.431 47.7642 216.605 48.3384 216.605 48.9258C216.606 49.3161 216.53 49.7027 216.381 50.0634C216.232 50.4242 216.013 50.7519 215.737 51.0279C215.461 51.3038 215.134 51.5226 214.773 51.6715C214.412 51.8205 214.026 51.8967 213.635 51.8958Z" fill="#407BFF"/>
<path d="M274.831 47.4143H262.06C258.046 47.4143 254.793 50.6677 254.793 54.6809V67.4519C254.793 71.4651 258.046 74.7185 262.06 74.7185H274.831C278.844 74.7185 282.097 71.4651 282.097 67.4519V54.6809C282.097 50.6677 278.844 47.4143 274.831 47.4143Z" fill="#407BFF"/>
<path d="M274.831 47.4143H262.06C258.046 47.4143 254.793 50.6677 254.793 54.6809V67.4519C254.793 71.4651 258.046 74.7185 262.06 74.7185H274.831C278.844 74.7185 282.097 71.4651 282.097 67.4519V54.6809C282.097 50.6677 278.844 47.4143 274.831 47.4143Z" fill="#407BFF"/>
<path d="M271.504 56.7599V60.6011C271.496 61.3603 271.188 62.0855 270.648 62.6193C270.108 63.1531 269.379 63.4524 268.62 63.4523H264.95L260.759 67.6433V63.4523C260.381 63.4523 260.006 63.3777 259.656 63.2328C259.306 63.0879 258.988 62.8754 258.72 62.6076C258.452 62.3398 258.24 62.0218 258.095 61.6719C257.95 61.322 257.875 60.9469 257.875 60.5681V56.7599C257.874 56.3809 257.948 56.0055 258.093 55.6552C258.238 55.3049 258.45 54.9866 258.718 54.7186C258.986 54.4506 259.304 54.2382 259.655 54.0935C260.005 53.9489 260.38 53.8749 260.759 53.8757H268.62C268.999 53.8757 269.374 53.9503 269.724 54.0953C270.074 54.2402 270.392 54.4527 270.659 54.7205C270.927 54.9883 271.14 55.3063 271.285 55.6562C271.43 56.0061 271.504 56.3812 271.504 56.7599Z" fill="white"/>
<path d="M260.429 68.4419V63.7625C259.639 63.6809 258.906 63.3092 258.374 62.7193C257.841 62.1293 257.546 61.3629 257.545 60.5681V56.7203C257.547 55.869 257.886 55.0531 258.489 54.4518C259.092 53.8504 259.908 53.5127 260.759 53.5127H268.62C269.471 53.5127 270.288 53.8504 270.89 54.4518C271.493 55.0531 271.832 55.869 271.834 56.7203V60.5681C271.832 61.42 271.493 62.2366 270.891 62.839C270.288 63.4414 269.472 63.7806 268.62 63.7823H265.089L260.429 68.4419ZM260.759 54.1727C260.424 54.1718 260.092 54.2371 259.782 54.3647C259.473 54.4924 259.191 54.6799 258.954 54.9165C258.716 55.1532 258.528 55.4343 258.4 55.7438C258.271 56.0534 258.205 56.3852 258.205 56.7203V60.5681C258.205 61.2455 258.474 61.8952 258.953 62.3742C259.432 62.8532 260.082 63.1223 260.759 63.1223H261.089V66.8447L264.812 63.1223H268.62C269.297 63.1206 269.946 62.8509 270.424 62.3723C270.903 61.8936 271.172 61.245 271.174 60.5681V56.7203C271.172 56.044 270.903 55.396 270.424 54.9185C269.945 54.4409 269.296 54.1727 268.62 54.1727H260.759Z" fill="#407BFF"/>
<path d="M279.015 62.5218V65.4786C279.016 65.7701 278.959 66.0588 278.848 66.3283C278.737 66.5977 278.574 66.8425 278.367 67.0486C278.161 67.2547 277.917 67.418 277.647 67.5292C277.378 67.6403 277.089 67.6971 276.797 67.6962V70.9236L273.57 67.6962H270.752C270.46 67.6971 270.172 67.6403 269.902 67.5292C269.633 67.418 269.388 67.2547 269.182 67.0486C268.976 66.8425 268.812 66.5977 268.701 66.3283C268.59 66.0588 268.533 65.7701 268.534 65.4786V62.5218C268.534 62.2306 268.592 61.9422 268.703 61.6732C268.814 61.4041 268.978 61.1596 269.184 60.9537C269.39 60.7478 269.634 60.5844 269.903 60.473C270.172 60.3616 270.461 60.3042 270.752 60.3042H276.797C277.386 60.3042 277.95 60.5378 278.365 60.9537C278.781 61.3696 279.015 61.9337 279.015 62.5218Z" fill="white"/>
<path d="M277.127 71.7221L273.438 68.0261H270.752C270.417 68.0261 270.086 67.9602 269.777 67.8322C269.468 67.7042 269.187 67.5165 268.95 67.2799C268.714 67.0434 268.526 66.7625 268.398 66.4534C268.27 66.1444 268.204 65.8131 268.204 65.4785V62.5217C268.204 62.1872 268.27 61.8559 268.398 61.5468C268.526 61.2377 268.714 60.9569 268.95 60.7203C269.187 60.4837 269.468 60.2961 269.777 60.168C270.086 60.04 270.417 59.9741 270.752 59.9741H276.797C277.473 59.9741 278.121 60.2425 278.599 60.7203C279.077 61.1981 279.345 61.8461 279.345 62.5217V65.4785C279.344 66.0969 279.119 66.694 278.711 67.1588C278.303 67.6237 277.74 67.9248 277.127 68.0063V71.7221ZM270.752 60.6341C270.252 60.6359 269.773 60.8353 269.419 61.1889C269.065 61.5425 268.866 62.0216 268.864 62.5217V65.4785C268.864 65.9791 269.063 66.4593 269.417 66.8133C269.771 67.1672 270.251 67.3661 270.752 67.3661H273.709L276.467 70.1249V67.3661H276.797C277.298 67.3661 277.778 67.1672 278.132 66.8133C278.486 66.4593 278.685 65.9791 278.685 65.4785V62.5217C278.683 62.0216 278.484 61.5425 278.13 61.1889C277.777 60.8353 277.297 60.6359 276.797 60.6341H270.752Z" fill="#407BFF"/>
<path d="M268.455 56.9647H261.36C261.272 56.9647 261.189 56.9299 261.127 56.868C261.065 56.8061 261.03 56.7222 261.03 56.6347C261.032 56.5477 261.067 56.4647 261.129 56.4032C261.19 56.3417 261.273 56.3064 261.36 56.3047H268.481C268.568 56.3064 268.651 56.3417 268.713 56.4032C268.774 56.4647 268.81 56.5477 268.811 56.6347C268.812 56.6803 268.802 56.7255 268.784 56.7674C268.766 56.8092 268.739 56.8469 268.706 56.8779C268.672 56.9089 268.633 56.9326 268.589 56.9476C268.546 56.9625 268.5 56.9683 268.455 56.9647Z" fill="#407BFF"/>
<path d="M268.455 58.6278H261.36C261.273 58.6261 261.19 58.5908 261.129 58.5292C261.067 58.4677 261.032 58.3848 261.03 58.2978C261.03 58.2103 261.065 58.1263 261.127 58.0644C261.189 58.0025 261.272 57.9678 261.36 57.9678H268.481C268.569 57.9678 268.653 58.0025 268.715 58.0644C268.777 58.1263 268.811 58.2103 268.811 58.2978C268.811 58.3431 268.801 58.3879 268.782 58.4293C268.764 58.4707 268.737 58.5079 268.704 58.5387C268.67 58.5696 268.631 58.5933 268.588 58.6086C268.546 58.6239 268.5 58.6305 268.455 58.6278Z" fill="#407BFF"/>
<path d="M266.475 60.2845H261.36C261.272 60.2845 261.189 60.2497 261.127 60.1879C261.065 60.126 261.03 60.042 261.03 59.9545C261.032 59.8675 261.067 59.7846 261.129 59.723C261.19 59.6615 261.273 59.6262 261.36 59.6245H266.501C266.589 59.6245 266.673 59.6593 266.735 59.7212C266.797 59.7831 266.831 59.867 266.831 59.9545C266.832 60.0002 266.822 60.0454 266.804 60.0872C266.786 60.1291 266.759 60.1667 266.726 60.1977C266.692 60.2287 266.653 60.2525 266.609 60.2674C266.566 60.2823 266.521 60.2882 266.475 60.2845Z" fill="#407BFF"/>
<path d="M252.061 142.388H239.29C235.276 142.388 232.023 145.642 232.023 149.655V162.426C232.023 166.439 235.276 169.693 239.29 169.693H252.061C256.074 169.693 259.327 166.439 259.327 162.426V149.655C259.327 145.642 256.074 142.388 252.061 142.388Z" fill="#407BFF"/>
<g opacity="0.6">
<path opacity="0.6" d="M252.061 142.388H239.29C235.276 142.388 232.023 145.642 232.023 149.655V162.426C232.023 166.439 235.276 169.693 239.29 169.693H252.061C256.074 169.693 259.327 166.439 259.327 162.426V149.655C259.327 145.642 256.074 142.388 252.061 142.388Z" fill="white"/>
</g>
<path fill-rule="evenodd" clip-rule="evenodd" d="M253.981 153.292V161.146H237.356V153.226L245.5 158.532L253.981 153.292Z" fill="white"/>
<path fill-rule="evenodd" clip-rule="evenodd" d="M253.981 151.694V151.807L245.5 157.04L237.356 151.741V151.694H253.981Z" fill="white"/>
</svg>
