<svg width="330" height="330" viewBox="0 0 330 330" fill="none" xmlns="http://www.w3.org/2000/svg">
<path d="M60.2712 288.315C116.912 316.107 208.771 316.107 265.379 288.315C321.988 260.522 322.014 215.451 265.379 187.658C208.745 159.865 116.879 159.859 60.2712 187.658C3.663 215.457 3.63 260.515 60.2712 288.315Z" fill="#F5F5F5" fill-opacity="0.2"/>
<path d="M140.969 259.136H195.287C196.722 259.145 198.142 258.853 199.456 258.28C200.771 257.707 201.951 256.865 202.92 255.808C203.889 254.751 204.627 253.502 205.084 252.143C205.542 250.784 205.71 249.344 205.577 247.916L196.515 116.068C196.289 113.06 194.951 110.245 192.762 108.171C190.573 106.096 187.69 104.912 184.675 104.848H130.363C128.929 104.84 127.509 105.132 126.195 105.706C124.88 106.279 123.7 107.121 122.731 108.178C121.761 109.235 121.023 110.482 120.565 111.841C120.106 113.2 119.936 114.64 120.067 116.068L129.136 247.903C129.357 250.912 130.692 253.731 132.88 255.808C135.069 257.885 137.953 259.072 140.969 259.136Z" fill="#407BFF"/>
<path opacity="0.6" d="M140.969 259.136H195.287C196.722 259.145 198.142 258.853 199.456 258.28C200.771 257.707 201.951 256.865 202.92 255.808C203.889 254.751 204.627 253.502 205.084 252.143C205.542 250.784 205.71 249.344 205.577 247.916L196.515 116.068C196.289 113.06 194.951 110.245 192.762 108.171C190.573 106.096 187.69 104.912 184.675 104.848H130.363C128.929 104.84 127.509 105.132 126.195 105.706C124.88 106.279 123.7 107.121 122.731 108.178C121.761 109.235 121.023 110.482 120.565 111.841C120.106 113.2 119.936 114.64 120.067 116.068L129.136 247.903C129.357 250.912 130.692 253.731 132.88 255.808C135.069 257.885 137.953 259.072 140.969 259.136Z" fill="white"/>
<path d="M143.788 259.136H198.106C199.54 259.145 200.96 258.853 202.274 258.28C203.589 257.707 204.769 256.864 205.738 255.807C206.708 254.75 207.445 253.502 207.902 252.143C208.36 250.784 208.528 249.344 208.395 247.916L199.32 116.068C199.094 113.061 197.757 110.247 195.57 108.173C193.382 106.098 190.5 104.913 187.486 104.848H133.168C131.734 104.839 130.314 105.13 128.999 105.703C127.685 106.277 126.505 107.119 125.536 108.176C124.566 109.233 123.829 110.481 123.371 111.84C122.914 113.2 122.746 114.64 122.879 116.068L131.941 247.903C132.163 250.913 133.501 253.733 135.692 255.81C137.882 257.888 140.769 259.073 143.788 259.136Z" fill="#407BFF"/>
<path d="M145.556 258.892H199.868C201.302 258.899 202.722 258.607 204.036 258.034C205.351 257.46 206.531 256.618 207.5 255.561C208.47 254.505 209.208 253.257 209.666 251.898C210.125 250.539 210.295 249.1 210.164 247.672L201.095 115.823C200.871 112.817 199.535 110.001 197.347 107.927C195.159 105.852 192.276 104.667 189.262 104.603H134.944C133.51 104.596 132.09 104.888 130.776 105.461C129.462 106.035 128.282 106.877 127.313 107.934C126.344 108.991 125.607 110.239 125.149 111.597C124.691 112.956 124.522 114.396 124.654 115.823L133.716 247.652C133.937 250.663 135.273 253.483 137.463 255.562C139.652 257.64 142.538 258.827 145.556 258.892Z" fill="#407BFF"/>
<path d="M133.36 107.415H147.477C147.939 107.419 148.385 107.584 148.738 107.881C149.091 108.179 149.329 108.591 149.411 109.045L149.497 109.494C149.716 110.594 150.304 111.585 151.163 112.305C152.022 113.025 153.101 113.431 154.222 113.454H167.64C168.713 113.464 169.748 113.056 170.526 112.317C171.304 111.578 171.765 110.566 171.811 109.494V109.045C171.828 108.605 172.016 108.188 172.335 107.884C172.655 107.579 173.08 107.411 173.521 107.415H187.645C189.968 107.465 192.19 108.379 193.875 109.979C195.561 111.579 196.589 113.75 196.759 116.068L205.828 247.903C205.931 249.003 205.802 250.113 205.451 251.161C205.099 252.209 204.532 253.172 203.786 253.987C203.04 254.803 202.132 255.453 201.119 255.897C200.107 256.34 199.013 256.567 197.908 256.562H143.616C141.29 256.514 139.066 255.599 137.379 253.998C135.692 252.396 134.664 250.223 134.495 247.903L125.4 116.068C125.297 114.964 125.428 113.852 125.782 112.802C126.136 111.752 126.707 110.788 127.457 109.973C128.207 109.157 129.12 108.508 130.137 108.068C131.154 107.627 132.252 107.405 133.36 107.415Z" fill="#407BFF"/>
<path opacity="0.6" d="M125.4 116.068L125.591 118.747L134.462 247.903C134.634 250.223 135.664 252.396 137.352 253.997C139.04 255.598 141.264 256.512 143.59 256.562H197.901C199.006 256.567 200.1 256.34 201.113 255.897C202.125 255.453 203.034 254.803 203.78 253.987C204.526 253.172 205.093 252.209 205.444 251.161C205.796 250.113 205.924 249.003 205.821 247.903L196.984 118.747L196.792 116.068C196.622 113.749 195.594 111.578 193.909 109.976C192.223 108.375 190.002 107.46 187.678 107.409H173.58C173.138 107.405 172.712 107.574 172.393 107.88C172.073 108.185 171.886 108.604 171.871 109.045V109.488C171.823 110.559 171.362 111.57 170.584 112.309C169.806 113.047 168.772 113.455 167.699 113.448H154.229C153.107 113.427 152.027 113.022 151.167 112.302C150.307 111.581 149.72 110.588 149.503 109.488L149.417 109.045C149.328 108.593 149.087 108.184 148.734 107.887C148.381 107.589 147.938 107.421 147.477 107.409H133.36C132.251 107.398 131.153 107.621 130.135 108.062C129.118 108.503 128.205 109.152 127.455 109.968C126.704 110.785 126.134 111.749 125.78 112.8C125.426 113.851 125.296 114.964 125.4 116.068Z" fill="black"/>
<g opacity="0.7">
<path opacity="0.7" d="M158.552 108.9C158.532 109.193 158.403 109.468 158.191 109.671C157.978 109.874 157.697 109.99 157.403 109.996C157.265 109.994 157.128 109.964 157.002 109.908C156.876 109.851 156.763 109.768 156.67 109.665C156.577 109.562 156.507 109.44 156.464 109.309C156.421 109.177 156.406 109.038 156.42 108.9C156.44 108.607 156.569 108.332 156.781 108.129C156.994 107.926 157.275 107.81 157.568 107.804C157.707 107.806 157.844 107.836 157.97 107.893C158.096 107.95 158.209 108.032 158.302 108.135C158.394 108.238 158.464 108.36 158.507 108.491C158.55 108.623 158.566 108.762 158.552 108.9Z" fill="black"/>
<path opacity="0.7" d="M166.28 107.778H162.578C162.284 107.785 162.003 107.901 161.79 108.104C161.576 108.306 161.446 108.581 161.423 108.874C161.41 109.014 161.426 109.155 161.471 109.288C161.516 109.421 161.589 109.543 161.684 109.646C161.779 109.749 161.895 109.831 162.024 109.887C162.153 109.943 162.292 109.971 162.433 109.969H166.129C166.423 109.963 166.705 109.848 166.918 109.645C167.132 109.443 167.262 109.167 167.284 108.874C167.296 108.734 167.28 108.594 167.235 108.461C167.191 108.329 167.119 108.207 167.025 108.104C166.93 108.001 166.815 107.918 166.687 107.862C166.559 107.806 166.42 107.777 166.28 107.778Z" fill="black"/>
</g>
<path d="M132.231 113.447H133.373L133.135 112.286H131.993L132.231 113.447Z" fill="#407BFF"/>
<path d="M134.277 112.286L134.515 113.447H135.656L135.419 112.286L135.181 111.131H134.039L134.277 112.286Z" fill="#407BFF"/>
<path d="M136.085 109.969L136.323 111.131L136.561 112.286L136.805 113.447H137.94L137.702 112.286L137.465 111.131L137.227 109.969H136.085Z" fill="#407BFF"/>
<path d="M185.46 110.049L185.5 110.9H184.945L185.024 112.596H185.579L185.618 113.448H190.648L190.489 110.049H185.46ZM187.625 112.55L185.975 112.603L185.843 110.88L187.493 110.827L187.625 112.55Z" fill="#407BFF"/>
<g opacity="0.64">
<path opacity="0.64" d="M150.751 170.168C150.873 172.544 150.064 174.874 148.495 176.663C146.926 178.451 144.721 179.557 142.349 179.744C141.18 179.88 139.995 179.781 138.866 179.451C137.736 179.121 136.683 178.569 135.771 177.825C134.858 177.082 134.104 176.163 133.553 175.124C133.002 174.084 132.664 172.944 132.561 171.772C132.438 169.378 133.261 167.031 134.852 165.238C136.444 163.445 138.676 162.35 141.068 162.188C142.23 162.068 143.403 162.179 144.521 162.516C145.639 162.853 146.679 163.409 147.58 164.151C148.481 164.894 149.225 165.808 149.77 166.841C150.314 167.874 150.647 169.005 150.751 170.168Z" fill="white"/>
<path opacity="0.64" d="M171.362 168.96C171.496 171.287 170.718 173.575 169.192 175.337C167.667 177.1 165.514 178.198 163.192 178.398C162.046 178.522 160.887 178.415 159.783 178.083C158.679 177.752 157.652 177.203 156.764 176.468C155.876 175.734 155.144 174.829 154.611 173.807C154.078 172.785 153.755 171.666 153.661 170.518C153.516 168.168 154.302 165.855 155.85 164.081C157.398 162.307 159.583 161.214 161.931 161.04C163.072 160.93 164.224 161.048 165.32 161.388C166.415 161.728 167.431 162.283 168.309 163.02C169.187 163.758 169.91 164.663 170.434 165.683C170.958 166.703 171.274 167.817 171.362 168.96Z" fill="white"/>
<path opacity="0.64" d="M193.38 167.125C193.529 169.401 192.786 171.645 191.307 173.382C189.828 175.118 187.731 176.21 185.46 176.425C184.336 176.54 183.201 176.428 182.121 176.097C181.041 175.766 180.039 175.221 179.173 174.496C178.307 173.77 177.596 172.879 177.08 171.873C176.565 170.868 176.257 169.77 176.174 168.643C176.024 166.347 176.783 164.083 178.287 162.341C179.791 160.599 181.919 159.518 184.213 159.331C185.328 159.234 186.451 159.36 187.517 159.7C188.583 160.041 189.571 160.589 190.423 161.314C191.276 162.039 191.976 162.926 192.484 163.923C192.991 164.921 193.296 166.009 193.38 167.125Z" fill="white"/>
</g>
<path opacity="0.6" d="M167.006 211.755L136.957 211.114L135.696 186.259L165.198 186.015L167.006 211.755Z" fill="white"/>
<path opacity="0.6" d="M168.815 243.19L138.765 242.55L137.511 217.695H167.006L168.815 243.19Z" fill="white"/>
<path opacity="0.6" d="M169.422 256.634C165.548 256.634 158.143 256.568 151.331 256.634C142.679 256.727 142.091 256.766 139.933 255.915L139.26 246.094L168.835 247.414L169.422 256.634Z" fill="white"/>
<path opacity="0.6" d="M198.429 211.755L168.379 211.114L167.119 186.259L196.621 186.015L198.429 211.755Z" fill="white"/>
<path opacity="0.6" d="M200.237 243.19L170.188 242.55L168.927 217.695H198.429L200.237 243.19Z" fill="white"/>
<path opacity="0.6" d="M171.6 256.562C175.474 256.562 182.2 256.667 188.918 256.562C195.637 256.456 198.403 256.819 200.297 256.225L200.257 248.087L171.283 247.071L171.6 256.562Z" fill="white"/>
<path style="mix-blend-mode:multiply" opacity="0.3" d="M209.988 231.468L210.84 229.171C211.004 228.784 211.028 228.352 210.908 227.95C210.787 227.547 210.53 227.199 210.18 226.966L207.414 225.554C207.984 223.453 208.316 221.294 208.404 219.119L211.308 218.703C211.706 218.598 212.051 218.35 212.279 218.007C212.506 217.664 212.6 217.25 212.543 216.842L212.364 214.4C212.371 214.204 212.337 214.008 212.265 213.826C212.193 213.643 212.085 213.477 211.946 213.338C211.808 213.199 211.642 213.09 211.46 213.017C211.277 212.944 211.082 212.91 210.886 212.915L208.055 213.285C207.712 211.155 207.116 209.075 206.279 207.087L208.55 205.107C208.621 205.042 208.687 204.971 208.748 204.896L209.117 205.675L212.708 200.527L207.52 200.467C207.411 200.337 207.276 200.23 207.124 200.152C206.972 200.075 206.806 200.03 206.636 200.019C206.326 200.008 206.023 200.117 205.791 200.322L203.54 202.216C202.334 200.553 200.898 199.069 199.277 197.808L199.428 197.418L203.118 197.893V191.854L197.541 191.346C197.202 191.259 196.843 191.305 196.538 191.474C196.232 191.644 196.003 191.924 195.897 192.257L194.729 195.181C192.908 194.435 194.3 193.405 192.281 193.287L194.214 190.099C194.142 189.142 187.964 188.95 187.139 189.01L184.922 189.168C184.49 189.235 184.102 189.469 183.841 189.82C183.58 190.171 183.468 190.61 183.529 191.043L183.767 194.343C181.72 194.817 179.761 195.615 177.965 196.705L181.549 193.65C181.549 193.65 174.784 192.871 174.065 193.432L172.131 194.917C171.777 195.222 171.543 195.642 171.469 196.104C171.395 196.565 171.487 197.038 171.728 197.438L173.477 200.296C172.113 201.641 170.98 203.202 170.124 204.916L166.501 204.368C166.3 204.27 166.08 204.215 165.856 204.207C165.632 204.2 165.409 204.24 165.201 204.324C164.994 204.409 164.806 204.537 164.651 204.699C164.497 204.861 164.378 205.054 164.303 205.266L163.254 207.741C163.058 208.174 163.03 208.665 163.177 209.118C163.323 209.571 163.633 209.953 164.046 210.189L167.042 211.701C166.397 214.024 166.042 216.418 165.986 218.829L162.554 219.277C162.084 219.369 161.665 219.633 161.379 220.017C161.093 220.402 160.961 220.88 161.01 221.356L161.208 224.076C161.217 224.493 161.382 224.892 161.67 225.193C161.958 225.495 162.349 225.678 162.765 225.706L166.725 226.049C167.174 227.998 167.85 229.887 168.738 231.679L165.775 234.18C165.402 234.498 165.155 234.938 165.077 235.422C165 235.906 165.097 236.402 165.353 236.82L166.739 238.959C167.253 239.757 174.56 239.737 174.56 239.737L172.019 236.668C173.368 238.24 174.943 239.604 176.691 240.714L175.147 244.602C174.952 245.018 174.922 245.492 175.062 245.929C175.203 246.366 175.505 246.734 175.906 246.958L178.018 247.895C178.148 247.952 178.286 247.988 178.427 248.001V248.04L184.816 248.357L185.087 243.532C185.837 243.592 186.591 243.605 187.344 243.572L187.647 247.657C187.651 247.974 187.752 248.282 187.936 248.539C188.12 248.796 188.379 248.991 188.677 249.096V249.215L195.006 249.545L194.564 241.783C195.683 241.262 196.752 240.642 197.759 239.929L199.673 243.044C199.767 243.226 199.905 243.381 200.075 243.496C200.244 243.611 200.439 243.683 200.643 243.704L206.761 244.08L204.273 238.516L203.448 238.84L201.87 236.2C203.237 234.623 204.409 232.888 205.362 231.032L208.187 232.458C208.369 232.533 208.566 232.566 208.763 232.555C208.96 232.544 209.152 232.489 209.324 232.394C209.497 232.299 209.647 232.166 209.761 232.006C209.876 231.846 209.954 231.662 209.988 231.468ZM189.066 230.893C183.166 231.85 177.846 227.006 177.358 220.036C176.87 213.067 181.318 206.889 187.258 206.236C193.033 205.576 198.003 210.499 198.478 217.159C198.953 223.818 194.815 229.956 189.066 230.893ZM213.44 215.667L217.4 213.423L213.262 213.225L213.44 215.667ZM209.606 232.629L214.351 232.92L214.919 231.27L210.853 229.184L209.606 232.629Z" fill="url(#paint0_linear_38_841)"/>
<path d="M218.172 212.942L215.354 213.311C215.018 211.186 214.424 209.109 213.585 207.127L215.849 205.147C216.154 204.85 216.351 204.46 216.411 204.038C216.471 203.617 216.389 203.187 216.179 202.817L215.024 200.798C214.944 200.625 214.826 200.473 214.677 200.353C214.529 200.234 214.355 200.15 214.169 200.109C213.983 200.069 213.79 200.071 213.605 200.117C213.42 200.163 213.249 200.252 213.104 200.375L210.866 202.269C209.667 200.612 208.241 199.133 206.629 197.874L207.777 194.93C207.944 194.532 207.97 194.089 207.849 193.675C207.729 193.261 207.471 192.9 207.117 192.653L205.217 191.551C205.043 191.455 204.851 191.399 204.653 191.388C204.455 191.376 204.257 191.409 204.074 191.485C203.891 191.56 203.727 191.676 203.595 191.823C203.462 191.971 203.365 192.146 203.309 192.336L202.134 195.28C200.297 194.527 198.348 194.081 196.366 193.96L196.128 190.706C196.128 190.276 195.958 189.863 195.656 189.558C195.353 189.253 194.941 189.079 194.511 189.076L192.307 189.241C191.877 189.308 191.491 189.541 191.233 189.891C190.975 190.241 190.865 190.678 190.928 191.109L191.165 194.409C189.128 194.879 187.18 195.674 185.397 196.765L183.714 193.973C183.613 193.784 183.473 193.619 183.302 193.49C183.131 193.361 182.934 193.271 182.725 193.225C182.516 193.18 182.299 193.181 182.091 193.228C181.882 193.275 181.686 193.367 181.516 193.498L179.595 194.983C179.245 195.287 179.013 195.705 178.939 196.164C178.865 196.622 178.955 197.092 179.193 197.491L180.935 200.342C179.342 202.001 177.981 203.868 176.889 205.893L173.999 204.388C173.798 204.291 173.578 204.237 173.355 204.231C173.132 204.224 172.91 204.265 172.704 204.351C172.497 204.436 172.312 204.564 172.158 204.726C172.005 204.888 171.888 205.081 171.814 205.292L170.771 207.754C170.577 208.186 170.549 208.675 170.694 209.126C170.839 209.577 171.147 209.958 171.557 210.196L174.54 211.701C173.897 214.02 173.544 216.41 173.49 218.816L170.078 219.258C169.609 219.348 169.192 219.611 168.908 219.995C168.624 220.379 168.495 220.856 168.547 221.33L168.745 224.043C168.746 224.27 168.794 224.495 168.887 224.702C168.98 224.91 169.115 225.095 169.284 225.247C169.454 225.399 169.653 225.514 169.869 225.584C170.086 225.653 170.314 225.677 170.54 225.653L174.045 225.152C174.493 227.403 175.234 229.586 176.249 231.646L173.306 234.134C172.934 234.453 172.687 234.893 172.61 235.377C172.532 235.86 172.629 236.355 172.883 236.774L174.263 238.899C174.379 239.086 174.536 239.244 174.721 239.362C174.906 239.48 175.115 239.556 175.334 239.583C175.552 239.61 175.773 239.588 175.982 239.519C176.19 239.45 176.381 239.335 176.54 239.183L179.51 236.616C180.852 238.183 182.42 239.542 184.163 240.648L182.625 244.529C182.428 244.944 182.398 245.418 182.539 245.854C182.68 246.291 182.982 246.657 183.384 246.879L185.476 247.809C185.683 247.882 185.902 247.911 186.121 247.896C186.34 247.881 186.553 247.822 186.748 247.722C186.943 247.622 187.116 247.484 187.256 247.315C187.396 247.146 187.5 246.95 187.562 246.74L189.08 242.846C190.92 243.368 192.832 243.591 194.742 243.506L195.039 247.578C195.034 247.786 195.073 247.993 195.156 248.185C195.238 248.376 195.361 248.547 195.516 248.686C195.671 248.825 195.855 248.928 196.054 248.989C196.253 249.049 196.463 249.066 196.67 249.037L198.854 248.595C199.276 248.46 199.639 248.183 199.879 247.811C200.12 247.439 200.224 246.996 200.174 246.555L199.884 242.523C201.725 241.897 203.465 241.007 205.052 239.883L206.952 242.991C207.047 243.161 207.18 243.307 207.341 243.415C207.503 243.524 207.687 243.593 207.88 243.617C208.073 243.641 208.269 243.619 208.452 243.552C208.635 243.486 208.8 243.378 208.932 243.236L210.635 241.638C210.946 241.327 211.148 240.923 211.21 240.488C211.271 240.052 211.19 239.608 210.978 239.223L209.13 236.167C210.491 234.592 211.656 232.859 212.602 231.006L215.407 232.431C215.587 232.51 215.782 232.548 215.978 232.542C216.174 232.536 216.366 232.486 216.541 232.396C216.715 232.306 216.868 232.179 216.987 232.023C217.106 231.867 217.188 231.686 217.229 231.494L218.073 229.197C218.236 228.811 218.259 228.381 218.139 227.98C218.018 227.579 217.762 227.232 217.413 227L214.694 225.594C215.261 223.499 215.591 221.347 215.678 219.179L218.568 218.756C218.964 218.653 219.308 218.407 219.533 218.066C219.759 217.725 219.85 217.313 219.789 216.908L219.618 214.473C219.632 214.275 219.604 214.077 219.538 213.891C219.471 213.705 219.366 213.534 219.231 213.391C219.095 213.247 218.931 213.132 218.749 213.055C218.566 212.978 218.37 212.939 218.172 212.942ZM196.452 230.867C190.591 231.824 185.318 226.993 184.809 220.05C184.301 213.107 188.769 206.936 194.657 206.282C200.399 205.622 205.342 210.533 205.824 217.166C206.306 223.799 202.167 229.93 196.452 230.867Z" fill="url(#paint1_linear_38_841)"/>
<path style="mix-blend-mode:multiply" opacity="0.3" d="M229.053 179.368L229.502 178.141C229.59 177.935 229.603 177.705 229.538 177.491C229.473 177.277 229.334 177.093 229.145 176.973L227.7 176.22C228.004 175.104 228.181 173.957 228.228 172.801L229.772 172.577C229.984 172.521 230.168 172.389 230.29 172.207C230.412 172.025 230.462 171.804 230.432 171.587L230.333 170.267C230.338 170.162 230.321 170.058 230.283 169.96C230.245 169.862 230.188 169.773 230.114 169.699C230.04 169.625 229.952 169.566 229.854 169.528C229.757 169.489 229.653 169.471 229.548 169.475L228.043 169.673C227.86 168.54 227.543 167.432 227.099 166.373L228.307 165.33C228.346 165.296 228.381 165.258 228.413 165.218L228.604 165.634L230.518 162.895L227.759 162.862C227.701 162.791 227.629 162.734 227.547 162.693C227.465 162.652 227.376 162.629 227.284 162.624C227.12 162.619 226.96 162.676 226.835 162.783L225.641 163.792C225 162.907 224.235 162.118 223.37 161.449L223.456 161.245L225.436 161.496V158.281L222.473 158.011C222.293 157.963 222.101 157.986 221.938 158.076C221.774 158.166 221.651 158.315 221.595 158.493L220.975 160.05C220.004 159.654 220.75 159.106 219.655 159.04L220.645 157.318C220.612 156.81 217.345 156.704 216.883 156.737L215.701 156.823C215.471 156.857 215.264 156.981 215.125 157.168C214.987 157.355 214.928 157.589 214.962 157.819L215.087 159.575C213.998 159.829 212.955 160.254 211.999 160.836L213.906 159.205C213.906 159.205 210.309 158.796 209.946 159.093L208.916 159.885C208.73 160.044 208.606 160.264 208.566 160.505C208.526 160.747 208.573 160.995 208.699 161.205L209.636 162.723C208.911 163.437 208.307 164.264 207.847 165.172L205.92 164.881C205.813 164.829 205.695 164.8 205.576 164.796C205.457 164.793 205.338 164.814 205.228 164.86C205.117 164.905 205.018 164.974 204.936 165.06C204.854 165.147 204.791 165.25 204.752 165.363L204.191 166.683C204.083 166.916 204.066 167.181 204.144 167.426C204.223 167.67 204.39 167.876 204.613 168.003L206.21 168.808C205.865 170.043 205.677 171.315 205.649 172.597L203.821 172.841C203.57 172.886 203.345 173.025 203.192 173.23C203.039 173.434 202.969 173.689 202.996 173.943L203.102 175.389C203.108 175.611 203.196 175.823 203.35 175.984C203.503 176.145 203.711 176.243 203.933 176.26L206.045 176.438C206.286 177.479 206.647 178.489 207.121 179.448L205.544 180.768C205.349 180.935 205.219 181.166 205.178 181.42C205.137 181.673 205.187 181.933 205.319 182.154L206.059 183.289C206.336 183.718 210.217 183.705 210.217 183.705L208.864 182.074C209.583 182.909 210.422 183.634 211.352 184.226L210.54 186.331C210.435 186.552 210.419 186.805 210.494 187.038C210.568 187.271 210.729 187.466 210.943 187.585L212.065 188.08C212.134 188.109 212.208 188.129 212.282 188.14L215.681 188.305L215.827 185.737C216.227 185.761 216.628 185.761 217.028 185.737L217.186 187.909C217.188 188.077 217.241 188.241 217.339 188.378C217.437 188.515 217.575 188.619 217.734 188.674V188.74L221.107 188.912L220.869 184.78C221.464 184.502 222.033 184.173 222.572 183.797L223.588 185.454C223.64 185.547 223.714 185.627 223.804 185.685C223.894 185.744 223.996 185.78 224.103 185.79L227.357 185.995L226.037 183.031L225.601 183.203L224.763 181.81C225.492 180.973 226.115 180.048 226.618 179.058L228.122 179.817C228.213 179.849 228.309 179.863 228.405 179.858C228.501 179.853 228.595 179.829 228.681 179.787C228.768 179.745 228.845 179.687 228.909 179.615C228.973 179.543 229.022 179.459 229.053 179.368ZM217.919 179.058C214.777 179.566 211.979 176.992 211.688 173.283C211.398 169.574 213.807 166.287 216.968 165.937C220.13 165.588 222.684 168.208 222.908 171.752C223.133 175.296 220.975 178.557 217.919 179.058ZM230.888 170.94L232.993 169.746L230.789 169.64L230.888 170.94ZM228.848 179.962L231.37 180.114L231.673 179.236L229.515 178.128L228.848 179.962Z" fill="url(#paint2_linear_38_841)"/>
<path d="M232.802 169.739L231.304 169.937C231.121 168.803 230.804 167.696 230.36 166.637L231.561 165.594C231.724 165.436 231.83 165.229 231.862 165.004C231.895 164.78 231.851 164.551 231.739 164.353L231.125 163.278C231.082 163.186 231.019 163.105 230.94 163.042C230.861 162.979 230.768 162.935 230.669 162.913C230.57 162.891 230.468 162.893 230.37 162.917C230.271 162.941 230.18 162.988 230.102 163.053L228.914 164.063C228.276 163.181 227.516 162.395 226.657 161.727L227.271 160.156C227.357 159.943 227.367 159.706 227.3 159.486C227.233 159.267 227.092 159.076 226.901 158.948L225.892 158.361C225.799 158.31 225.697 158.28 225.592 158.274C225.487 158.268 225.382 158.286 225.284 158.326C225.187 158.366 225.099 158.427 225.029 158.505C224.958 158.583 224.905 158.676 224.875 158.776L224.261 160.334C223.284 159.931 222.247 159.693 221.192 159.628L221.067 157.899C221.067 157.67 220.977 157.45 220.817 157.287C220.656 157.124 220.438 157.031 220.209 157.027L219.034 157.113C218.806 157.151 218.601 157.276 218.463 157.462C218.325 157.648 218.265 157.88 218.295 158.11L218.427 159.859C217.345 160.114 216.309 160.537 215.358 161.113L214.46 159.634C214.407 159.534 214.332 159.446 214.242 159.377C214.151 159.309 214.047 159.26 213.936 159.236C213.825 159.211 213.71 159.211 213.598 159.236C213.487 159.26 213.383 159.308 213.292 159.377L212.269 160.169C212.084 160.329 211.961 160.549 211.922 160.79C211.884 161.032 211.932 161.279 212.058 161.489L212.982 163.007C212.134 163.888 211.41 164.881 210.83 165.957L209.293 165.159C209.185 165.107 209.068 165.079 208.949 165.076C208.83 165.073 208.712 165.095 208.601 165.14C208.491 165.185 208.392 165.253 208.31 165.34C208.228 165.426 208.165 165.528 208.124 165.64L207.577 166.96C207.465 167.192 207.446 167.457 207.523 167.703C207.6 167.948 207.768 168.155 207.992 168.28L209.583 169.086C209.237 170.317 209.049 171.588 209.022 172.867L207.207 173.105C206.958 173.153 206.735 173.293 206.584 173.497C206.432 173.701 206.363 173.954 206.389 174.207L206.494 175.653C206.495 175.773 206.522 175.893 206.572 176.003C206.622 176.113 206.694 176.212 206.784 176.292C206.874 176.373 206.98 176.434 207.095 176.472C207.209 176.509 207.331 176.522 207.451 176.511L209.319 176.24C209.555 177.439 209.948 178.602 210.487 179.698L208.923 181.018C208.728 181.186 208.599 181.417 208.558 181.67C208.517 181.924 208.566 182.184 208.699 182.404L209.431 183.533C209.493 183.633 209.576 183.718 209.675 183.781C209.774 183.845 209.886 183.885 210.002 183.9C210.119 183.914 210.237 183.902 210.348 183.865C210.46 183.828 210.561 183.766 210.646 183.685L212.223 182.319C212.937 183.153 213.771 183.876 214.698 184.464L213.88 186.529C213.777 186.751 213.761 187.003 213.836 187.235C213.91 187.468 214.07 187.663 214.282 187.783L215.398 188.278C215.508 188.317 215.625 188.333 215.742 188.325C215.858 188.316 215.972 188.284 216.076 188.231C216.18 188.177 216.272 188.102 216.346 188.012C216.42 187.921 216.474 187.817 216.506 187.704L217.318 185.638C218.297 185.912 219.313 186.028 220.328 185.982L220.486 188.153C220.484 188.264 220.506 188.373 220.551 188.475C220.595 188.576 220.661 188.666 220.744 188.74C220.827 188.813 220.924 188.868 221.03 188.9C221.136 188.932 221.248 188.94 221.357 188.925L222.519 188.688C222.746 188.619 222.942 188.474 223.072 188.276C223.202 188.078 223.259 187.841 223.232 187.605L223.08 185.46C224.059 185.122 224.986 184.646 225.832 184.048L226.842 185.698C226.892 185.788 226.964 185.866 227.049 185.924C227.135 185.981 227.234 186.018 227.337 186.031C227.439 186.044 227.544 186.033 227.641 185.998C227.739 185.963 227.827 185.905 227.898 185.83L228.802 184.985C228.968 184.819 229.076 184.604 229.109 184.372C229.143 184.14 229.1 183.904 228.987 183.698L228.004 182.068C228.727 181.232 229.347 180.312 229.852 179.329L231.343 180.081C231.439 180.12 231.542 180.138 231.645 180.134C231.748 180.129 231.85 180.103 231.942 180.056C232.034 180.009 232.115 179.943 232.179 179.861C232.243 179.78 232.289 179.687 232.313 179.586L232.762 178.365C232.848 178.159 232.86 177.93 232.795 177.717C232.73 177.504 232.592 177.32 232.406 177.197L230.96 176.445C231.264 175.331 231.441 174.186 231.488 173.032L233.026 172.808C233.238 172.755 233.423 172.625 233.545 172.443C233.667 172.261 233.717 172.041 233.686 171.825L233.594 170.505C233.595 170.401 233.575 170.299 233.535 170.204C233.495 170.109 233.436 170.023 233.362 169.952C233.288 169.88 233.2 169.824 233.104 169.788C233.008 169.751 232.905 169.734 232.802 169.739ZM221.239 179.276C218.123 179.791 215.299 177.217 215.048 173.521C214.797 169.825 217.153 166.545 220.288 166.201C223.423 165.858 225.971 168.459 226.228 171.99C226.486 175.521 224.281 178.781 221.239 179.276Z" fill="url(#paint3_linear_38_841)"/>
<path opacity="0.64" d="M127.38 121.341L130.02 157.153C130.03 157.43 130.096 157.702 130.213 157.953C130.331 158.204 130.498 158.428 130.704 158.613C130.911 158.798 131.152 158.94 131.415 159.029C131.677 159.118 131.955 159.153 132.231 159.133L196.469 153.048C196.954 152.965 197.389 152.697 197.682 152.301C197.975 151.905 198.103 151.411 198.04 150.922L195.657 118.272L127.38 121.341Z" fill="white"/>
<path d="M193.585 114.18L129.089 116.721C128.815 116.736 128.547 116.806 128.301 116.927C128.055 117.049 127.836 117.219 127.658 117.428C127.479 117.636 127.345 117.879 127.263 118.141C127.182 118.403 127.154 118.679 127.182 118.952L127.453 122.622L195.697 119.421L195.452 116.081C195.443 115.586 195.244 115.113 194.896 114.759C194.549 114.406 194.08 114.199 193.585 114.18Z" fill="url(#paint4_linear_38_841)"/>
<path d="M131.954 119.46C131.966 119.581 131.955 119.703 131.919 119.819C131.883 119.934 131.824 120.042 131.746 120.134C131.668 120.227 131.572 120.302 131.463 120.357C131.355 120.411 131.237 120.443 131.116 120.45C130.866 120.456 130.625 120.364 130.442 120.193C130.26 120.023 130.151 119.789 130.139 119.539C130.126 119.419 130.138 119.297 130.174 119.181C130.209 119.065 130.268 118.958 130.346 118.865C130.425 118.773 130.521 118.697 130.629 118.643C130.738 118.589 130.856 118.557 130.977 118.549C131.226 118.546 131.467 118.638 131.649 118.808C131.831 118.978 131.94 119.212 131.954 119.46Z" fill="white"/>
<path d="M143.834 153.358L138.725 153.807L136.785 127.242L141.907 126.964L143.834 153.358Z" fill="white"/>
<path d="M143.834 153.358L138.725 153.806L137.801 141.194L142.923 140.824L143.834 153.358Z" fill="url(#paint5_linear_38_841)"/>
<path d="M150.83 152.737L145.814 153.18L143.893 126.859L148.922 126.595L150.83 152.737Z" fill="white"/>
<path d="M150.83 152.737L145.814 153.18L145.358 146.936L150.374 146.527L150.83 152.737Z" fill="url(#paint6_linear_38_841)"/>
<path d="M157.7 152.13L152.777 152.566L150.869 126.489L155.806 126.225L157.7 152.13Z" fill="white"/>
<path d="M157.7 152.13L152.777 152.566L152.539 149.312L157.463 148.903L157.7 152.13Z" fill="url(#paint7_linear_38_841)"/>
<path d="M164.439 151.529L159.608 151.958L157.72 126.119L162.565 125.862L164.439 151.529Z" fill="white"/>
<path d="M164.439 151.53L159.608 151.959L158.129 131.716L162.974 131.419L164.439 151.53Z" fill="url(#paint8_linear_38_841)"/>
<path d="M171.059 150.949L166.313 151.364L164.446 125.763L169.204 125.506L171.059 150.949Z" fill="white"/>
<path d="M171.059 150.949L166.313 151.365L165.02 133.584L169.772 133.281L171.059 150.949Z" fill="url(#paint9_linear_38_841)"/>
<path d="M177.566 150.368L172.9 150.784L171.052 125.407L175.725 125.156L177.566 150.368Z" fill="white"/>
<path d="M177.566 150.368L172.9 150.784L171.323 129.096L175.989 128.825L177.566 150.368Z" fill="url(#paint10_linear_38_841)"/>
<path d="M183.955 149.8L179.375 150.21L177.54 125.064L182.127 124.813L183.955 149.8Z" fill="white"/>
<path d="M183.955 149.8L179.375 150.21L178.246 134.759L182.833 134.455L183.955 149.8Z" fill="url(#paint11_linear_38_841)"/>
<path d="M190.225 149.246L185.731 149.648L183.909 124.72L188.423 124.476L190.225 149.246Z" fill="white"/>
<path d="M190.225 149.246L185.731 149.648L185.097 140.989L189.598 140.646L190.225 149.246Z" fill="url(#paint12_linear_38_841)"/>
<path d="M191.077 193.539C191.671 194.053 191.941 194.641 191.737 195.004C191.618 195.255 191.314 195.347 190.984 195.433C190.248 195.59 189.484 195.565 188.76 195.36C187.671 195.136 187.031 195.01 187.011 194.753C186.991 194.496 187.532 194.284 188.001 194.093C188.53 193.87 189.088 193.723 189.658 193.657L191.077 193.539Z" fill="url(#paint13_linear_38_841)"/>
<path d="M173.864 185.678C174.014 185.716 174.154 185.786 174.274 185.883C174.395 185.979 174.494 186.101 174.563 186.239C174.735 186.727 174.24 187.275 173.455 188.14C172.861 188.8 172.062 189.658 171.745 189.46C171.554 189.348 171.633 188.892 171.699 188.463C171.838 187.671 172.144 186.917 172.597 186.252L173.864 185.678Z" fill="url(#paint14_linear_38_841)"/>
<path d="M189.77 192.39L191.09 193.631C191.121 193.66 191.143 193.696 191.156 193.736C191.169 193.776 191.171 193.819 191.162 193.86C191.154 193.901 191.135 193.939 191.107 193.971C191.079 194.002 191.044 194.026 191.004 194.04C190.7 194.161 190.37 194.197 190.047 194.146C189.97 194.131 189.899 194.094 189.842 194.04L188.569 192.964L189.77 192.39Z" fill="url(#paint15_linear_38_841)"/>
<path d="M173.144 184.926L173.857 185.81C173.881 185.839 173.898 185.873 173.907 185.909C173.916 185.945 173.918 185.983 173.912 186.019C173.905 186.056 173.892 186.091 173.871 186.122C173.85 186.153 173.823 186.18 173.791 186.199C173.694 186.267 173.59 186.325 173.481 186.371C173.393 186.41 173.295 186.422 173.2 186.406C173.105 186.389 173.016 186.345 172.946 186.279L172.194 185.546L173.144 184.926Z" fill="url(#paint16_linear_38_841)"/>
<path d="M183.275 164.683C182.572 166.468 182.102 168.336 181.876 170.241C181.471 174.209 182.046 178.216 183.553 181.909C185.155 185.853 187.736 189.323 191.05 191.994C190.759 192.277 190.433 192.521 190.08 192.72C189.55 193.015 188.967 193.201 188.364 193.268C184.375 190.891 181.034 187.568 178.636 183.592C174.154 176.055 174.577 168.313 176.048 164.941C176.354 164.057 176.991 163.326 177.824 162.901C180.061 161.918 182.926 164.373 183.275 164.683Z" fill="url(#paint17_linear_38_841)"/>
<path style="mix-blend-mode:multiply" opacity="0.3" d="M176.042 164.947C176.348 164.063 176.984 163.333 177.817 162.908C180.061 161.918 182.926 164.373 183.275 164.683C182.585 166.437 182.12 168.271 181.889 170.141C180.305 170.636 178.121 171.699 177.184 173.903C175.659 177.467 178.504 181.394 179.098 182.206C180.418 184.001 181.078 183.777 183.011 186.351C184.457 188.298 184.622 189.176 185.823 190.08C187.125 190.982 188.69 191.426 190.271 191.341C190.549 191.585 190.813 191.809 191.05 192.001C190.759 192.281 190.433 192.523 190.08 192.72C189.55 193.015 188.967 193.201 188.364 193.268C184.375 190.891 181.034 187.568 178.636 183.592C174.148 176.062 174.57 168.3 176.042 164.947Z" fill="url(#paint18_linear_38_841)"/>
<path d="M180.279 164.617C179.927 165.483 179.446 166.291 178.853 167.013C176.939 169.323 174.999 169.257 172.913 171.191C171.648 172.384 170.735 173.903 170.273 175.58C169.231 180.2 173.573 184.351 174.035 184.82C173.709 185.17 173.333 185.47 172.92 185.711C172.532 185.931 172.117 186.1 171.686 186.212C165.554 181.381 162.287 175.23 163.898 170.96C164.776 168.63 167.125 166.808 168.854 165.462C171.087 163.744 173.605 162.432 176.293 161.588L180.279 164.617Z" fill="url(#paint19_linear_38_841)"/>
<path d="M175.976 152.889C176.075 155.437 176.761 156.711 176.088 158.829C175.669 160.083 174.951 161.215 173.996 162.129C174.885 163.572 176.127 164.765 177.606 165.594C179.337 166.549 181.311 166.973 183.282 166.815C186.039 165.154 188.353 162.852 190.027 160.103C191.453 157.734 193.017 155.127 192.324 152.005C191.446 148.045 187.572 146.164 186.476 145.636C185.75 145.286 180.761 142.87 177.982 145.114C175.745 146.949 175.903 150.982 175.976 152.889Z" fill="url(#paint20_linear_38_841)"/>
<path d="M160.175 156.935C160.067 156.602 159.857 156.311 159.575 156.103C159.37 155.918 159.331 155.951 159.192 155.8C158.842 155.417 158.888 154.994 158.763 154.988C158.638 154.981 158.492 155.298 158.525 155.608C158.558 155.918 158.829 156.044 158.796 156.268C158.763 156.493 158.136 156.783 157.621 156.724C157.106 156.664 156.651 156.169 156.42 156.314C156.189 156.46 156.288 156.75 156.288 156.776C156.361 157.39 157.232 157.978 158.037 158.004C158.506 158.004 158.697 157.839 159.225 157.938C159.595 158.004 159.733 158.116 159.885 158.03C160.195 157.859 160.281 157.324 160.175 156.935Z" fill="url(#paint21_linear_38_841)"/>
<path d="M160.076 156.73C165.046 156.73 167.904 155.206 169.594 153.846C173.428 150.757 173.897 146.256 178.497 144.725C179.335 144.441 180.794 143.953 181.665 144.652C183.467 146.111 181.896 152.051 178.655 155.872C176.632 158.281 173.868 159.952 170.795 160.624C168.884 160.991 166.919 160.973 165.016 160.572C163.112 160.171 161.307 159.394 159.707 158.288C159.584 158.17 159.496 158.022 159.452 157.858C159.407 157.694 159.409 157.521 159.456 157.357C159.502 157.211 159.582 157.078 159.69 156.969C159.798 156.86 159.931 156.778 160.076 156.73Z" fill="url(#paint22_linear_38_841)"/>
<path style="mix-blend-mode:multiply" opacity="0.3" d="M185.11 162.716C186.43 161.297 185.691 160.525 187.209 157.753C188.727 154.981 190.014 154.783 190.681 152.909C191.129 151.522 191.096 150.025 190.588 148.658C191.439 149.621 192.035 150.78 192.324 152.031C193.017 155.153 191.453 157.76 190.027 160.129C188.353 162.878 186.039 165.181 183.282 166.841C181.84 166.965 180.388 166.771 179.028 166.273C177.669 165.774 176.435 164.984 175.415 163.957C176.232 164.332 177.099 164.588 177.989 164.716C178.457 164.782 182.734 165.323 185.11 162.716Z" fill="url(#paint23_linear_38_841)"/>
<path d="M184.958 143.009L185.46 144.329C185.62 144.756 185.911 145.121 186.292 145.372L187.42 146.131C187.42 146.131 184.12 145.82 182.45 144.415L183.381 144.045C183.428 144.027 183.469 143.994 183.496 143.951C183.523 143.908 183.536 143.858 183.533 143.807L183.454 142.804L184.958 143.009Z" fill="url(#paint24_linear_38_841)"/>
<path d="M183.836 143.781C183.678 143.781 182.569 144.025 182.206 143.511C181.718 142.804 182.068 141.603 182.094 141.418C182.226 140.646 182.285 140.527 182.411 140.356L182.596 140.131C182.829 139.995 183.08 139.891 183.341 139.821C183.698 139.782 184.516 141.003 185.077 142.943C185.117 143.016 185.156 143.082 185.189 143.154C185.321 143.306 183.85 143.88 183.836 143.781Z" fill="url(#paint25_linear_38_841)"/>
<path d="M181.724 139.821C181.882 140.3 182.19 140.714 182.602 141.003C182.708 141.041 182.808 141.094 182.899 141.161C182.92 141.178 182.938 141.198 182.952 141.22C183.216 141.544 182.774 142.191 182.952 142.316C183.13 142.441 183.421 142.105 183.506 142.197C183.592 142.29 183.322 142.593 183.414 142.699C183.506 142.804 183.658 142.62 183.836 142.699C184.015 142.778 183.922 142.804 184.067 142.989C184.141 143.084 184.222 143.173 184.312 143.253C184.635 143.53 185.255 143.458 185.321 143.253C185.321 143.207 185.321 143.181 185.321 143.042C185.308 142.943 185.308 142.844 185.321 142.745C185.446 142.455 185.617 142.187 185.83 141.953C186.08 141.641 186.234 141.262 186.272 140.864V140.765C186.257 140.231 186.059 139.718 185.711 139.313C185.156 138.772 184.523 139.313 183.691 138.897C182.734 138.382 182.794 137.214 182.371 137.227C181.949 137.241 181.342 138.732 181.724 139.821Z" fill="#2A2A4F"/>
<path d="M183.11 142.105C183.183 141.854 183.506 141.953 183.592 142.21C183.618 142.275 183.63 142.344 183.627 142.413C183.625 142.482 183.608 142.55 183.577 142.612C183.547 142.674 183.504 142.73 183.45 142.774C183.397 142.819 183.335 142.851 183.269 142.87C183.011 142.884 183.005 142.441 183.11 142.105Z" fill="url(#paint26_linear_38_841)"/>
<path d="M109.784 57.8293H97.0002C92.9797 57.8293 89.7204 61.0886 89.7204 65.1091V77.8933C89.7204 81.9139 92.9797 85.1731 97.0002 85.1731H109.784C113.805 85.1731 117.064 81.9139 117.064 77.8933V65.1091C117.064 61.0886 113.805 57.8293 109.784 57.8293Z" fill="#407BFF"/>
<path d="M82.4406 150.275H69.6564C65.6359 150.275 62.3766 153.535 62.3766 157.555V170.339C62.3766 174.36 65.6359 177.619 69.6564 177.619H82.4406C86.4611 177.619 89.7204 174.36 89.7204 170.339V157.555C89.7204 153.535 86.4611 150.275 82.4406 150.275Z" fill="#407BFF"/>
<path d="M190.344 49.5991H177.56C173.539 49.5991 170.28 52.8584 170.28 56.8789V69.6631C170.28 73.6836 173.539 76.9429 177.56 76.9429H190.344C194.365 76.9429 197.624 73.6836 197.624 69.6631V56.8789C197.624 52.8584 194.365 49.5991 190.344 49.5991Z" fill="#407BFF"/>
<path d="M259.07 101.112H246.286C242.265 101.112 239.006 104.371 239.006 108.392V121.176C239.006 125.197 242.265 128.456 246.286 128.456H259.07C263.09 128.456 266.35 125.197 266.35 121.176V108.392C266.35 104.371 263.09 101.112 259.07 101.112Z" fill="#407BFF"/>
<path d="M82.1762 166.447C82.1762 167.127 81.9892 167.739 81.6152 168.283C81.2525 168.827 80.7198 169.263 80.0172 169.592C79.3145 169.921 78.4702 170.096 77.4842 170.119V171.479H76.4302V170.085C75.1155 169.96 74.0502 169.564 73.2342 168.895C72.4182 168.226 71.9705 167.308 71.8912 166.141H75.9032C75.9372 166.606 76.1128 166.923 76.4302 167.093V165.427C75.4442 165.155 74.6622 164.906 74.0842 164.679C73.5175 164.452 73.0018 164.078 72.5372 163.557C72.0838 163.036 71.8572 162.327 71.8572 161.432C71.8572 160.695 72.0612 160.061 72.4692 159.528C72.8772 158.984 73.4268 158.565 74.1182 158.27C74.8095 157.975 75.5802 157.811 76.4302 157.777V156.4H77.4842V157.777C78.8328 157.868 79.8982 158.247 80.6802 158.916C81.4622 159.573 81.8928 160.486 81.9722 161.653H77.9092C77.8638 161.222 77.7222 160.933 77.4842 160.786V162.435C77.8808 162.548 78.0678 162.605 78.0452 162.605C78.8952 162.866 79.5922 163.126 80.1362 163.387C80.6915 163.636 81.1675 164.01 81.5642 164.509C81.9722 165.008 82.1762 165.654 82.1762 166.447ZM75.9032 161.262C75.9032 161.557 76.0788 161.806 76.4302 162.01V160.65C76.0788 160.718 75.9032 160.922 75.9032 161.262ZM77.4842 167.246C77.9262 167.155 78.1472 166.917 78.1472 166.532C78.1472 166.237 77.9262 165.988 77.4842 165.784V167.246Z" fill="white"/>
<path d="M259.176 117.447C259.176 118.127 258.989 118.739 258.615 119.283C258.253 119.827 257.72 120.263 257.017 120.592C256.315 120.921 255.47 121.096 254.484 121.119V122.479H253.43V121.085C252.116 120.96 251.05 120.564 250.234 119.895C249.418 119.226 248.971 118.308 248.891 117.141H252.903C252.937 117.606 253.113 117.923 253.43 118.093V116.427C252.444 116.155 251.662 115.906 251.084 115.679C250.518 115.452 250.002 115.078 249.537 114.557C249.084 114.036 248.857 113.327 248.857 112.432C248.857 111.695 249.061 111.061 249.469 110.528C249.877 109.984 250.427 109.565 251.118 109.27C251.81 108.975 252.58 108.811 253.43 108.777V107.4H254.484V108.777C255.833 108.868 256.898 109.247 257.68 109.916C258.462 110.573 258.893 111.486 258.972 112.653H254.909C254.864 112.222 254.722 111.933 254.484 111.786V113.435C254.881 113.548 255.068 113.605 255.045 113.605C255.895 113.866 256.592 114.126 257.136 114.387C257.692 114.636 258.168 115.01 258.564 115.509C258.972 116.008 259.176 116.654 259.176 117.447ZM252.903 112.262C252.903 112.557 253.079 112.806 253.43 113.01V111.65C253.079 111.718 252.903 111.922 252.903 112.262ZM254.484 118.246C254.926 118.155 255.147 117.917 255.147 117.532C255.147 117.237 254.926 116.988 254.484 116.784V118.246Z" fill="white"/>
<path d="M109.63 76.195V79.102H100.246L99.7873 77.334C100.309 76.926 100.7 76.4897 100.96 76.025C101.232 75.5603 101.397 74.9993 101.453 74.342H99.7023V71.843H101.011C100.819 71.027 100.722 70.3073 100.722 69.684C100.722 68.8907 100.904 68.2107 101.266 67.644C101.64 67.0773 102.15 66.6467 102.796 66.352C103.454 66.046 104.207 65.893 105.057 65.893C106.463 65.893 107.551 66.267 108.321 67.015C109.092 67.763 109.517 68.749 109.596 69.973H106.128C106.049 69.293 105.737 68.953 105.193 68.953C104.604 68.953 104.309 69.344 104.309 70.126C104.309 70.3187 104.349 70.5737 104.428 70.891C104.508 71.197 104.593 71.5143 104.683 71.843H107.539V74.342H104.989C104.819 75.1467 104.468 75.7643 103.935 76.195H109.63Z" fill="white"/>
<path d="M189.63 67.195V70.102H180.246L179.787 68.334C180.309 67.926 180.7 67.4897 180.96 67.025C181.232 66.5603 181.397 65.9993 181.453 65.342H179.702V62.843H181.011C180.819 62.027 180.722 61.3073 180.722 60.684C180.722 59.8907 180.904 59.2107 181.266 58.644C181.64 58.0773 182.15 57.6467 182.796 57.352C183.454 57.046 184.207 56.893 185.057 56.893C186.463 56.893 187.551 57.267 188.321 58.015C189.092 58.763 189.517 59.749 189.596 60.973H186.128C186.049 60.293 185.737 59.953 185.193 59.953C184.604 59.953 184.309 60.344 184.309 61.126C184.309 61.3187 184.349 61.5737 184.428 61.891C184.508 62.197 184.593 62.5143 184.683 62.843H187.539V65.342H184.989C184.819 66.1467 184.468 66.7643 183.935 67.195H189.63Z" fill="white"/>
<defs>
<linearGradient id="paint0_linear_38_841" x1="90.9487" y1="141.601" x2="293.413" y2="303.981" gradientUnits="userSpaceOnUse">
<stop stop-color="#EFC250"/>
<stop offset="1" stop-color="#D66F58"/>
</linearGradient>
<linearGradient id="paint1_linear_38_841" x1="199.938" y1="263.727" x2="187.444" y2="170.807" gradientUnits="userSpaceOnUse">
<stop stop-color="#EFC250"/>
<stop offset="1" stop-color="#D66F58"/>
</linearGradient>
<linearGradient id="paint2_linear_38_841" x1="165.832" y1="132" x2="273.561" y2="218.406" gradientUnits="userSpaceOnUse">
<stop stop-color="#E58E83"/>
<stop offset="1" stop-color="#DD6FB6"/>
</linearGradient>
<linearGradient id="paint3_linear_38_841" x1="217.577" y1="161.466" x2="228.128" y2="214.224" gradientUnits="userSpaceOnUse">
<stop stop-color="#E58E83"/>
<stop offset="1" stop-color="#DD6FB6"/>
</linearGradient>
<linearGradient id="paint4_linear_38_841" x1="166.206" y1="110.624" x2="140.775" y2="159.58" gradientUnits="userSpaceOnUse">
<stop stop-color="#E58E83"/>
<stop offset="1" stop-color="#DD6FB6"/>
</linearGradient>
<linearGradient id="paint5_linear_38_841" x1="143.023" y1="138.915" x2="137.689" y2="160.691" gradientUnits="userSpaceOnUse">
<stop stop-color="#E58E83"/>
<stop offset="1" stop-color="#DD6FB6"/>
</linearGradient>
<linearGradient id="paint6_linear_38_841" x1="149.313" y1="145.579" x2="146.357" y2="157.644" gradientUnits="userSpaceOnUse">
<stop stop-color="#E58E83"/>
<stop offset="1" stop-color="#DD6FB6"/>
</linearGradient>
<linearGradient id="paint7_linear_38_841" x1="155.872" y1="148.422" x2="154.047" y2="155.885" gradientUnits="userSpaceOnUse">
<stop stop-color="#E58E83"/>
<stop offset="1" stop-color="#DD6FB6"/>
</linearGradient>
<linearGradient id="paint8_linear_38_841" x1="164.731" y1="128.502" x2="156.597" y2="161.722" gradientUnits="userSpaceOnUse">
<stop stop-color="#E58E83"/>
<stop offset="1" stop-color="#DD6FB6"/>
</linearGradient>
<linearGradient id="paint9_linear_38_841" x1="171.117" y1="130.754" x2="163.905" y2="160.189" gradientUnits="userSpaceOnUse">
<stop stop-color="#E58E83"/>
<stop offset="1" stop-color="#DD6FB6"/>
</linearGradient>
<linearGradient id="paint10_linear_38_841" x1="178.149" y1="125.759" x2="169.493" y2="161.085" gradientUnits="userSpaceOnUse">
<stop stop-color="#E58E83"/>
<stop offset="1" stop-color="#DD6FB6"/>
</linearGradient>
<linearGradient id="paint11_linear_38_841" x1="183.835" y1="132.331" x2="177.511" y2="158.143" gradientUnits="userSpaceOnUse">
<stop stop-color="#E58E83"/>
<stop offset="1" stop-color="#DD6FB6"/>
</linearGradient>
<linearGradient id="paint12_linear_38_841" x1="189.341" y1="139.546" x2="185.555" y2="154.999" gradientUnits="userSpaceOnUse">
<stop stop-color="#E58E83"/>
<stop offset="1" stop-color="#DD6FB6"/>
</linearGradient>
<linearGradient id="paint13_linear_38_841" x1="201.752" y1="205.979" x2="196.967" y2="206.314" gradientUnits="userSpaceOnUse">
<stop stop-color="#43467B"/>
<stop offset="1" stop-color="#3E3D69"/>
</linearGradient>
<linearGradient id="paint14_linear_38_841" x1="184.61" y1="198.909" x2="181.442" y2="199.13" gradientUnits="userSpaceOnUse">
<stop stop-color="#43467B"/>
<stop offset="1" stop-color="#3E3D69"/>
</linearGradient>
<linearGradient id="paint15_linear_38_841" x1="199.4" y1="205.912" x2="197.916" y2="209.63" gradientUnits="userSpaceOnUse">
<stop stop-color="#2F1F45"/>
<stop offset="1" stop-color="#8A3C74"/>
</linearGradient>
<linearGradient id="paint16_linear_38_841" x1="181.691" y1="192.839" x2="185.173" y2="204.487" gradientUnits="userSpaceOnUse">
<stop stop-color="#2F1F45"/>
<stop offset="1" stop-color="#8A3C74"/>
</linearGradient>
<linearGradient id="paint17_linear_38_841" x1="183.005" y1="201.84" x2="194.416" y2="188.718" gradientUnits="userSpaceOnUse">
<stop stop-color="#92346B"/>
<stop offset="1" stop-color="#6A313F"/>
</linearGradient>
<linearGradient id="paint18_linear_38_841" x1="183.005" y1="201.84" x2="194.416" y2="188.718" gradientUnits="userSpaceOnUse">
<stop stop-color="#92346B"/>
<stop offset="1" stop-color="#6A313F"/>
</linearGradient>
<linearGradient id="paint19_linear_38_841" x1="174.311" y1="194.284" x2="185.722" y2="181.162" gradientUnits="userSpaceOnUse">
<stop stop-color="#92346B"/>
<stop offset="1" stop-color="#6A313F"/>
</linearGradient>
<linearGradient id="paint20_linear_38_841" x1="187.721" y1="154.765" x2="195.978" y2="175.224" gradientUnits="userSpaceOnUse">
<stop stop-color="#9D7FF4"/>
<stop offset="1" stop-color="#6265D2"/>
</linearGradient>
<linearGradient id="paint21_linear_38_841" x1="166.553" y1="170.334" x2="168.504" y2="168.081" gradientUnits="userSpaceOnUse">
<stop stop-color="#2F1F45"/>
<stop offset="1" stop-color="#8A3C74"/>
</linearGradient>
<linearGradient id="paint22_linear_38_841" x1="178.955" y1="158.297" x2="187.212" y2="178.763" gradientUnits="userSpaceOnUse">
<stop stop-color="#9D7FF4"/>
<stop offset="1" stop-color="#6265D2"/>
</linearGradient>
<linearGradient id="paint23_linear_38_841" x1="188.018" y1="154.644" x2="196.268" y2="175.105" gradientUnits="userSpaceOnUse">
<stop stop-color="#9D7FF4"/>
<stop offset="1" stop-color="#6265D2"/>
</linearGradient>
<linearGradient id="paint24_linear_38_841" x1="196.961" y1="159.424" x2="190.88" y2="150.81" gradientUnits="userSpaceOnUse">
<stop stop-color="#2F1F45"/>
<stop offset="1" stop-color="#8A3C74"/>
</linearGradient>
<linearGradient id="paint25_linear_38_841" x1="197.334" y1="159.159" x2="191.253" y2="150.545" gradientUnits="userSpaceOnUse">
<stop stop-color="#2F1F45"/>
<stop offset="1" stop-color="#8A3C74"/>
</linearGradient>
<linearGradient id="paint26_linear_38_841" x1="197.24" y1="159.232" x2="191.158" y2="150.611" gradientUnits="userSpaceOnUse">
<stop stop-color="#2F1F45"/>
<stop offset="1" stop-color="#8A3C74"/>
</linearGradient>
</defs>
</svg>
