<svg width="68" height="54" viewBox="0 0 68 54" fill="none" xmlns="http://www.w3.org/2000/svg">
<g clip-path="url(#clip0_611_32)">
<path d="M34.2231 24.5782V24.4727L28.7831 17.5329C28.7831 17.5329 27.5081 17.7016 26.1269 19.1255C25.1706 20.1063 0.403745 44.343 0.26562 44.5329C-0.47813 45.5876 0.43562 45.2501 1.93374 44.7122C2.01874 44.7122 14.0994 40.852 14.0994 40.852C14.1525 40.7887 14.0887 40.8415 14.1631 40.7888C14.1206 40.2509 14.0781 38.0255 14.0569 37.8673C13.9931 37.3188 14.2906 37.1395 14.8006 36.9286L24.6394 33.3637C24.7031 33.2794 34.0425 24.747 34.2231 24.5782ZM51.2337 37.245C52.6469 38.943 53.4331 38.6477 54.5062 38.2259C54.8462 38.0993 66.7675 33.2055 67.0225 33.0684C67.8725 32.6149 66.8419 31.3071 66.2575 30.6005C66.0344 30.3368 44.4656 4.69734 44.2425 4.41258C43.2119 3.12586 42.7231 3.05203 40.1625 3.06258C39.0787 3.06258 28.815 3.11531 27.7844 3.12586C25.7444 3.13641 24.2887 3.09422 25.7444 4.90828C26.5625 5.91023 50.6281 36.5173 51.2337 37.245ZM67.4581 37.4138C67.2137 37.3821 64.8444 36.918 63.4206 36.6544C63.4206 36.6544 51.2019 41.97 50.9362 42.0966C49.2362 42.8665 48.0781 41.7591 47.0369 40.5567L40.97 32.752C40.3962 32.6571 34.5525 31.7395 34.0319 31.7712C33.7025 31.7923 33.0119 31.8555 32.5019 32.077C31.9812 32.2985 17.0744 37.6458 16.5431 37.8462C16.0012 38.0571 15.3319 38.2259 15.3637 38.6477C15.385 38.9114 15.5762 38.922 15.8525 39.0169C16.1394 39.1012 47.8231 46.1466 48.5775 46.3048C50.235 46.6528 52.6681 47.4122 54.2725 46.4841C54.4956 46.3575 67.4262 38.4263 67.6387 38.2786C68.2125 37.8567 68.0956 37.5614 67.4581 37.4138Z" fill="url(#paint0_linear_611_32)"/>
</g>
<defs>
<linearGradient id="paint0_linear_611_32" x1="34.0056" y1="3.06177" x2="-5.05277" y2="48.3133" gradientUnits="userSpaceOnUse">
<stop stop-color="#D13F96"/>
<stop offset="0.0001" stop-color="#D13F96"/>
<stop offset="1" stop-color="#3E14C9"/>
</linearGradient>
<clipPath id="clip0_611_32">
<rect width="68" height="54" fill="white"/>
</clipPath>
</defs>
</svg>
