<svg width="59" height="59" viewBox="0 0 59 59" fill="none" xmlns="http://www.w3.org/2000/svg">
<circle cx="29.5" cy="29.5" r="29.5" transform="rotate(-180 29.5 29.5)" fill="white"/>
<path d="M27 40.0898C27 41.4706 28.1193 42.5898 29.5 42.5898C30.8807 42.5898 32 41.4706 32 40.0898L27 40.0898ZM31.2678 16.3862C30.2915 15.4099 28.7085 15.4099 27.7322 16.3862L11.8223 32.2961C10.846 33.2724 10.846 34.8553 11.8223 35.8316C12.7986 36.8079 14.3816 36.8079 15.3579 35.8316L29.5 21.6895L43.6421 35.8316C44.6184 36.8079 46.2014 36.8079 47.1777 35.8316C48.154 34.8553 48.154 33.2724 47.1777 32.2961L31.2678 16.3862ZM32 40.0898L32 18.1539L27 18.1539L27 40.0898L32 40.0898Z" fill="url(#paint0_linear_127_916)"/>
<defs>
<linearGradient id="paint0_linear_127_916" x1="18.5" y1="17.5" x2="36" y2="35.5" gradientUnits="userSpaceOnUse">
<stop stop-color="#3E14C9"/>
<stop stop-color="#D13F96"/>
<stop offset="1" stop-color="#3E14C9"/>
</linearGradient>
</defs>
</svg>
