<svg width="99" height="99" viewBox="0 0 99 99" fill="none" xmlns="http://www.w3.org/2000/svg">
<ellipse cx="49.878" cy="49.8763" rx="49.1293" ry="49.1243" fill="url(#paint0_linear_611_103)"/>
<path d="M73.3349 31.5921C67.9722 27.1695 59.4922 26.4203 59.1338 26.3885C58.5675 26.3386 58.0299 26.6678 57.7976 27.199C57.7887 27.2172 57.3153 28.6271 56.8573 29.987C63.0895 31.1062 67.3239 33.59 67.5496 33.7262C68.6071 34.3573 68.9611 35.749 68.3438 36.832C67.9345 37.5539 67.1934 37.958 66.4324 37.958C66.054 37.958 65.6735 37.8604 65.324 37.6515C65.262 37.6129 59.0498 33.985 50.9504 33.985C42.8488 33.985 36.6343 37.6152 36.5724 37.6515C35.5171 38.2804 34.1631 37.9104 33.5503 36.8251C32.9375 35.7445 33.2937 34.3573 34.3467 33.7262C34.5724 33.59 38.8223 31.0972 45.0722 29.9802C44.5899 28.6044 44.1032 27.2172 44.0943 27.199C43.862 26.6655 43.3244 26.3295 42.7581 26.3885C42.3997 26.418 33.9198 27.1673 28.4862 31.6511C25.6456 34.3437 19.9731 50.086 19.9731 63.6965C19.9731 63.9372 20.0329 64.171 20.1501 64.3799C24.0682 71.4406 34.7494 73.2886 37.183 73.368C37.1985 73.3703 37.2117 73.3703 37.225 73.3703C37.6542 73.3703 38.0591 73.1592 38.3135 72.8027L40.9462 69.143C35.1719 67.715 32.1189 65.4696 31.9353 65.3312C30.953 64.5888 30.7406 63.1675 31.4641 62.1573C32.1853 61.1515 33.5658 60.929 34.5481 61.6669C34.6299 61.7214 40.2648 65.7693 50.946 65.7693C61.6692 65.7693 67.2885 61.7055 67.3438 61.6646C68.3261 60.9336 69.711 61.1538 70.4301 62.1663C71.1469 63.1744 70.9389 64.5865 69.961 65.3266C69.7774 65.4651 66.7399 67.7059 60.9789 69.1339L63.5784 72.8005C63.8329 73.1592 64.2377 73.368 64.6669 73.368C64.6824 73.368 64.6957 73.368 64.7089 73.3658C67.1447 73.2863 77.8259 71.4383 81.7418 64.3776C81.859 64.1688 81.9188 63.9349 81.9188 63.6943C81.9188 50.086 76.2463 34.3437 73.3349 31.5921ZM42.0966 58.9584C39.6519 58.9584 37.6719 56.4179 37.6719 53.2826C37.6719 50.1473 39.6519 47.6068 42.0966 47.6068C44.5412 47.6068 46.5213 50.1473 46.5213 53.2826C46.5213 56.4179 44.5412 58.9584 42.0966 58.9584ZM59.7953 58.9584C57.3507 58.9584 55.3706 56.4179 55.3706 53.2826C55.3706 50.1473 57.3507 47.6068 59.7953 47.6068C62.24 47.6068 64.22 50.1473 64.22 53.2826C64.22 56.4179 62.24 58.9584 59.7953 58.9584Z" fill="white"/>
<defs>
<linearGradient id="paint0_linear_611_103" x1="49.878" y1="0.751953" x2="-34.9297" y2="64.1353" gradientUnits="userSpaceOnUse">
<stop stop-color="#D13F96"/>
<stop offset="0.0001" stop-color="#D13F96"/>
<stop offset="1" stop-color="#3E14C9"/>
</linearGradient>
</defs>
</svg>
