<svg width="40" height="53" viewBox="0 0 40 53" fill="none" xmlns="http://www.w3.org/2000/svg">
<path d="M9.64432 37.3822C9.64432 37.8865 9.78877 38.3785 10.0646 38.799L11.428 40.8564C11.8457 41.487 12.7938 42 13.5471 42H18.4527C19.2035 42 20.1518 41.4874 20.5694 40.8564L21.928 38.7998C22.1617 38.4443 22.3535 37.8091 22.3535 37.3822L22.3636 34.2428H9.63636L9.64432 37.3822ZM15.9523 1.00007C7.84182 1.02509 2 7.64377 2 15.0221C2 18.5764 3.30773 21.8166 5.465 24.2961C6.77989 25.8049 8.83295 28.9595 9.61886 31.62C9.62135 31.64 9.62632 31.6614 9.62881 31.6827H22.372C22.3745 31.6614 22.3794 31.6413 22.3819 31.62C23.1674 28.9595 25.2209 25.8049 26.5358 24.2961C28.6955 21.8855 30 18.65 30 15.0221C30 7.2946 23.708 0.976289 15.9523 1.00007ZM16 8.6881C12.4897 8.6881 9.63636 11.5624 9.63636 15.0229C9.63636 15.799 9.06364 16.3756 8.36364 16.3756C7.66364 16.3756 7.09091 15.799 7.09091 15.0942C7.09091 10.1481 11.0881 6.19661 16 6.19661C16.7035 6.19661 17.2727 6.76995 17.2727 7.47799C17.2727 8.18604 16.7 8.6881 16 8.6881Z" fill="url(#paint0_linear_611_38)"/>
<defs>
<linearGradient id="paint0_linear_611_38" x1="16" y1="1" x2="-13.8828" y2="16.2508" gradientUnits="userSpaceOnUse">
<stop stop-color="#D13F96"/>
<stop offset="0.0001" stop-color="#D13F96"/>
<stop offset="1" stop-color="#3E14C9"/>
</linearGradient>
</defs>
</svg>
