<svg width="98" height="98" viewBox="0 0 98 98" fill="none" xmlns="http://www.w3.org/2000/svg">
<ellipse cx="48.878" cy="49.1673" rx="48.8373" ry="48.8323" fill="url(#paint0_linear_612_168)"/>
<path d="M41.1923 61.1989H44.3658V73.23C44.3658 74.8843 43.0122 76.2378 41.3577 76.2378H35.3416C33.6871 76.2378 32.3335 74.8843 32.3335 73.23V61.1989H20.1356C17.8495 61.1989 16.4056 58.7325 17.5036 56.7323L35.7176 23.8421C36.8606 21.7818 39.8387 21.7818 40.9817 23.8421L48.2764 38.4901L38.5602 56.7323C37.4623 58.7325 38.9061 61.1989 41.1923 61.1989Z" fill="white"/>
<path d="M77.6203 61.1989H65.4225V73.23C65.4225 74.8843 64.0688 76.2378 62.4144 76.2378H56.3982C54.7437 76.2378 53.3901 74.8843 53.3901 73.23V61.1989H56.5636C58.8498 61.1989 60.2937 58.7325 59.1957 56.7323L49.3292 38.4901L56.7742 23.8421C57.9173 21.7818 60.8953 21.7818 62.0384 23.8421L80.2523 56.7323C81.3503 58.7325 79.9064 61.1989 77.6203 61.1989Z" fill="white"/>
<defs>
<linearGradient id="paint0_linear_612_168" x1="48.878" y1="0.334961" x2="-35.4256" y2="63.3416" gradientUnits="userSpaceOnUse">
<stop stop-color="#D13F96"/>
<stop offset="0.0001" stop-color="#D13F96"/>
<stop offset="1" stop-color="#3E14C9"/>
</linearGradient>
</defs>
</svg>
