<svg width="98" height="99" viewBox="0 0 98 99" fill="none" xmlns="http://www.w3.org/2000/svg">
<path d="M97.5 49.5C97.5 76.4222 75.6722 98.25 48.75 98.25C21.8278 98.25 0 76.4222 0 49.5C0 22.5778 21.8278 0.75 48.75 0.75C75.6722 0.75 97.5 22.5778 97.5 49.5Z" fill="url(#paint0_linear_611_96)"/>
<path d="M18.7307 48.8101C35.7688 41.3148 57.816 32.1766 60.8605 30.9116C68.8433 27.6015 71.293 28.2352 70.0718 35.5672C69.1943 40.8371 66.6641 58.2823 64.6459 69.1413C63.4491 75.5812 60.763 76.3441 56.5412 73.5581C54.5108 72.2175 44.2611 65.4388 42.0357 63.8471C40.0052 62.3968 37.2045 60.6515 40.717 57.2147C41.9674 55.991 50.1598 48.1666 56.5436 42.0778C57.3797 41.2783 56.3292 39.9645 55.3639 40.6055C46.7595 46.3117 34.8304 54.2311 33.3118 55.2622C31.0181 56.8198 28.8146 57.534 24.861 56.3981C21.8726 55.5401 18.955 54.5163 17.8191 54.1263C13.4438 52.6248 14.4822 50.6797 18.7307 48.8101Z" fill="white"/>
<defs>
<linearGradient id="paint0_linear_611_96" x1="48.75" y1="0.75" x2="-35.4091" y2="63.6422" gradientUnits="userSpaceOnUse">
<stop stop-color="#D13F96"/>
<stop offset="0.0001" stop-color="#D13F96"/>
<stop offset="1" stop-color="#3E14C9"/>
</linearGradient>
</defs>
</svg>
