<svg width="98" height="98" viewBox="0 0 98 98" fill="none" xmlns="http://www.w3.org/2000/svg">
<ellipse cx="53.2291" cy="50.0498" rx="40.2717" ry="41.3315" fill="white"/>
<path d="M48.99 0.240234C22.1075 0.240234 0.23999 22.1078 0.23999 48.9902C0.23999 75.8727 22.1075 97.7402 48.99 97.7402C75.8724 97.7402 97.74 75.8727 97.74 48.9902C97.74 22.1078 75.8724 0.240234 48.99 0.240234ZM72.8075 39.5031C72.8287 40.0033 72.8415 40.512 72.8415 41.0228C72.8415 56.5338 61.0291 74.425 39.4329 74.425C32.8029 74.425 26.6286 72.4814 21.4356 69.1494C22.3534 69.2596 23.2839 69.3126 24.2356 69.3126C29.738 69.3126 34.8016 67.4389 38.8161 64.2893C33.6783 64.196 29.3459 60.7941 27.8473 56.1353C28.5659 56.2731 29.3013 56.3472 30.0602 56.3472C31.1305 56.3472 32.1691 56.2052 33.1505 55.9339C27.7837 54.8508 23.7375 50.1115 23.7375 44.4205C23.7375 44.3696 23.7375 44.3208 23.7375 44.2721C25.3208 45.1517 27.1288 45.6816 29.0555 45.7431C25.9016 43.6341 23.8329 40.0436 23.8329 35.9697C23.8329 33.8184 24.4094 31.8027 25.4204 30.0646C31.2132 37.1673 39.8653 41.8409 49.6216 42.3327C49.4203 41.4721 49.3143 40.5777 49.3143 39.6578C49.3143 33.174 54.5708 27.9175 61.0567 27.9175C64.4331 27.9175 67.4832 29.3419 69.624 31.6246C72.2967 31.099 74.8127 30.1219 77.0806 28.7781C76.2052 31.5165 74.3421 33.8184 71.9152 35.2724C74.2934 34.9841 76.5528 34.3568 78.6618 33.422C77.0891 35.7769 75.0988 37.8477 72.8075 39.5031Z" fill="url(#paint0_linear_838_217)"/>
<defs>
<linearGradient id="paint0_linear_838_217" x1="48.99" y1="0.240234" x2="-35.1691" y2="63.1325" gradientUnits="userSpaceOnUse">
<stop stop-color="#D13F96"/>
<stop offset="0.0001" stop-color="#D13F96"/>
<stop offset="1" stop-color="#3E14C9"/>
</linearGradient>
</defs>
</svg>
