<svg width="39" height="42" viewBox="0 0 39 42" fill="none" xmlns="http://www.w3.org/2000/svg">
<path d="M23.9378 7.875H14.3627L10.8169 2.04094C10.2858 1.16812 10.8543 0 11.8118 0H26.4887C27.4462 0 28.0147 1.16812 27.4836 2.04094L23.9378 7.875ZM14.3627 10.5H23.9378C24.2221 10.7051 24.5438 10.9348 24.843 11.1891C29.1518 14.1668 38.3005 20.5816 38.3005 34.125C38.3005 38.4727 35.0839 42 31.1192 42H7.18135C3.21515 42 0 38.4727 0 34.125C0 20.5816 9.14874 14.1668 13.3902 11.1891C13.7568 10.9348 14.0784 10.7051 14.3627 10.5ZM20.6539 18.375C20.6539 17.4645 19.9806 16.7262 19.0829 16.7262C18.3199 16.7262 17.6467 17.4645 17.6467 18.375V18.8672C17.2278 18.9656 16.764 19.1051 16.4573 19.2855C15.3427 19.8434 14.3702 20.877 14.1308 22.3781C13.9962 23.2148 14.071 24.027 14.3851 24.757C14.6993 25.4789 15.1856 25.9875 15.6793 26.3566C16.547 27.0047 17.6916 27.382 18.5668 27.6691L18.7314 27.7184C19.7786 28.0711 20.4818 28.3254 20.9232 28.6781C21.1102 28.8258 21.1775 28.9406 21.1999 29.0145C21.2299 29.0801 21.2748 29.2277 21.2224 29.5559C21.1775 29.843 21.0354 30.0891 20.6239 30.2777C20.1676 30.491 19.427 30.5977 18.4695 30.4336C18.0207 30.3516 17.2203 30.0563 16.5096 29.7938C16.3451 29.7281 16.1805 29.6707 16.0309 29.6133C15.2454 29.3262 14.4001 29.7938 14.1383 30.6551C13.8765 31.5164 14.3029 32.4434 15.0883 32.6566C15.1781 32.7633 15.2903 32.8043 15.4175 32.8535C15.9411 33.075 16.936 33.4195 17.6467 33.6V34.125C17.6467 35.0355 18.3199 35.7738 19.0829 35.7738C19.9806 35.7738 20.6539 35.0355 20.6539 34.125V33.6738C21.0503 33.5918 21.4393 33.3949 21.7984 33.2965C22.9803 32.7469 23.9229 31.6805 24.1697 30.1219C24.3044 29.2688 24.2445 28.4484 23.9453 27.702C23.6536 26.9637 23.1823 26.4223 22.6811 26.0285C21.776 25.2984 20.5641 24.9047 19.6589 24.6012L19.5318 24.5848C18.5369 24.232 17.8187 23.9859 17.3624 23.6414C17.1679 23.4938 17.1081 23.3953 17.0931 23.3543C17.0781 23.3215 17.0333 23.223 17.0781 22.9441C17.1081 22.7801 17.2203 22.5094 17.6916 22.2797C18.1105 22.0418 18.9184 21.9105 19.831 21.9926C20.1601 22.1238 21.17 22.3371 21.4618 22.4191C22.2547 22.657 23.0776 22.132 23.287 21.2543C23.504 20.3848 23.0252 19.4824 22.2248 19.2527C21.8956 19.1543 21.1476 18.9902 20.6539 18.8918V18.375Z" fill="url(#paint0_linear_611_45)"/>
<defs>
<linearGradient id="paint0_linear_611_45" x1="19.1503" y1="0" x2="-16.0328" y2="23.9765" gradientUnits="userSpaceOnUse">
<stop stop-color="#D13F96"/>
<stop offset="0.0001" stop-color="#D13F96"/>
<stop offset="1" stop-color="#3E14C9"/>
</linearGradient>
</defs>
</svg>
